<?xml version="1.0" standalone="no"?>
<!DOCTYPE svg PUBLIC "-//W3C//DTD SVG 20010904//EN"
 "http://www.w3.org/TR/2001/REC-SVG-20010904/DTD/svg10.dtd">
<svg version="1.0" xmlns="http://www.w3.org/2000/svg"
 width="192.000000pt" height="192.000000pt" viewBox="0 0 192.000000 192.000000"
 preserveAspectRatio="xMidYMid meet">
<metadata>
Created by potrace 1.11, written by Peter Selinger 2001-2013
</metadata>
<g transform="translate(0.000000,192.000000) scale(0.100000,-0.100000)"
fill="#000000" stroke="none">
<path d="M904 1496 c-4 -11 -1 -21 7 -27 17 -11 26 18 10 34 -7 7 -12 5 -17
-7z"/>
<path d="M800 1440 c-9 -6 -10 -10 -3 -10 6 0 15 5 18 10 8 12 4 12 -15 0z"/>
<path d="M893 1439 c-6 -8 -17 -28 -24 -44 l-13 -30 -3 26 c-3 22 -9 26 -32
24 -15 -1 -33 -5 -39 -9 -7 -4 -12 -2 -12 4 0 8 -6 7 -21 -1 -15 -7 -18 -13
-10 -18 6 -4 9 -15 6 -23 -4 -9 -2 -19 4 -23 16 -9 -6 -48 -22 -39 -8 5 -8 2
1 -7 11 -12 14 -12 21 0 5 8 11 9 15 3 10 -16 -23 -37 -36 -24 -7 7 -16 12
-22 12 -5 0 -1 -6 9 -14 18 -13 18 -13 -1 -24 -16 -9 -17 -13 -6 -24 7 -7 13
-8 12 -3 -5 22 1 27 17 14 14 -12 15 -12 9 -1 -7 11 -4 12 13 3 17 -9 21 -9
19 1 -2 7 3 12 10 10 8 -1 11 1 8 6 -2 4 0 14 6 22 8 12 9 12 4 -2 -3 -10 -1
-17 6 -15 16 3 17 -41 1 -47 -7 -3 -20 -3 -28 0 -11 5 -13 2 -9 -10 3 -9 1
-16 -6 -16 -6 0 -8 5 -4 12 5 8 2 9 -10 5 -10 -4 -20 -7 -24 -7 -3 0 3 -7 14
-16 18 -15 18 -15 -3 -5 -15 8 -24 8 -28 1 -5 -7 -11 -8 -19 -1 -12 10 -27 10
-61 -2 -18 -6 -52 -52 -51 -68 1 -4 -6 -15 -14 -25 -8 -11 -15 -30 -15 -44 0
-14 -7 -31 -15 -38 -13 -12 -12 -13 5 -8 18 5 18 5 3 -7 -15 -12 -15 -14 0
-25 13 -9 11 -9 -11 0 -20 8 -24 14 -15 20 7 4 10 8 6 8 -4 0 -1 12 7 26 18
34 11 49 -31 69 -20 9 -38 23 -41 31 -3 8 -9 12 -13 9 -4 -3 -13 2 -20 10 -16
19 1 63 36 96 21 20 27 21 35 9 8 -12 9 -12 7 4 -2 14 7 22 36 32 22 8 43 11
48 6 10 -10 -20 -54 -33 -47 -5 3 -6 0 -3 -8 5 -13 -36 -41 -63 -42 -6 0 -15
-4 -20 -9 -4 -5 -3 -6 5 -2 7 4 12 1 12 -9 0 -9 4 -13 10 -10 6 3 10 1 10 -5
0 -7 6 -8 18 -2 9 5 23 7 31 4 9 -3 11 0 6 9 -6 11 -5 12 6 2 7 -7 18 -13 24
-13 6 0 5 3 -2 8 -8 5 -2 18 19 41 16 18 32 30 36 26 3 -3 0 -10 -7 -14 -9 -6
-10 -11 -2 -15 6 -4 11 -1 11 6 0 10 2 10 9 -1 7 -11 9 -11 14 0 5 12 8 11 17
-1 10 -13 11 -12 6 3 -4 12 -2 16 6 11 7 -4 8 -3 4 4 -5 9 -13 9 -28 1 -16 -9
-19 -8 -15 3 2 7 10 12 16 11 6 -2 11 2 11 7 0 13 -13 13 -27 -1 -16 -16 -26
6 -13 31 8 15 6 24 -9 39 -30 30 -73 49 -101 44 -38 -6 -113 -59 -135 -95 -50
-82 -49 -119 5 -165 17 -14 27 -30 23 -36 -3 -7 -3 -9 2 -5 4 4 16 3 27 -3 18
-10 18 -11 -2 -40 -12 -16 -30 -34 -41 -39 -18 -10 -19 -8 -13 45 6 63 -6 67
-43 12 -27 -39 -29 -65 -8 -81 13 -9 11 -15 -13 -41 -15 -16 -37 -51 -49 -78
l-23 -47 -37 15 c-47 20 -44 16 -34 53 11 39 7 42 -44 33 -22 -4 -62 -3 -89 1
-27 4 -53 5 -57 3 -17 -11 34 -129 74 -173 l21 -22 21 20 c17 16 31 20 61 16
21 -2 47 -5 56 -5 15 -1 17 -8 12 -45 -8 -55 12 -93 66 -124 60 -34 97 -27
147 26 l23 25 21 -27 c28 -36 53 -33 79 9 12 19 24 35 27 35 4 0 3 -3 0 -6
-14 -14 15 -43 47 -50 27 -4 33 -10 29 -22 -4 -10 -3 -14 1 -10 4 3 8 13 10
21 3 22 55 79 66 72 6 -3 13 1 16 10 6 13 9 14 16 3 7 -9 8 -8 5 7 -2 11 -9
19 -16 17 -7 -1 -10 2 -6 8 12 19 36 -11 32 -39 -10 -72 56 -122 103 -78 15
13 24 16 34 8 9 -7 16 -7 24 1 7 7 12 8 12 2 0 -5 -5 -15 -12 -22 -9 -9 -9
-12 0 -12 7 0 12 4 12 10 0 5 3 9 8 9 19 -3 33 2 27 11 -3 6 -2 10 4 10 5 0
13 -5 16 -10 4 -6 11 -7 17 -4 8 5 9 1 4 -12 -6 -15 -5 -17 5 -6 10 9 10 15 1
24 -7 7 -12 8 -12 4 0 -5 -11 3 -25 18 -14 15 -25 22 -25 16 0 -6 -5 -8 -11
-4 -8 4 -7 9 2 15 8 5 9 9 3 9 -15 0 -36 -25 -28 -33 3 -3 3 -11 -1 -17 -5 -8
-11 -8 -22 1 -12 11 -12 14 2 21 8 5 13 13 10 17 -2 5 2 14 10 21 8 7 12 17 8
23 -3 6 -1 7 6 3 6 -4 8 -12 5 -18 -5 -8 -1 -9 10 -5 9 4 15 3 11 -2 -3 -6 10
-22 30 -37 33 -25 36 -26 60 -10 14 9 25 21 25 27 0 6 12 1 26 -10 36 -28 48
-27 83 11 22 24 31 28 31 17 0 -9 12 -24 26 -34 62 -40 164 28 209 140 13 34
31 61 40 63 12 3 15 -1 11 -15 -28 -91 -25 -144 9 -157 33 -12 53 -5 78 27 13
17 34 43 46 56 11 13 21 28 21 34 0 5 11 6 25 3 19 -5 25 -2 26 11 0 10 3 37
5 61 5 47 0 50 -36 22 -14 -11 -30 -20 -37 -20 -21 0 -27 -23 -10 -35 15 -11
13 -17 -24 -59 -23 -25 -49 -51 -59 -56 -16 -9 -17 -6 -10 23 4 17 19 58 34
89 l25 57 -21 15 c-20 14 -24 14 -46 0 -13 -9 -26 -13 -29 -11 -9 10 21 92 39
105 24 18 35 65 28 127 -3 29 -3 64 1 79 5 18 3 31 -8 41 -22 23 -31 19 -54
-27 -12 -24 -29 -52 -38 -62 -15 -18 -15 -19 12 -12 29 7 29 9 31 -74 1 -29
-3 -36 -21 -38 -27 -4 -29 5 -7 36 19 28 13 47 -16 55 -43 11 -72 -82 -35
-113 11 -9 10 -15 -6 -31 -25 -25 -24 -71 1 -94 18 -16 18 -20 5 -46 -8 -15
-15 -34 -15 -41 0 -30 -127 -128 -144 -111 -16 16 -4 41 22 46 51 10 112 76
103 112 -2 5 -3 17 -4 27 -1 9 -6 16 -12 15 -5 -1 -8 5 -7 13 2 8 0 12 -4 7
-4 -4 -18 0 -32 9 -13 9 -21 11 -18 5 4 -6 0 -11 -8 -11 -9 0 -19 -1 -23 -1
-12 -3 -68 -83 -65 -92 1 -5 -3 -15 -9 -23 -6 -8 -8 -14 -4 -14 4 0 2 -6 -4
-13 -6 -8 -9 -16 -6 -19 3 -2 -8 -16 -23 -31 -27 -26 -28 -26 -29 -5 -1 11 9
41 22 64 14 24 22 44 18 44 -3 0 2 9 12 20 12 13 14 20 5 20 -8 0 -10 6 -5 18
4 9 8 23 9 30 3 17 26 40 26 25 0 -6 -6 -14 -12 -16 -10 -4 -10 -6 -1 -6 11
-1 30 23 32 42 1 11 16 9 17 -3 1 -5 2 -14 3 -18 0 -5 8 -9 17 -9 15 0 15 1 0
12 -8 7 -13 15 -9 18 3 4 12 2 20 -5 18 -15 29 -2 13 17 -10 12 -16 13 -28 3
-13 -11 -15 -10 -9 4 4 13 2 16 -11 12 -15 -5 -15 -4 1 6 9 6 21 9 25 6 4 -2
14 -1 21 3 10 6 10 13 2 29 -8 15 -7 23 5 33 13 10 17 10 25 -2 5 -9 9 -10 9
-2 0 7 -7 16 -16 21 -21 12 -9 33 14 26 9 -2 7 1 -6 7 -20 11 -26 8 -57 -27
-19 -21 -34 -33 -35 -26 0 6 5 12 10 12 6 0 10 5 10 11 0 5 -5 7 -12 3 -7 -4
-8 -3 -4 4 4 6 14 8 24 5 14 -5 13 -2 -3 11 -20 17 -20 17 3 13 17 -4 21 -2
14 6 -11 15 -12 47 0 47 14 0 9 27 -12 52 -10 14 -16 28 -12 32 3 4 -2 4 -12
0 -12 -5 -14 -9 -6 -14 8 -5 8 -9 -3 -13 -8 -3 -24 3 -35 14 -23 20 -37 25
-27 9 3 -5 1 -11 -4 -11 -6 -1 -15 -2 -20 -3 -5 0 -21 -14 -35 -31 -22 -25
-24 -26 -19 -7 3 12 10 22 15 22 5 0 6 5 3 10 -4 6 -1 9 6 8 7 -2 13 6 14 17
0 15 6 19 25 17 17 -1 21 1 11 7 -9 6 -10 11 -2 15 6 4 11 13 11 19 0 7 -5 4
-11 -5 -5 -10 -15 -18 -21 -18 -7 0 -6 5 2 15 9 10 9 15 1 15 -6 0 -11 -5 -11
-11 0 -6 -9 -8 -20 -4 -12 4 -20 2 -20 -5 0 -6 4 -9 8 -6 4 2 14 1 22 -5 11
-6 8 -9 -13 -9 -24 0 -27 3 -24 28 5 34 -37 76 -63 62 -11 -6 -21 -5 -28 2 -9
9 -12 9 -12 1 0 -17 22 -22 45 -10 19 10 19 9 2 -10 -9 -11 -15 -27 -12 -35 5
-13 -13 -29 -37 -32 -3 -1 -10 -4 -14 -9 -4 -4 -16 1 -27 10 -15 13 -21 15
-24 6 -6 -17 -20 -16 -26 1 -4 11 -1 13 10 9 14 -5 14 -4 -1 18 -15 23 -14 25
4 25 10 0 16 -5 13 -10 -4 -5 -1 -6 7 -1 8 5 11 4 7 -2 -4 -6 -1 -18 6 -27 12
-17 14 -17 28 0 12 16 12 17 -3 11 -10 -3 -20 -3 -22 2 -3 4 8 7 24 7 18 0 27
-4 23 -10 -3 -6 0 -5 8 2 12 11 12 14 -1 22 -8 5 -21 5 -31 0 -12 -7 -21 -5
-30 6 -11 13 -10 15 2 14 25 -4 39 0 39 9 0 5 -12 8 -26 5 -18 -3 -23 -1 -18
7 4 8 3 9 -5 5 -6 -4 -9 -11 -6 -16 8 -13 -38 -8 -48 5 -5 5 -6 1 -3 -10 5
-16 1 -21 -15 -22 -16 -2 -18 1 -10 11 8 10 7 17 -3 26 -13 10 -15 8 -11 -9 2
-11 0 -23 -6 -26 -5 -4 -9 -3 -9 2 0 4 -13 14 -30 21 -25 12 -33 11 -52 -2
-26 -19 -42 -21 -32 -4 5 7 3 8 -6 3 -9 -6 -10 -2 -5 15 4 12 8 30 9 38 2 9 8
18 15 20 10 3 10 0 2 -17 -8 -14 -8 -21 -1 -21 5 0 10 -5 10 -11 0 -5 -5 -7
-12 -3 -7 5 -8 3 -3 -6 11 -18 35 15 30 41 -2 10 1 19 7 19 5 0 8 -6 5 -14
-10 -24 15 -38 35 -19 11 10 18 11 18 5 0 -24 40 -12 46 13 3 14 13 25 22 25
13 0 13 -2 -1 -18 -25 -27 -21 -47 9 -50 17 -1 23 2 18 10 -4 7 -3 8 4 4 7 -4
12 -2 12 5 0 8 4 8 15 -1 11 -10 18 -10 29 -1 10 8 15 9 18 1 4 -13 38 -2 38
12 0 5 -4 7 -9 4 -5 -3 -7 10 -4 29 6 44 -14 47 -30 5 -13 -35 -28 -40 -24 -9
1 14 -4 23 -15 24 -9 2 -15 -2 -12 -9 2 -6 -2 -20 -10 -31 -14 -19 -15 -17 -9
19 5 29 3 37 -6 32 -6 -4 -18 -2 -26 4 -11 9 -15 9 -16 1 -1 -6 -3 -15 -4 -21
-1 -5 -4 -16 -5 -22 -2 -7 -6 5 -9 26 -5 32 -8 37 -18 25z m-37 -134 c4 -8 10
-12 15 -9 5 3 12 -2 15 -11 6 -13 8 -14 15 -3 7 10 9 8 9 -7 1 -20 1 -20 15
-1 11 14 15 16 15 5 0 -12 2 -12 10 1 5 8 10 11 10 5 0 -5 -9 -23 -21 -40 -14
-20 -19 -23 -15 -10 5 16 1 21 -14 22 -16 1 -18 -2 -10 -16 10 -19 4 -31 -14
-31 -7 0 -7 3 1 8 7 5 9 13 4 21 -7 11 -10 9 -16 -8 -3 -11 -11 -21 -16 -21
-5 0 -3 10 5 23 13 19 13 24 0 42 l-16 20 2 -20 c4 -35 0 -46 -11 -39 -8 4 -7
9 2 15 10 6 10 9 2 9 -15 0 -36 37 -28 50 9 15 35 12 41 -5z m-66 -24 c-12
-24 -29 -35 -38 -26 -4 4 4 15 17 26 29 24 34 24 21 0z m229 -65 c8 -10 9 -16
1 -21 -6 -4 -10 -3 -9 2 4 22 -2 25 -17 7 -14 -18 -15 -18 -4 4 13 26 14 26
29 8z m-51 -12 c-4 -3 -12 -6 -20 -8 -7 -1 -19 -5 -26 -10 -7 -4 -16 -5 -19
-2 -4 3 -1 6 6 6 7 0 10 4 6 9 -3 6 3 8 15 6 11 -2 22 1 26 6 3 6 9 8 12 5 3
-3 3 -9 0 -12z m-165 -19 c-3 -9 -8 -14 -10 -11 -3 3 -2 9 2 15 9 16 15 13 8
-4z m82 6 c3 -5 2 -12 -3 -15 -5 -3 -9 1 -9 9 0 17 3 19 12 6z m143 -36 c-3
-3 -9 2 -12 12 -6 14 -5 15 5 6 7 -7 10 -15 7 -18z m116 -30 c-4 -8 -11 -12
-16 -9 -6 4 -5 10 3 15 19 12 19 11 13 -6z m126 -14 c-5 -11 -15 -23 -20 -26
-6 -4 -7 -11 -4 -17 4 -6 2 -8 -4 -4 -5 3 -12 0 -15 -6 -2 -7 -7 -10 -11 -7
-3 3 3 15 14 27 12 12 17 22 13 22 -7 1 27 30 34 30 2 0 -1 -9 -7 -19z m-585
-1 c3 -5 1 -10 -4 -10 -6 0 -11 5 -11 10 0 6 2 10 4 10 3 0 8 -4 11 -10z m-16
-23 c-2 -1 -13 -9 -24 -17 -19 -14 -19 -14 -6 3 7 9 18 17 24 17 6 0 8 -1 6
-3z m-25 -45 c3 -5 -1 -9 -9 -9 -8 0 -12 4 -9 9 3 4 7 8 9 8 2 0 6 -4 9 -8z
m721 -71 c3 -5 1 -12 -5 -16 -5 -3 -10 1 -10 9 0 18 6 21 15 7z m-133 -33 c-8
-8 -9 -4 -5 13 4 13 8 18 11 10 2 -7 -1 -18 -6 -23z m-637 -16 c4 1 14 -6 21
-18 13 -18 12 -24 -5 -46 -11 -14 -17 -29 -13 -34 4 -5 -2 -2 -12 6 -14 11
-17 11 -12 2 5 -8 1 -20 -11 -30 -23 -22 -53 -79 -53 -102 0 -10 -9 -28 -19
-41 -18 -22 -22 -23 -43 -10 -21 13 -22 13 -9 -3 12 -14 11 -19 -5 -31 -10 -8
-30 -18 -44 -21 -14 -3 -29 -7 -35 -9 -5 -1 -18 2 -28 7 -14 7 -18 20 -16 64
3 62 12 72 73 76 20 1 36 6 36 11 0 4 4 6 9 3 5 -3 25 5 45 19 20 14 41 25 46
25 6 0 10 3 10 8 1 14 40 54 56 56 20 3 34 25 27 43 -7 19 -23 5 -17 -15 5
-14 4 -14 -4 -2 -6 8 -9 17 -6 21 2 4 0 10 -6 14 -5 3 -10 12 -10 18 0 8 3 8
9 -1 4 -8 12 -12 16 -10z m50 -10 c-3 -3 -11 0 -18 7 -9 10 -8 11 6 5 10 -3
15 -9 12 -12z m39 10 c3 -5 -1 -9 -9 -9 -8 0 -12 4 -9 9 3 4 7 8 9 8 2 0 6 -4
9 -8z m-164 -18 c0 -2 -10 -19 -22 -37 -27 -42 -79 -77 -126 -84 l-36 -6 23
32 c20 27 25 30 39 19 15 -12 16 -11 3 5 -8 9 -12 19 -10 20 2 2 19 15 38 30
31 26 35 27 51 12 12 -11 20 -13 25 -5 3 6 1 9 -6 8 -6 -2 -13 2 -16 9 -3 7 3
9 16 6 12 -3 21 -7 21 -9z m140 -19 c-6 -8 -9 -19 -5 -24 4 -7 0 -8 -10 -5
-14 6 -14 8 1 25 20 22 32 26 14 4z m507 -10 c0 -8 -4 -12 -9 -9 -4 3 -8 9 -8
15 0 5 4 9 8 9 5 0 9 -7 9 -15z m38 -23 c-3 -3 -11 0 -18 7 -9 10 -8 11 6 5
10 -3 15 -9 12 -12z m45 9 c0 -6 -4 -12 -8 -15 -5 -3 -9 1 -9 9 0 8 4 15 9 15
4 0 8 -4 8 -9z m-618 -18 c-6 -2 -9 -10 -6 -15 4 -7 2 -8 -5 -4 -13 9 -5 26
12 25 9 0 8 -2 -1 -6z m538 -22 c0 -5 -8 -15 -17 -22 -16 -12 -17 -12 -6 2 7
9 10 19 6 22 -3 4 -1 7 5 7 7 0 12 -4 12 -9z m195 -68 c-35 -35 -36 -35 -20
-8 19 30 47 56 54 50 2 -2 -14 -21 -34 -42z m-209 4 c-1 -6 -6 -19 -11 -27 -5
-8 -10 -22 -10 -31 -1 -9 -13 -29 -28 -45 -22 -23 -27 -25 -27 -11 0 11 5 15
11 11 8 -4 9 1 4 15 -5 18 -3 22 11 19 9 -2 19 3 22 11 3 8 0 11 -6 7 -6 -3
-14 -1 -18 5 -4 7 -3 9 3 6 14 -9 41 24 38 46 -2 9 0 15 5 12 5 -3 7 -11 6
-18z m-520 -22 c1 -8 -3 -13 -9 -12 -7 1 -11 -4 -9 -11 2 -12 -53 -102 -63
-102 -6 0 5 52 17 74 6 12 21 31 34 42 12 12 21 25 18 28 -2 3 -1 4 3 1 4 -3
8 -12 9 -20z m485 2 c-10 -9 -11 -8 -5 6 3 10 9 15 12 12 3 -3 0 -11 -7 -18z
m-381 9 c0 -2 -7 -7 -16 -10 -8 -3 -12 -2 -9 4 6 10 25 14 25 6z m4 -33 c-11
-8 -18 -21 -16 -29 2 -8 -2 -14 -8 -14 -6 0 -8 5 -4 12 4 6 3 8 -4 5 -5 -4 -8
-17 -5 -30 4 -18 3 -19 -6 -7 -9 13 -11 11 -11 -7 0 -12 -4 -25 -10 -28 -13
-8 -13 -5 1 34 13 38 47 76 68 77 9 0 7 -4 -5 -13z m273 -43 c1 -16 -1 -17
-12 -7 -11 10 -8 19 10 27 1 0 1 -9 2 -20z m-87 -10 c0 -5 -5 -10 -11 -10 -5
0 -8 -4 -5 -9 3 -5 -3 -20 -14 -32 -19 -23 -19 -23 -15 -3 7 40 45 85 45 54z
m83 -73 c10 9 8 -9 -1 -25 -6 -9 -12 -5 -21 14 -10 23 -10 26 2 16 8 -7 17 -9
20 -5z"/>
<path d="M826 1302 c-2 -4 -1 -14 3 -21 6 -10 10 -9 14 3 6 16 -8 32 -17 18z"/>
<path d="M870 1281 c0 -6 4 -13 10 -16 6 -3 7 1 4 9 -7 18 -14 21 -14 7z"/>
<path d="M549 813 c-13 -16 -12 -17 4 -4 9 7 17 15 17 17 0 8 -8 3 -21 -13z"/>
<path d="M515 770 c3 -5 8 -10 11 -10 2 0 4 5 4 10 0 6 -5 10 -11 10 -5 0 -7
-4 -4 -10z"/>
<path d="M475 751 c-3 -5 0 -13 6 -17 7 -4 9 -3 5 4 -3 5 0 13 6 15 9 4 10 6
1 6 -6 1 -14 -3 -18 -8z"/>
<path d="M440 880 c-8 -5 -10 -10 -5 -10 6 0 17 5 25 10 8 5 11 10 5 10 -5 0
-17 -5 -25 -10z"/>
<path d="M455 861 c-3 -5 0 -13 6 -17 7 -4 9 -3 5 4 -3 6 2 13 11 15 16 4 16
5 1 6 -9 0 -19 -3 -23 -8z"/>
<path d="M427 839 c7 -7 15 -10 18 -7 3 3 -2 9 -12 12 -14 6 -15 5 -6 -5z"/>
<path d="M590 690 c-9 -6 -10 -10 -3 -10 6 0 15 5 18 10 8 12 4 12 -15 0z"/>
<path d="M1138 1409 c-10 -6 -18 -7 -18 -3 0 3 -7 1 -15 -6 -9 -8 -13 -21 -9
-36 4 -16 2 -24 -7 -24 -7 0 -10 -3 -7 -6 11 -10 50 17 44 31 -3 8 0 17 6 21
7 5 9 -3 6 -23 -3 -25 -1 -29 15 -25 11 3 16 10 13 19 -4 8 -3 20 1 26 4 7 9
3 13 -12 7 -31 20 -35 45 -17 19 15 19 15 -2 11 -19 -3 -23 1 -23 22 0 20 -4
24 -20 20 -10 -3 -20 -1 -22 3 -2 5 -11 4 -20 -1z"/>
<path d="M673 1333 c0 -9 4 -10 14 -2 7 6 13 12 13 14 0 1 -6 2 -13 2 -8 0
-14 -6 -14 -14z"/>
<path d="M864 1338 c3 -15 26 -23 26 -8 0 6 -4 9 -9 6 -5 -4 -12 -1 -14 4 -3
6 -4 5 -3 -2z"/>
<path d="M706 1324 c-6 -15 -4 -15 11 -3 10 7 20 15 22 16 2 2 -3 3 -11 3 -9
0 -19 -7 -22 -16z"/>
<path d="M127 1311 c-3 -9 -8 -23 -12 -32 -8 -20 42 -76 77 -84 33 -8 53 26
36 58 -7 12 -19 26 -26 30 -7 5 -10 11 -8 15 2 4 -11 12 -29 18 -28 9 -34 8
-38 -5z"/>
<path d="M1416 1305 c-10 -15 -19 -34 -21 -43 -2 -9 -9 -33 -14 -52 -14 -46
-14 -49 7 -46 24 3 88 124 75 145 -16 24 -29 23 -47 -4z"/>
<path d="M1170 1311 c0 -6 4 -13 10 -16 6 -3 7 1 4 9 -7 18 -14 21 -14 7z"/>
<path d="M1763 1308 c-13 -6 -23 -17 -23 -23 0 -7 -7 -16 -16 -19 -8 -3 -13
-9 -10 -14 2 -4 1 -14 -4 -22 -10 -16 14 -50 36 -50 16 0 72 53 75 72 3 15
-21 68 -30 67 -3 0 -16 -5 -28 -11z"/>
<path d="M670 1300 c0 -5 5 -10 10 -10 6 0 10 5 10 10 0 6 -4 10 -10 10 -5 0
-10 -4 -10 -10z"/>
<path d="M1226 1297 c3 -10 9 -15 12 -12 3 3 0 11 -7 18 -10 9 -11 8 -5 -6z"/>
<path d="M1255 1291 c-3 -5 -2 -12 3 -15 5 -3 9 1 9 9 0 17 -3 19 -12 6z"/>
<path d="M659 1263 c-12 -16 -12 -17 2 -5 9 7 25 10 35 6 16 -5 16 -4 4 5 -20
15 -25 14 -41 -6z"/>
<path d="M556 1258 c3 -5 10 -6 15 -3 13 9 11 12 -6 12 -8 0 -12 -4 -9 -9z"/>
<path d="M1075 1260 c-4 -6 -10 -8 -15 -5 -4 3 -14 -3 -21 -13 -12 -15 -12
-16 2 -5 9 7 18 11 21 8 3 -3 11 1 18 10 7 8 10 15 7 15 -3 0 -9 -5 -12 -10z"/>
<path d="M805 1250 c-4 -6 -11 -8 -16 -5 -5 3 -6 -1 -3 -9 8 -22 21 -20 27 4
6 22 2 26 -8 10z"/>
<path d="M1262 1240 c0 -14 2 -19 5 -12 2 6 2 18 0 25 -3 6 -5 1 -5 -13z"/>
<path d="M1295 1240 c1 -11 5 -23 10 -27 4 -5 5 -2 0 6 -6 10 -2 12 16 6 13
-4 22 -6 19 -4 -3 2 -14 12 -26 22 -20 16 -21 16 -19 -3z"/>
<path d="M721 1235 c2 -5 -3 -21 -10 -35 -13 -24 -13 -24 5 -9 10 9 28 22 39
28 12 8 13 10 4 8 -9 -3 -22 0 -28 6 -7 7 -11 8 -10 2z"/>
<path d="M45 1200 c-22 -25 13 -76 45 -64 8 3 28 7 44 10 38 5 40 8 21 37 -20
31 -88 42 -110 17z"/>
<path d="M1353 1199 c-2 -23 3 -25 10 -4 4 8 3 16 -1 19 -4 3 -9 -4 -9 -15z"/>
<path d="M1842 1209 c-33 -7 -64 -35 -58 -54 3 -12 81 -24 97 -15 5 4 16 18
23 32 11 21 10 25 -8 34 -12 5 -36 7 -54 3z"/>
<path d="M1215 1200 c3 -5 8 -10 11 -10 2 0 4 5 4 10 0 6 -5 10 -11 10 -5 0
-7 -4 -4 -10z"/>
<path d="M1275 1200 c3 -5 8 -10 11 -10 2 0 4 5 4 10 0 6 -5 10 -11 10 -5 0
-7 -4 -4 -10z"/>
<path d="M224 1176 c-3 -8 -12 -12 -20 -9 -19 7 -31 -27 -13 -37 7 -5 17 -6
21 -4 4 3 8 -2 8 -10 0 -9 6 -16 14 -16 18 0 40 27 28 34 -5 3 -7 17 -4 31 3
18 0 25 -12 25 -9 0 -19 -6 -22 -14z"/>
<path d="M1691 1166 c-9 -11 -8 -17 4 -30 9 -9 12 -16 6 -16 -16 0 -13 -27 3
-33 7 -3 20 3 28 13 9 10 22 20 29 22 12 4 12 7 0 22 -8 9 -16 14 -19 11 -3
-3 -13 2 -22 10 -15 13 -19 14 -29 1z"/>
<path d="M1450 1139 c0 -5 5 -7 10 -4 6 3 10 8 10 11 0 2 -4 4 -10 4 -5 0 -10
-5 -10 -11z"/>
<path d="M475 1130 c3 -5 8 -10 11 -10 2 0 4 5 4 10 0 6 -5 10 -11 10 -5 0 -7
-4 -4 -10z"/>
<path d="M541 1130 c8 -6 7 -9 -2 -13 -8 -3 -5 -5 7 -4 11 1 25 6 31 12 8 9 3
12 -19 12 -16 0 -24 -4 -17 -7z"/>
<path d="M500 1115 c-11 -13 -10 -14 4 -9 9 3 16 10 16 15 0 13 -6 11 -20 -6z"/>
<path d="M106 1089 c-16 -15 -30 -37 -31 -48 -1 -17 4 -21 32 -21 18 0 33 5
33 11 0 6 7 9 15 5 9 -3 15 0 15 9 0 18 16 20 23 3 3 -7 6 1 6 18 1 26 -4 32
-32 41 -28 9 -35 7 -61 -18z"/>
<path d="M1390 1100 c0 -5 5 -10 10 -10 6 0 10 5 10 10 0 6 -4 10 -10 10 -5 0
-10 -4 -10 -10z"/>
<path d="M1783 1098 c-34 -11 -48 -48 -18 -48 8 0 15 -5 15 -10 0 -6 6 -10 13
-9 6 1 20 -1 29 -5 30 -14 63 -3 60 19 -2 11 -10 23 -17 28 -8 4 -21 14 -29
22 -8 8 -16 15 -18 14 -2 -1 -18 -6 -35 -11z"/>
<path d="M532 1082 c6 -7 14 -9 17 -5 4 4 10 11 14 14 5 4 -3 6 -16 5 -20 -1
-23 -4 -15 -14z"/>
<path d="M1357 1089 c7 -7 15 -10 18 -7 3 3 -2 9 -12 12 -14 6 -15 5 -6 -5z"/>
<path d="M435 1031 c-3 -5 -2 -12 3 -15 5 -3 9 1 9 9 0 17 -3 19 -12 6z"/>
<path d="M1384 991 c1 -17 26 -28 26 -11 0 6 -4 9 -9 5 -5 -3 -11 0 -14 7 -2
9 -4 8 -3 -1z"/>
<path d="M1430 970 c-19 -14 -22 -22 -14 -30 9 -9 14 -9 19 1 5 8 4 10 -3 5
-21 -13 -13 5 11 25 29 24 19 24 -13 -1z"/>
<path d="M1383 942 c-8 -5 -8 -12 2 -25 11 -16 13 -16 19 -2 4 11 2 14 -6 9
-8 -5 -9 -2 -5 9 7 19 7 20 -10 9z"/>
<path d="M1434 915 c-4 -8 -11 -12 -17 -8 -6 3 -7 1 -3 -5 9 -15 33 -5 33 13
0 19 -6 19 -13 0z"/>
<path d="M1287 857 c-18 -20 -24 -34 -17 -41 6 -6 5 -15 -5 -26 -10 -11 -11
-20 -4 -30 9 -13 10 -12 6 2 -3 9 1 22 9 29 8 6 12 14 10 16 -3 3 6 16 19 29
14 14 22 31 19 39 -4 8 -7 15 -8 14 0 0 -13 -15 -29 -32z m33 10 c0 -2 -12
-14 -27 -28 l-28 -24 24 28 c23 25 31 32 31 24z"/>
<path d="M1390 886 c0 -2 7 -7 16 -10 8 -3 12 -2 9 4 -6 10 -25 14 -25 6z"/>
<path d="M1240 741 c0 -6 4 -13 10 -16 6 -3 7 1 4 9 -7 18 -14 21 -14 7z"/>
<path d="M1220 701 c-13 -25 -13 -31 1 -31 5 0 7 5 4 10 -3 6 2 10 12 11 11 0
13 3 5 6 -6 2 -10 9 -6 14 3 5 3 9 0 9 -3 0 -10 -9 -16 -19z"/>
<path d="M789 618 c-1 -7 -1 -16 0 -20 2 -13 -17 -9 -22 5 -2 6 -7 10 -10 7
-3 -3 5 -17 18 -32 20 -23 25 -25 36 -12 10 12 9 13 -5 8 -9 -3 -16 -1 -16 5
0 6 6 11 13 11 9 0 8 3 -2 9 -11 7 -11 9 0 13 10 3 10 6 1 12 -7 4 -13 2 -13
-6z"/>
<path d="M1133 573 c0 -16 1 -20 4 -10 3 10 9 14 16 10 7 -4 6 1 -2 10 -17 22
-16 22 -18 -10z"/>
<path d="M740 581 c0 -5 7 -12 16 -15 14 -5 15 -4 4 9 -14 17 -20 19 -20 6z"/>
<path d="M1150 556 c0 -2 8 -10 18 -17 15 -13 16 -12 3 4 -13 16 -21 21 -21
13z"/>
<path d="M756 541 c-3 -5 2 -15 12 -22 16 -13 16 -13 2 5 -14 18 -13 19 3 13
11 -4 16 -3 12 3 -8 12 -22 13 -29 1z"/>
<path d="M812 545 c4 -4 1 -13 -8 -20 -14 -10 -14 -12 3 -25 14 -11 16 -11 6
0 -10 10 -9 16 4 25 13 10 14 13 2 20 -8 5 -11 5 -7 0z"/>
<path d="M929 537 c-25 -19 -29 -43 -8 -43 12 0 15 4 8 12 -11 13 13 38 26 26
5 -4 5 -1 1 6 -9 14 -7 14 -27 -1z"/>
<path d="M1020 517 c-12 -21 -12 -21 6 -7 10 8 20 15 22 16 2 1 -1 4 -5 7 -5
3 -15 -4 -23 -16z"/>
<path d="M1130 536 c0 -2 8 -10 18 -17 15 -13 16 -12 3 4 -13 16 -21 21 -21
13z"/>
<path d="M837 523 c-11 -11 -8 -21 9 -27 13 -5 14 -4 6 7 -7 8 -9 17 -5 20 3
4 4 7 1 7 -2 0 -8 -3 -11 -7z"/>
<path d="M1075 490 c10 -11 20 -20 23 -20 3 0 -3 9 -13 20 -10 11 -20 20 -23
20 -3 0 3 -9 13 -20z"/>
<path d="M964 478 l-19 -23 23 19 c21 18 27 26 19 26 -2 0 -12 -10 -23 -22z"/>
<path d="M1110 479 c0 -5 5 -7 10 -4 6 3 10 8 10 11 0 2 -4 4 -10 4 -5 0 -10
-5 -10 -11z"/>
<path d="M776 462 c-3 -5 1 -9 9 -9 8 0 12 4 9 9 -3 4 -7 8 -9 8 -2 0 -6 -4
-9 -8z"/>
</g>
</svg>
