<?xml version="1.0" standalone="no"?>
<!DOCTYPE svg PUBLIC "-//W3C//DTD SVG 1.1//EN" "http://www.w3.org/Graphics/SVG/1.1/DTD/svg11.dtd" >
<svg xmlns="http://www.w3.org/2000/svg">
<metadata>
Created by FontPrep 20130207 at Sat Dec 19 16:24:13 2015
 By Hendra Susanto
Copyright (c) 2011 by Pablo Impallari. www.impallari.com Igino Marini. www.ikern.com. All rights reserved.
</metadata>
<defs>
<font id="35bc11e034e8b42fbab187c8f762e20e" horiz-adv-x='1024' >
  <font-face 
    font-family="DancingScript-Bold"
    font-weight="700"
    font-stretch="normal"
    units-per-em="2048"
    panose-1="3 8 8 0 4 5 7 0 13 0"
    ascent="1638"
    descent="-410"
    x-height="610"
    cap-height="1473"
    bbox="-403 -573.008 2128 1946"
    underline-thickness="102"
    underline-position="-102"
    unicode-range="U+0020-FB02"
  />
<missing-glyph horiz-adv-x="569" 
 />
    <glyph glyph-name="uniFB01" unicode="fi" horiz-adv-x="1175" 
d="M1088 864q-110 0 -109 84q0 43 53 80t113 37q84 0 84 -78q0 -45 -45.5 -84t-95.5 -39zM737 1294q0 14 -16 15q-72 0 -172.5 -154.5t-204.5 -404.5q170 158 281.5 319.5t111.5 224.5zM23 -354q0 -92 30 -92q57 0 125 202t68 368t-49 238q-174 -487 -174 -716zM-135 -356
q0 131 89 440t217 618.5t292 541t295 231.5q86 0 86 -103q0 -170 -170 -395t-389 -373q-29 -68 -29 -69q29 -14 47 -54q55 -162 183 -162t255 127q49 113 109 186t120 73t60 -60q0 -29 -106.5 -202t-106.5 -293q0 -63 22.5 -87t73.5 -24q158 0 324 319l33 -30
q-70 -182 -184.5 -285.5t-243.5 -103.5q-86 0 -134.5 52t-48.5 131t35 195q-123 -80 -243 -79q-59 0 -134 24q10 -86 11 -106q0 -172 -45 -341t-122 -278.5t-163 -109.5q-49 0 -91 43t-42 174z" />
    <glyph glyph-name="uniFB02" unicode="fl" horiz-adv-x="1173" 
d="M899 487q147 160 285.5 394.5t140.5 400.5q-27 0 -105.5 -117.5t-172 -310.5t-148.5 -367zM737 1294q0 14 -16 15q-72 0 -172.5 -154.5t-204.5 -404.5q170 158 281.5 319.5t111.5 224.5zM23 -358q0 -88 30 -88q59 0 125 206.5t66 365.5t-51 226q-170 -499 -170 -710z
M-135 -356q0 131 89 440t217 618.5t292 541t295 231.5q86 0 86 -103q0 -170 -170 -395t-389 -373q-2 -6 -12.5 -28.5t-16.5 -38.5q41 -25 47 -70q33 -193 189 -193q94 0 206 64q45 211 174 484.5t261.5 463t195.5 189.5q35 0 61.5 -56.5t26.5 -107.5q0 -156 -167 -461
t-386 -479q-25 -123 -24 -205q0 -141 86 -141q76 0 159.5 97t143.5 230l51 -28q-188 -393 -416 -394q-188 0 -188 248q0 31 6 72q-111 -53 -200 -53t-158 30q0 -27 4 -71q0 -172 -45 -341t-122 -278.5t-163 -109.5q-49 0 -91 43t-42 174z" />
    <glyph glyph-name="b_r" unicode="br" horiz-adv-x="1579" 
d="M416 362q0 -127 88 -190q37 84 37 160t-16.5 116.5t-43 40.5t-46 -37t-19.5 -90zM279 674q123 113 229 315.5t106 282.5q-43 -14 -157.5 -207.5t-177.5 -390.5zM1333 428q0 -64 -50 -182.5t-50 -153.5q0 -45 51 -45q90 0 193.5 102.5t152.5 206.5l37 -24
q-72 -156 -189.5 -271.5t-246.5 -115.5q-76 0 -124 41t-48 104t55 195.5t55 171.5t-17 65.5t-33.5 39.5t-51.5 36q-92 -294 -167 -376.5t-142.5 -118t-145.5 -35.5q-16 0 -53 4q-139 -221 -342 -222q-115 0 -176 72t-61 201q0 195 122.5 519.5t281.5 572t249 247.5
q37 0 59.5 -45t22.5 -100q0 -154 -148.5 -412t-326.5 -360q-29 -51 -61 -174t-32 -230q0 -184 111 -184q53 0 112.5 42t98.5 105q-74 41 -114 114t-40 164t53.5 153.5t128.5 62.5q156 0 156 -209q0 -123 -55 -246q8 -2 41 -2t91 28t126 130t115 244l37 102q-18 18 -18 62
t34.5 93.5t62.5 49.5q46 0 46 -64l-23 -77q0 -24 77 -70.5t111.5 -96.5t34.5 -114z" />
    <glyph glyph-name="e_e" unicode="ee" horiz-adv-x="1396" 
d="M1204 575q0 43 -39 43q-84 0 -176 -102t-135 -235q139 49 244.5 123.5t105.5 170.5zM528 610q0 35 -36 35q-86 0 -190.5 -114.5t-149.5 -249.5q139 51 257.5 142t118.5 187zM-35 161q0 114 78 250t205 231t252 95q145 0 145 -135q0 -145 -159.5 -255.5t-356.5 -131.5
q-4 -25 -4 -51q0 -166 160 -166q102 0 206.5 68.5t186.5 179.5q37 172 185.5 318.5t302.5 146.5t155 -138q0 -145 -145.5 -245.5t-344.5 -120.5q-4 -29 -4 -49q0 -170 154 -170q127 0 259 106.5t210 257.5l37 -28q-86 -186 -236.5 -305t-312.5 -119q-119 0 -188.5 64.5
t-81.5 162.5q-188 -217 -428 -217q-129 0 -202 68.5t-73 182.5z" />
    <glyph glyph-name="l_l" unicode="ll" horiz-adv-x="1003" 
d="M1104 1180q0 18 -2 24q-43 0 -168 -228t-205 -484q156 162 265.5 373.5t109.5 314.5zM649 1262q0 20 -4 24q-27 0 -103.5 -117.5t-169 -309t-147.5 -365.5q160 170 292 417.5t132 350.5zM4 166q0 182 130 500.5t288 563.5t233 245q35 0 60.5 -55.5t25.5 -129.5
t-70.5 -243.5t-203.5 -361t-279 -306.5q-23 -127 -22 -205q0 -141 88 -141q66 0 137.5 77.5t130.5 196.5q37 201 154 462t241.5 443.5t190.5 182.5q37 0 62.5 -56.5t25.5 -115.5q0 -145 -143.5 -409.5t-356.5 -434.5q-23 -100 -22 -195q0 -152 84 -151q74 0 155.5 96
t141.5 229l51 -26q-184 -393 -410 -393q-90 0 -137 59t-49 162q-150 -221 -317 -221q-94 0 -141.5 61.5t-47.5 165.5z" />
    <glyph glyph-name="o_r" unicode="or" horiz-adv-x="1527" 
d="M397 446q0 -87 74 -184q98 143 98 283q0 45 -16 69.5t-37 24.5q-43 0 -81 -53t-38 -140zM137 145q0 -109 66 -108q80 0 207 149q-121 98 -125 303q-45 -51 -96.5 -166t-51.5 -178zM1272 422q0 -64 -49 -178.5t-49 -147.5q0 -49 51 -49q88 0 195.5 101.5t150.5 199.5
l41 -29q-70 -150 -189.5 -262t-248.5 -112q-76 0 -124.5 40t-48.5 103t53.5 190.5t53.5 174.5q0 84 -109 141q-23 -63 -32 -90t-34.5 -89.5t-69 -131.5t-113.5 -115.5t-168 -46.5q-53 0 -99 18q-166 -205 -321 -205q-90 0 -137.5 54.5t-47.5 140.5q0 133 78 263t170 130
q18 0 62 -16q12 94 67.5 155.5t145.5 61.5q162 0 162 -163t-127 -349q37 -12 59 -12q151 0 227 135.5t127 300.5q-18 23 -18 67t35.5 90t62.5 46q45 0 45 -64l-22 -74q0 -18 34.5 -42.5t75.5 -49t76 -73.5t35 -113z" />
    <glyph glyph-name="t_h" unicode="th" horiz-adv-x="1619" 
d="M918 745q127 111 220 277t93 246q-41 -12 -143 -169t-170 -354zM145 166q0 -86 24 -122t85 -36q102 0 205.5 89t179.5 245q27 131 63 238q-123 -25 -229 -25t-225 23q-103 -230 -103 -412zM489 1227q23 0 41.5 -16.5t18.5 -44.5t-60.5 -144.5t-131 -238t-74.5 -130.5
q104 -18 199 -18t253 31q115 309 266.5 552.5t243.5 243.5q39 0 62.5 -44t23.5 -101q0 -147 -137 -371.5t-317 -329.5q-37 -88 -66 -236.5t-29 -229.5q182 477 416 477q88 0 134 -58.5t46 -132.5t-43 -187.5t-43 -152.5q0 -66 56 -65q68 0 166 100t155 229l39 -36
q-72 -164 -181.5 -269.5t-230.5 -105.5q-76 0 -118.5 40t-42.5 92t29.5 155.5t29.5 150.5q0 88 -70 88t-130 -87t-96 -190.5t-84 -190.5t-93 -87q-53 0 -78 90t-25 164q-84 -125 -194.5 -196.5t-218.5 -71.5t-163.5 54.5t-55.5 158.5q0 174 120 499q-53 18 -73 27v64
l100 -21q90 227 189.5 383t166.5 156z" />
    <glyph glyph-name="v_r" unicode="vr" horiz-adv-x="1589" 
d="M1339 414q0 -64 -49 -176.5t-49 -145.5q0 -45 51 -45q88 0 191.5 101.5t154.5 203.5l37 -22q-68 -152 -186.5 -268.5t-249.5 -116.5q-76 0 -123 41t-47 103t54.5 191.5t54.5 176.5q0 78 -103 131q-78 -224 -157.5 -317t-190.5 -93q-59 0 -109.5 33t-72.5 86
q-88 -158 -194.5 -267.5t-200.5 -109.5q-134 0 -134 250t8.5 289t25 50t56.5 11t53 -16.5t13 -65.5l-12 -307q0 -104 41 -104q63 0 155.5 132t167.5 292q2 233 103 233q45 0 68.5 -29.5t25.5 -60.5q-57 -140 -57 -238t84 -98q63 0 119.5 67.5t85 135t63.5 174.5
q-43 67 3 135t83 68t37 -39l-21 -97q0 -18 35 -43.5t76 -52t75.5 -77.5t34.5 -115z" />
    <glyph glyph-name="w_r" unicode="wr" horiz-adv-x="2039" 
d="M1786 423q0 -62 -49 -177t-49 -152q0 -47 49 -47q90 0 198.5 102.5t147.5 200.5l45 -28q-63 -147 -188 -262t-254 -115q-76 0 -123 40t-47 102t53 190.5t53 177.5q0 86 -100 133q-105 -282 -190 -337.5t-148 -55.5q-123 0 -178 118q-227 -393 -400 -393q-127 0 -127 230
q0 38 3 67t3 43q-82 -150 -155.5 -235.5t-152.5 -85.5t-128 63.5t-49 167.5t68.5 275t117.5 171q20 0 56.5 -17t36.5 -42q-43 -66 -88.5 -187.5t-45.5 -199.5q0 -123 66 -123q106 0 295 369q25 125 37 151.5t49 26.5q70 0 84 -49q-55 -217 -55 -410q0 -109 36 -108
q53 0 148.5 137t171.5 297q0 193 29.5 208t69.5 15t64.5 -29.5t26.5 -62.5q-18 -25 -37.5 -87.5t-19.5 -115.5q0 -111 88 -110q104 0 165.5 126t98.5 230q-18 27 -18 69t34.5 88t71.5 46t37 -62l-24 -76q0 -27 76.5 -71.5t111.5 -94t35 -111.5z" />
    <glyph glyph-name=".notdef" horiz-adv-x="569" 
 />
    <glyph glyph-name=".null" horiz-adv-x="0" 
 />
    <glyph glyph-name="nonmarkingreturn" horiz-adv-x="679" 
 />
    <glyph glyph-name="space" unicode=" " horiz-adv-x="530" 
 />
    <glyph glyph-name="exclam" unicode="!" horiz-adv-x="604" 
d="M694 1475q26 0 44 -18.5t18 -43.5q0 -82 -242 -554t-364 -646l-25 8q0 100 111 387l157 396q66 164 134.5 283.5t104.5 153.5t62 34zM0 49q0 37 42 66.5t91 29.5q70 0 70 -63q0 -37 -38 -69.5t-83 -32.5q-82 -1 -82 69z" />
    <glyph glyph-name="quotedbl" unicode="&#x22;" horiz-adv-x="552" 
d="M545 1270q0 62 39 135.5t88 73.5q29 0 46 -21.5t17 -58.5q-44 -39 -73 -96l-41 -78q-16 -31 -21 -45q-55 28 -55 90zM309 1272q0 64 41 135.5t88 71.5q27 0 45.5 -21.5t18.5 -58.5q-43 -41 -68.5 -85t-66.5 -134q-58 28 -58 92z" />
    <glyph glyph-name="numbersign" unicode="#" horiz-adv-x="1474" 
d="M618 477q127 0 246 -6l25 115q-172 0 -250 -4zM1111 350q-89 0 -153 -2q-72 -375 -143.5 -527.5t-216.5 -152.5q117 139 238 674h-244q-64 -304 -99.5 -413t-89.5 -185t-170 -76q115 137 238 670q-14 0 -297 -21l-135 -10q8 160 463 170l8 47q6 37 10 51q-33 0 -272 -18
l-135 -10q10 158 440 168q27 129 77 398.5t63.5 306.5t111.5 59q-8 -37 -27 -144l-112 -616q154 -4 249 -8q80 381 106 535q25 153 40.5 182.5t107.5 50.5q-10 -39 -30 -150l-52 -295q-33 -182 -61 -329q47 -2 213.5 -11.5t245.5 -9.5q-51 -43 -102.5 -65.5t-80 -25.5
t-73.5 -3l-223 -2q-2 -14 -12.5 -59.5t-12.5 -65.5q369 -18 426 -19q-51 -43 -101.5 -65.5t-78 -25.5t-116.5 -3z" />
    <glyph glyph-name="dollar" unicode="$" horiz-adv-x="1157" 
d="M862 226q0 90 -44 145t-126 104q-73 -389 -106 -495q129 16 202.5 86t73.5 160zM446 932q0 -125 181 -217q86 446 102 538q-127 -31 -205 -125t-78 -196zM27 197q0 137 97 209.5t218 72.5q-133 -135 -133 -282q0 -92 63.5 -148.5t178.5 -71.5q59 211 135 555
q-228 124 -263.5 203.5t-35.5 147.5q0 168 132 296t326 158q0 47 38 88t98 50q-25 -111 -29 -132q246 -6 246 -223q0 -168 -105 -340q-45 8 -70.5 37t-25.5 63t37 143.5t37 152.5q0 88 -133 90l-111 -604q136 -70 198 -123.5t86.5 -110.5t24.5 -129q0 -178 -138 -287.5
t-343 -128.5q-82 -215 -248 -215q63 82 111 215q-168 14 -279.5 95.5t-111.5 218.5z" />
    <glyph glyph-name="percent" unicode="%" horiz-adv-x="1515" 
d="M1073 219q0 -115 60 -115q68 0 120 119t52 235t-60 115q-78 0 -125 -119.5t-47 -234.5zM930 229q0 156 88 300.5t225 144.5q88 0 142.5 -61.5t54.5 -157.5t-37 -198.5t-113 -180.5t-169 -78t-142 66.5t-49 164.5zM369 918q0 -117 59 -117q68 0 119 119.5t51 234.5
t-57 115q-76 0 -124 -117.5t-48 -234.5zM223 928q0 154 89 299t225 145q88 0 143 -61.5t55 -161.5q0 -150 -92 -302.5t-227 -152.5q-92 0 -142.5 68t-50.5 166zM180 -178q150 145 476.5 704t437.5 848q12 33 73.5 67t114.5 34q-25 -100 -277.5 -581.5t-382.5 -681.5
t-230.5 -295t-211.5 -95z" />
    <glyph glyph-name="ampersand" unicode="&#x26;" horiz-adv-x="1382" 
d="M473 -178q-195 0 -316.5 110.5t-121.5 284.5t149.5 331t372.5 187q-147 131 -147 305t126 303.5t320 129.5q123 0 187.5 -58.5t64.5 -172.5t-55.5 -217t-110.5 -103t-102 84q176 143 176 268q0 59 -35 94t-102 35q-133 0 -209 -109.5t-76 -267.5q0 -215 149 -332
q-213 -33 -348 -181t-135 -310q0 -111 66.5 -197t199.5 -86q215 0 391.5 186.5t206.5 421.5q-68 -4 -278 -41q2 174 231 175q66 0 174.5 -17.5t175.5 -17.5q-29 -61 -53 -78t-55 -17l-115 -2q-29 -283 -245 -495.5t-486 -212.5z" />
    <glyph glyph-name="quotesingle" unicode="'" horiz-adv-x="319" 
d="M309 1272q0 64 41 135.5t88 71.5q25 0 45.5 -20.5t20.5 -47.5l-2 -12q-61 -59 -115 -174l-20 -45q-58 28 -58 92z" />
    <glyph glyph-name="parenleft" unicode="(" horiz-adv-x="604" 
d="M158 408q0 214 71.5 425t175 346.5t212 215.5t188.5 80q-248 -193 -372 -491t-124 -616t113 -487q-20 -41 -57 -59q-86 47 -146.5 209.5t-60.5 376.5z" />
    <glyph glyph-name="parenright" unicode=")" horiz-adv-x="645" 
d="M467 930q0 154 -38 286t-144 269q117 -31 218 -195t101 -403q0 -174 -47 -345t-118.5 -297t-154.5 -224.5t-158 -148.5t-126 -50q-29 -1 -70 69q238 158 387.5 426.5t149.5 612.5z" />
    <glyph glyph-name="asterisk" unicode="*" horiz-adv-x="851" 
d="M260 1206q182 6 236 11q-92 137 -93 208q0 27 21.5 49.5t21.5 26.5q23 -39 66 -120.5t78 -129.5q70 213 217 246q-20 -59 -71.5 -159.5t-59.5 -118.5q195 0 297 -82l-277 -23q35 -47 67 -100t36 -187q-80 86 -203 260q-63 -115 -117.5 -174t-128.5 -63q52 74 94.5 158
t53.5 104q-100 0 -161 18.5t-77 75.5z" />
    <glyph glyph-name="plus" unicode="+" horiz-adv-x="903" 
d="M362 492q0 117 80 237q25 -197 29 -321q143 -2 365 -21q-119 -84 -258 -84h-105q-2 -145 -27.5 -227t-95.5 -90q16 133 17 317q-170 1 -340 -24q41 123 335 129v84z" />
    <glyph glyph-name="comma" unicode="," horiz-adv-x="442" 
d="M10 -86q0 62 41 134.5t88 72.5q27 0 46.5 -20.5t19.5 -47.5q-63 -71 -99 -149t-40 -84q-56 32 -56 94z" />
    <glyph glyph-name="hyphen" unicode="-" horiz-adv-x="1038" 
d="M494 420q128 0 387 -14q-20 -47 -93 -79t-157 -32l-256 12q-139 0 -262 -16q23 83 138 106t243 23z" />
    <glyph glyph-name="period" unicode="." horiz-adv-x="495" 
d="M57 59q0 33 44 70t85 37q68 0 68 -64q0 -33 -30 -77.5t-76 -44.5t-68.5 23t-22.5 56z" />
    <glyph glyph-name="slash" unicode="/" horiz-adv-x="727" 
d="M-129 -332q223 215 803 1706q12 35 77.5 67t139.5 32q-51 -135 -604 -1424q-76 -178 -190.5 -279.5t-225.5 -101.5z" />
    <glyph glyph-name="zero" unicode="0" horiz-adv-x="1351" 
d="M334 319q0 -170 67.5 -284.5t186.5 -114.5q147 0 280 177t208 422t75 449q0 424 -258 423q-129 0 -240.5 -111t-178 -276.5t-103.5 -340t-37 -344.5zM129 379q0 170 54.5 359.5t148.5 354t242.5 273.5t318.5 109q203 0 323.5 -149.5t120.5 -420.5q0 -186 -59 -378.5
t-160.5 -349.5t-249 -256t-309.5 -99q-209 0 -319.5 156.5t-110.5 400.5z" />
    <glyph glyph-name="one" unicode="1" horiz-adv-x="802" 
d="M291 1038q-59 0 -60 84q68 33 207.5 136.5t255.5 214.5q27 -25 27 -70t-19.5 -118t-41.5 -219t-49 -295.5t-89.5 -387.5t-138.5 -414q49 4 72 4q186 0 219 -145q-100 12 -178 12t-200 -9t-149 -9q-127 0 -217 115l107 -7q70 0 213 21q90 205 171 663.5t99 540.5
q-176 -117 -229 -117z" />
    <glyph glyph-name="two" unicode="2" horiz-adv-x="1226" 
d="M139 -27q55 0 131 43q-78 25 -134 25t-56 -33q4 -35 59 -35zM-12 14q0 109 172 109q84 0 223 -27q203 176 373 474t170 538q0 139 -60.5 211t-160.5 72q-131 0 -203 -111t-72 -254q0 -88 39 -178l-39 4q-158 16 -158 192t130 303.5t316 127.5t284 -113t98 -291
q0 -242 -172 -527.5t-408 -475.5q305 -68 422 -68q49 0 85 13.5t106 49.5q-33 -127 -89.5 -184t-144.5 -57t-185.5 33.5t-195.5 70.5l-125 47q-141 -84 -228 -84t-132 35t-45 90z" />
    <glyph glyph-name="three" unicode="3" horiz-adv-x="1110" 
d="M293 346q-86 -72 -86 -216q0 -73 63.5 -143.5t157.5 -70.5q125 0 224.5 121t99.5 299q0 131 -64.5 235.5t-212.5 143.5q164 70 266.5 216t102.5 279q0 92 -53.5 136.5t-137.5 44.5t-152.5 -53.5t-68.5 -130.5t41 -152q-12 -27 -41.5 -49.5t-65.5 -22.5t-63 56.5
t-27 123.5q0 139 123 225.5t275 86.5t255 -78t103 -209t-93 -263t-234 -186q150 -51 220 -161.5t70 -231.5q0 -201 -168 -362.5t-415 -161.5q-186 0 -279.5 93t-93.5 197t48 173t134 69q29 0 72 -8z" />
    <glyph glyph-name="four" unicode="4" horiz-adv-x="1040" 
d="M414 616q90 0 213 -4q63 301 108 451l-233 -211q-182 -166 -258 -242q80 6 170 6zM979 1402q0 -48 -41 -112q-47 -193 -135 -684q156 0 237 23q-119 -160 -262 -160q-80 -453 -80 -647q-92 6 -142 35.5t-50 68.5t90 545q-74 8 -146 8t-245.5 -11.5t-198.5 -25.5
q0 61 33 97t70 69q596 555 819 867q51 -25 51 -73z" />
    <glyph glyph-name="five" unicode="5" horiz-adv-x="1050" 
d="M18 110q0 106 47.5 175t133.5 69q31 0 73 -8q-86 -70 -86 -205q0 -92 53.5 -158.5t157.5 -66.5q152 0 245 134t93 284t-69.5 239t-208.5 89q-76 0 -215 -27q23 165 153 616l62 213q117 -28 239 -28t336 41q14 -57 15 -78q0 -82 -82 -120t-166 -38t-161 12.5t-99 12.5
q-55 0 -114.5 -256t-68.5 -279q88 16 168 17q215 0 329 -110t114 -292q0 -221 -159 -372.5t-409 -151.5q-197 0 -289 91t-92 197z" />
    <glyph glyph-name="six" unicode="6" horiz-adv-x="1212" 
d="M588 -84q147 0 240.5 141.5t93.5 307.5t-75 241.5t-200 75.5q-160 0 -235.5 -109.5t-75.5 -257.5t37 -235.5t90 -125.5t125 -38zM119 344q0 172 57 365.5t156.5 366.5t258.5 286t339 113q98 0 158.5 -33t60.5 -99q0 -82 -123 -114q4 41 4 79t-22.5 64.5t-83.5 26.5
q-121 0 -281 -161.5t-258 -567.5q145 110 331 110t302.5 -103.5t116.5 -322.5t-155 -375.5t-395 -156.5t-353 142t-113 380z" />
    <glyph glyph-name="seven" unicode="7" horiz-adv-x="899" 
d="M276 1372q0 43 35 101q231 -41 430 -41t365 53q-270 -348 -461 -754q72 -8 156 -8t137 14q-104 -139 -201 -139h-153q-176 -401 -176 -549q0 -63 32 -86q-35 -72 -89 -106.5t-92 -34.5t-64.5 27.5t-26.5 78.5q0 145 262 670q-148 -4 -291 -20q0 98 105 129.5t262 31.5
q35 53 141 234l182 301l-309 -12q-244 0 -244 110z" />
    <glyph glyph-name="eight" unicode="8" horiz-adv-x="1148" 
d="M483 1155q0 -166 187 -362q215 180 215 370q0 106 -53.5 166t-134.5 60t-147.5 -58.5t-66.5 -175.5zM246 174q0 -111 76.5 -177.5t187.5 -66.5t208 90.5t97 225.5q0 98 -52 180t-155 186q-155 -108 -231 -180t-103.5 -132t-27.5 -126zM291 1130q0 170 118.5 256.5
t277.5 86.5t253 -79.5t94 -221.5t-74.5 -248.5t-214.5 -210.5q92 -92 139.5 -144.5t90.5 -138.5t43 -174q0 -190 -160 -312t-369 -122t-305 107.5t-96 254.5t114.5 250.5t206 167.5t121.5 88q-76 76 -118.5 129t-81.5 138t-39 173z" />
    <glyph glyph-name="nine" unicode="9" horiz-adv-x="1224" 
d="M408 945q0 -167 77.5 -248t217.5 -81t213 92.5t73 245.5t-41 248.5t-96 136.5t-129 41q-141 0 -228 -134t-87 -301zM197 958q0 220 146 368.5t390 148.5t359.5 -160t115.5 -436t-138 -569.5t-314 -390.5t-296 -97q-245 0 -245 135q0 82 119 117q0 -176 110 -176
q121 0 271.5 157.5t236.5 571.5q-142 -109 -330 -109t-306.5 110t-118.5 330z" />
    <glyph glyph-name="colon" unicode=":" horiz-adv-x="514" 
d="M268 467q-88 0 -88 70q0 35 43 64.5t90 29.5q68 0 68 -64q0 -35 -37 -67.5t-76 -32.5zM154 -20q-88 0 -88 69q0 35 42 64.5t91 29.5q68 0 67 -63q0 -35 -36 -67.5t-76 -32.5z" />
    <glyph glyph-name="semicolon" unicode=";" horiz-adv-x="512" 
d="M180 539q0 37 41 66.5t90 29.5q72 0 72 -64q0 -35 -38 -68.5t-83 -33.5q-82 0 -82 70zM47 -84q0 66 43 143.5t94 77.5q27 0 48.5 -21.5t23.5 -47.5q-80 -90 -152 -248q-57 30 -57 96z" />
    <glyph glyph-name="less" unicode="&#x3c;" horiz-adv-x="671" 
d="M489 588q0 -121 -325 -287q119 -80 336 -158q-49 -53 -86 -53q-76 0 -204.5 91t-148.5 157q109 39 217.5 129t182.5 195q10 -8 19 -33t9 -41z" />
    <glyph glyph-name="equal" unicode="=" horiz-adv-x="1058" 
d="M514 342q176 0 379 -23q-119 -82 -250 -81h-197q-166 0 -296 -21l-19 25q41 100 383 100zM510 522q176 0 379 -22q-121 -82 -250 -82h-199q-166 0 -297 -21l-16 25q37 100 383 100z" />
    <glyph glyph-name="greater" unicode="&#x3e;" horiz-adv-x="690" 
d="M238 90q-41 0 -91 53q207 74 328 158q-336 166 -340 287q0 33 23 67q70 -88 190.5 -181t229.5 -134q-16 -66 -140.5 -158t-199.5 -92z" />
    <glyph glyph-name="question" unicode="?" horiz-adv-x="946" 
d="M455 -20q-82 0 -82 70q0 36 43 65.5t90 29.5q72 0 72 -59q0 -41 -38 -73.5t-85 -32.5zM242 1018q0 182 126 319.5t326 137.5q141 0 224 -74t83 -221t-116 -281l-105 -117q-140 -156 -182 -297q-12 -43 -24.5 -118.5t-30.5 -122.5q-53 27 -69.5 48.5t-16.5 87.5t40 150
t97 154l115 141q137 168 137 340q0 109 -44 168.5t-114 59.5q-111 0 -206 -123t-95 -285q0 -66 23 -139q-94 14 -131 57t-37 115z" />
    <glyph glyph-name="at" unicode="@" horiz-adv-x="1255" 
d="M383 125q0 -53 31 -53q61 0 215.5 161.5t154.5 243.5q0 29 -2 46.5t-17 32.5t-44 15q-111 0 -224.5 -164.5t-113.5 -281.5zM27 188q0 242 189.5 431.5t485.5 189.5q225 0 347 -111.5t122 -267.5t-110.5 -288t-262.5 -132t-151 152q-152 -178 -262 -178q-57 0 -97 38.5
t-40 121.5t68.5 201t181 204t221.5 86q74 0 121 -38t47 -99q0 -70 -82 -80q51 -18 51 -49q0 -20 -47 -102.5t-47 -121.5q0 -51 61 -51q94 0 174 101.5t80 222.5t-94 213t-278 92q-250 0 -413 -167t-163 -374q0 -147 94 -251.5t293 -104.5q248 0 447 180l28 -37
q-199 -217 -495 -217q-229 0 -349 126t-120 310z" />
    <glyph glyph-name="A" unicode="A" 
d="M520 668l248 -56q74 352 217 686q-182 -143 -465 -630zM0 -51q0 152 301 614q-123 8 -301 8q49 133 238 134q41 0 151 -13q229 332 428 559.5t258 227.5t146 -80q-68 -51 -194 -490.5t-126 -687.5q0 -162 72 -162q111 0 272 306l37 -39q-66 -174 -168 -279.5t-213 -105.5
q-180 0 -180 317q0 100 27 254q-104 16 -293 39q-190 -338 -361 -729q-94 49 -94 127z" />
    <glyph glyph-name="B" unicode="B" horiz-adv-x="1331" 
d="M1096 1157q0 246 -385 246q-115 -221 -236 -629q244 8 380 71.5t188.5 137.5t52.5 174zM125 157q0 42 20 99l9 25q4 10 41 125l73 221l88 250q116 320 213 507q-108 -24 -181 -64t-89 -40t-47 29.5t-31 50.5q94 39 208 77t308 38q372 0 443 -125t71 -209
q0 -285 -428 -387q231 -31 336 -125t105 -205q0 -141 -97.5 -261t-322.5 -230.5t-506 -110.5q-252 0 -254 176q0 20 22 20q6 0 45.5 -9t155.5 -9q352 0 591 137t239 318q0 244 -527 243h-4l-151 -2q-33 -111 -91.5 -331t-87.5 -316q-61 0 -106 33t-45 75z" />
    <glyph glyph-name="C" unicode="C" horiz-adv-x="1167" 
d="M66 328q0 264 129 532t332.5 440.5t412.5 172.5t209 -187q0 -133 -82 -288.5t-170 -155.5q-51 0 -84 63q78 86 150.5 205t72.5 193q0 80 -92 79q-143 0 -305 -174t-268.5 -428t-106.5 -444t74 -303t228 -113t315 129t247 309l54 -34q-117 -221 -290 -361.5t-386 -140.5
t-326.5 148.5t-113.5 357.5z" />
    <glyph glyph-name="D" unicode="D" horiz-adv-x="1406" 
d="M664 1298q39 0 81 -28q-123 -281 -246.5 -670t-189.5 -690q35 -12 103 -12q160 0 312.5 100t260 251.5t173 332t65.5 340.5q0 238 -119 353.5t-319 115.5t-333 -105.5t-133 -263.5q0 -55 19 -98q-164 0 -164 131q0 152 203 286t481 134t412.5 -158t134.5 -416
q0 -213 -88 -414.5t-230.5 -346t-327 -231.5t-361.5 -87t-255 102q16 131 153.5 576.5t174.5 541.5t54.5 132t58.5 80t80 44z" />
    <glyph glyph-name="E" unicode="E" horiz-adv-x="1091" 
d="M-8 217q0 174 150.5 331t371.5 187q-147 129 -147 304t125.5 304.5t318.5 129.5q125 0 192.5 -60.5t67.5 -176.5t-58.5 -215t-113.5 -99t-102 84q180 147 180 274q0 59 -40 92t-108 33q-131 0 -205.5 -113.5t-74.5 -265.5q0 -215 151 -332q-213 -33 -348 -181t-135 -310
q0 -111 65.5 -200t213.5 -89t307.5 131t247.5 313l55 -34q-121 -227 -295 -364.5t-375 -137.5t-322.5 110.5t-121.5 284.5z" />
    <glyph glyph-name="F" unicode="F" horiz-adv-x="1069" 
d="M209 -12q0 203 190 649q-198 -19 -249 -27q14 162 301 170q125 344 223 545q-33 4 -74 4q-178 0 -245.5 -53.5t-67.5 -153.5t41 -200q-178 28 -178 182t169.5 257t423.5 103q76 0 218.5 -14t218.5 -14t190 30q-94 -104 -156.5 -143t-126.5 -39l-294 33
q-55 -131 -185 -539q49 -4 176 -17t207 -16q-47 -63 -113.5 -78.5t-308.5 -19.5l-84 -289q-100 -348 -100 -536q-102 6 -139 48t-37 118z" />
    <glyph glyph-name="G" unicode="G" horiz-adv-x="1198" 
d="M66 314q0 216 77.5 421t198.5 367t278.5 266.5t295.5 104.5t198 -69.5t60 -177.5t-57.5 -206t-135.5 -98q-51 0 -86 67q49 35 106.5 131.5t57.5 165.5q0 96 -111 96q-150 0 -312.5 -176t-268 -428t-105.5 -448t79 -303t196 -107q158 0 273.5 184.5t133.5 399.5
q-100 20 -178 20t-176 -4q35 139 164 139q70 0 205 -45t171 -53q-90 -279 -113.5 -372t-23.5 -155t3 -126t3 -98q-139 16 -139 172q0 27 2 41q-166 -201 -375 -201q-180 0 -300.5 138t-120.5 354z" />
    <glyph glyph-name="H" unicode="H" horiz-adv-x="1357" 
d="M600 1362q0 26 -27 27q-78 0 -156.5 -127t-78.5 -228q0 -33 20 -92q-162 0 -161 133q0 135 148.5 267.5t281.5 132.5q115 0 114 -111q0 -37 -16 -90l-150 -492q33 2 160 2t301 -16q123 414 201 594q49 115 147 115q-109 -297 -215 -719q16 0 81 -3t98 -3
q-94 -94 -203 -95q-119 -498 -119 -727q0 -53 10 -108q-104 10 -142 50t-38 140q0 176 148 643q-334 -2 -474 -14q-2 -6 -14 -48t-65 -208l-132 -424q-20 -68 -72.5 -103.5t-99.5 -35.5q45 291 213 805q-113 -12 -133 -13q0 115 179 152l169 496q25 74 25 100z" />
    <glyph glyph-name="I" unicode="I" horiz-adv-x="1030" 
d="M650 1473q232 0 581 -46q-100 -96 -247 -96t-212 -2l-12 -61q-4 -25 -75 -413t-103 -519q-61 -246 -148 -328q27 -2 193 -18.5t270 -18.5q-121 -115 -272 -114h-145q-294 0 -517 -37q12 126 107 159t245 33q84 180 205 709.5t148 607.5q-254 -4 -486 -49
q20 102 128 147.5t340 45.5z" />
    <glyph glyph-name="J" unicode="J" horiz-adv-x="901" 
d="M-37 100q0 135 45 244t123 109q29 0 80 -23q-78 -188 -78 -330q0 -82 34 -129t89 -47t96 45t82 156q70 199 160 579.5t135 634.5q-250 -6 -438 -47q14 96 101.5 137t277.5 41t460 -45q-51 -84 -186 -84q-25 0 -67.5 -1t-51.5 -1q27 -35 27 -79q-2 -109 -89 -503.5
t-194 -627.5q-137 -305 -356 -305q-250 0 -250 276z" />
    <glyph glyph-name="K" unicode="K" horiz-adv-x="1304" 
d="M573 1389q-90 0 -166.5 -126t-76.5 -227q0 -47 20 -94q-164 0 -164 133t149.5 266.5t282.5 133.5q113 0 113 -119q0 -39 -14 -82l-152 -492q25 14 142 105q371 287 573 594q41 -39 41 -111q0 -231 -756 -715q109 -168 172.5 -257t193.5 -222t306 -268q-18 -35 -55 -60.5
t-72 -25.5q-109 0 -294 242.5t-320 498.5l-187 -602q-26 -90 -104 -96t-117 -6q43 92 88 223l414 1180q25 74 24 88q0 39 -41 39z" />
    <glyph glyph-name="L" unicode="L" horiz-adv-x="1249" 
d="M1100 1309q0 86 -68 86q-85 0 -158 -151t-153 -398q111 8 202 93t134 184.5t43 185.5zM76 -33q51 0 82.5 19.5t72.5 62.5q-145 53 -217 53t-71 -47q0 -37 41 -62.5t92 -25.5zM-131 82q0 102 168 102q100 0 258 -41q53 92 125 301l61 191q41 125 58 172q-100 33 -156.5 95
t-56.5 128t48 121t124 55q-41 -53 -41 -139q0 -127 106 -188q143 437 258 516.5t198 79.5t153.5 -52.5t70.5 -169.5q0 -157 -93 -269t-202.5 -159t-249.5 -47q-158 -479 -280 -667q397 -119 543 -119q88 0 180 45q-78 -215 -246 -215q-89 0 -183 33.5t-138 51t-124.5 53.5
t-111.5 48q-110 -117 -224 -117t-179.5 62.5t-65.5 128.5z" />
    <glyph glyph-name="M" unicode="M" horiz-adv-x="1650" 
d="M606 1370q-117 0 -181.5 -102.5t-64.5 -227.5q0 -43 9 -98q-68 0 -107 58.5t-39 127.5q0 129 136.5 238t285.5 109q121 0 180.5 -110t59.5 -398q0 -147 -19.5 -401.5t-19.5 -325.5q88 264 321 695t281.5 473t80.5 42t93 -23q-68 -145 -168 -639.5t-100 -767.5
q0 -78 12 -114l6 -25q2 -6 10 -28l13 -31q-129 0 -170 57.5t-41 235.5t44 407.5t130 560.5q-129 -184 -282.5 -522t-227.5 -555q-35 -10 -43 -10q-68 0 -89.5 78t-21.5 248l17 727q0 20 -1 61t-1 59l-330 -778q-49 -115 -80 -184l-70 -141q-100 -195 -154 -219.5t-85 -24.5
q12 37 88 198l569 1237q18 41 19 68q0 45 -60 45z" />
    <glyph glyph-name="N" unicode="N" horiz-adv-x="1380" 
d="M563 1341q0 29 -26 29q-82 0 -152 -116.5t-70 -215.5q0 -49 21 -96q-164 0 -164 133t149.5 266.5t274.5 133.5q74 0 123 -61.5t68.5 -125t37 -131t61.5 -384.5t87 -540q25 100 74 312l81 348q92 370 153 477q62 107 167 107q-119 -309 -260 -869.5t-141 -785.5
q-80 0 -127.5 38t-69.5 138q-8 33 -211 1139q-240 -870 -325.5 -1092.5t-198.5 -222.5l434 1440q14 57 14 79z" />
    <glyph glyph-name="O" unicode="O" horiz-adv-x="1341" 
d="M66 348q0 246 128 511t338.5 439.5t430.5 174.5q84 0 139 -58q-33 4 -60 4q-172 0 -352 -172t-295.5 -430t-115.5 -493q0 -176 70.5 -290t211.5 -114t265 104.5t206 265.5t131 347.5t49 328.5q0 324 -92 324q-66 0 -152.5 -150.5t-113.5 -281.5q-129 27 -129 119
q0 111 141.5 254t257.5 143q57 0 98.5 -43t69 -145t27.5 -264q0 -250 -80 -464t-203 -349.5t-265 -211t-275 -75.5q-184 0 -307 140t-123 386z" />
    <glyph glyph-name="P" unicode="P" horiz-adv-x="1144" 
d="M1116 1108q0 139 -108.5 215t-264.5 80q-123 -238 -270 -748q361 22 502 168t141 285zM70 -68q0 42 26 121l160 490q138 422 330 843q-100 -21 -182 -63.5t-96 -42.5t-44.5 29.5t-30.5 50.5q274 115 482 115q135 0 262 -43t218 -138.5t91 -219.5t-72.5 -217t-172 -141
t-252.5 -86t-322 -38h-12l-215 -770q-63 0 -116.5 34t-53.5 76z" />
    <glyph glyph-name="Q" unicode="Q" horiz-adv-x="1490" 
d="M397 39q0 -41 36 -75t113 -34t179 50q-150 123 -242 122h-2q-84 0 -84 -63zM90 412q0 256 107.5 498.5t304 403.5t418.5 161t344 -135.5t122 -379.5t-130 -520t-324 -436q160 -80 293 -80q53 0 90 13.5t55 17.5q-59 -199 -225 -199q-88 0 -168 43t-178 121
q-105 -51 -199 -51q-166 0 -215 65t-49 117q0 51 41 90t111 39t144.5 -24.5t209.5 -102.5q166 150 267 439.5t101 493.5t-68.5 304.5t-211.5 100.5q-186 0 -344 -174.5t-239 -417t-81 -477.5q0 -111 25 -205q-201 0 -201 295z" />
    <glyph glyph-name="R" unicode="R" horiz-adv-x="1261" 
d="M1104 1127q0 138 -104.5 205t-262.5 71q-115 -230 -262 -709q359 26 494 160.5t135 272.5zM63 -61q-1 23 93 307t183 525t255 620q-120 -24 -200.5 -67.5t-94.5 -43.5t-46 28.5t-32 51.5q287 115 491 115t331.5 -68t179 -146.5t51.5 -185.5t-63.5 -190.5t-219 -163
t-493.5 -88.5l71 -113q63 -100 78 -121l72 -104q57 -84 92 -121l92 -104q95 -106 256 -228q-8 -39 -48 -64.5t-77 -25.5q-76 0 -242.5 191t-363.5 587l-201 -710q-63 0 -113.5 34t-50.5 85z" />
    <glyph glyph-name="S" unicode="S" horiz-adv-x="1161" 
d="M8 184q0 165 94.5 231t221.5 66q-133 -139 -134 -284q0 -111 85 -189t236 -78t265.5 74t114.5 203q0 92 -68.5 165.5t-165.5 125.5l-194 106q-96 53 -166 136t-70 194t71 234.5t213 215t312 91.5q256 0 256 -215q0 -104 -50 -232.5t-114 -226.5q-90 18 -90 104
q0 57 58.5 208t58.5 198t-23.5 66.5t-84.5 19.5q-180 0 -314.5 -143.5t-134.5 -278.5q0 -80 67.5 -144.5t164 -112.5t191.5 -103.5t162.5 -144.5t67.5 -206q0 -201 -171 -321.5t-378 -120.5t-344 98.5t-137 263.5z" />
    <glyph glyph-name="T" unicode="T" horiz-adv-x="1105" 
d="M700 1475q164 -1 394 -23t331 -22q-57 -53 -160.5 -82t-183.5 -34t-200 -5q-168 -414 -332 -1016q-78 -295 -78 -397q0 -44 6 -74q-197 0 -201 158q0 129 119 441t160 410l201 478q-340 -4 -600 -49q8 82 82.5 131t186 66.5t275.5 17.5z" />
    <glyph glyph-name="U" unicode="U" horiz-adv-x="1536" 
d="M68 1098q0 133 122.5 254t290.5 121q238 0 238 -265q0 -154 -120 -537t-120 -517q0 -223 170 -224q104 0 228 125t192 410l111 436q39 145 65 225l62 170q67 177 127 177q45 0 131 -80q-39 -29 -129 -262.5t-170 -542.5t-80 -466t42 -199t150 -42q-23 -37 -75 -60.5
t-99 -23.5q-76 0 -130 66.5t-54 163.5q0 16 4 106q-170 -313 -436 -313q-137 0 -214 82t-77 229.5t123 526t123 554.5t-111 177q-96 0 -152.5 -110.5t-56.5 -190.5t27 -148q-182 0 -182 158z" />
    <glyph glyph-name="V" unicode="V" horiz-adv-x="1370" 
d="M70 1106q0 131 119 250t267 119t221 -100.5t73 -269.5t-63.5 -395.5t-126 -427t-62.5 -298.5q0 -37 10 -53.5t39 -16.5q84 0 209 123t236.5 298t190.5 384t79 366q0 199 -138 244q27 57 68 87t78 30q59 0 106 -74t47 -192q0 -217 -152.5 -541t-374.5 -570.5t-394 -246.5
q-72 0 -134.5 41t-62.5 131t61.5 277.5t123 427t61.5 402.5t-26.5 225.5t-98.5 62.5q-96 0 -146.5 -100.5t-50.5 -194.5t31 -152q-96 0 -143 45t-47 119z" />
    <glyph glyph-name="W" unicode="W" horiz-adv-x="1951" 
d="M454 1475q296 0 296 -402q0 -197 -134 -618q-8 -29 -34.5 -104t-55 -169.5t-28.5 -165.5t9 -86.5t36 -15.5q102 0 239.5 172t237.5 386t121 355q72 0 118 -41t46 -82t-76 -217q-150 -348 -150 -495q0 -43 11.5 -60.5t42.5 -17.5q84 0 207.5 125t234.5 302t190.5 385
t79.5 359q0 180 -139 228q70 115 152 114h2q55 0 101 -65.5t46 -204.5t-93 -374.5t-228.5 -446.5t-306.5 -362.5t-308 -151.5q-80 0 -132 48t-52 128q0 43 20 104q-223 -281 -401 -280h-2q-56 0 -127.5 33t-71.5 143t73 333.5t83 256.5l26 98q18 66 27 109l18 102
q19 112 19 241q0 128 -27.5 191.5t-108.5 63.5t-133.5 -92.5t-52.5 -196.5t31 -162q-96 0 -143 45t-47 119q0 131 118 250t266 119z" />
    <glyph glyph-name="X" unicode="X" horiz-adv-x="1445" 
d="M514 1401q-92 0 -145.5 -99.5t-53.5 -191.5t27 -152q-182 0 -182 156q0 133 123 250t269 117t206.5 -103t72 -208t13.5 -162.5t3 -135t3 -114.5q276 373 455 733q18 -12 37.5 -46t19.5 -63q0 -80 -142.5 -294t-365.5 -486q35 -662 197 -661q61 0 145 105.5t215 326.5
l45 -37q-137 -270 -235.5 -385t-221.5 -115q-167 0 -232.5 174.5t-84.5 380.5q-174 -205 -342 -381t-248 -239q8 86 29.5 127t77.5 96q236 246 471 532q-29 257 -36 461.5t-16.5 280t-33 104.5t-70.5 29z" />
    <glyph glyph-name="Y" unicode="Y" horiz-adv-x="1445" 
d="M66 1098q0 133 121.5 255t291.5 122q117 0 178.5 -63.5t61.5 -149.5q1 -86 -65 -319q-66 -234 -66 -343q0 -193 143 -192h2q131 0 244 140t184 351l90 293q55 181 96.5 232t71.5 51q61 0 140 -78q-106 -164 -159.5 -324.5t-131.5 -482.5t-106.5 -414t-82 -204.5
t-116 -184.5t-160.5 -121t-223 -49t-207 53.5t-82 149.5q0 66 41 116t114 66q-23 -100 -22 -139q0 -174 186 -174q115 0 198 67.5t128 183t71.5 224t48 241t38.5 183.5q-180 -291 -428 -291q-129 0 -190.5 71.5t-61.5 181.5t65.5 356.5t65.5 334.5q0 147 -111 148
q-100 0 -155.5 -105.5t-55.5 -228.5q0 -49 25 -115q-182 0 -182 158z" />
    <glyph glyph-name="Z" unicode="Z" horiz-adv-x="1392" 
d="M51 55q0 -35 38 -66.5t90 -31.5t171 90q-158 61 -228 61t-71 -53zM1004 -178q-179 0 -535 178q-154 -111 -260 -111t-165.5 56.5t-59.5 114.5q0 124 174 124q98 0 288 -51q174 174 385 510q-129 -6 -337 -35q8 174 323 174q33 0 94 -4q158 268 230 451q-70 20 -164 55
q-287 104 -414 105q-225 0 -225 -275q8 -70 18 -88q-152 27 -152 164t108 211t290 74t422 -64.5t325 -64.5t119 8q-72 -72 -129 -101q-98 -229 -254 -489q205 -16 234 -16q-49 -66 -100.5 -81.5t-202.5 -19.5q-221 -348 -432 -551q346 -104 464 -104t209 45
q-45 -119 -103 -167t-150 -48z" />
    <glyph glyph-name="bracketleft" unicode="[" horiz-adv-x="897" 
d="M780 1284q-82 0 -250 33q-66 -193 -160 -737.5t-114 -616.5q227 2 316.5 9.5t185.5 33.5q0 -96 -66.5 -140t-223.5 -44t-370 45q14 25 27.5 80t58.5 297l140 772q41 238 117.5 332t162.5 94l156 -6q139 0 227 49q-4 -125 -64.5 -163t-142.5 -38z" />
    <glyph glyph-name="backslash" unicode="\" horiz-adv-x="1236" 
d="M354 1483q53 0 102.5 -34t65.5 -75q59 -154 160 -565l188 -756q86 -344 129 -395q-61 10 -126 61t-128 226.5t-170 623.5l-98 418z" />
    <glyph glyph-name="bracketright" unicode="]" horiz-adv-x="935" 
d="M270 -4q28 0 252 -16q68 193 175.5 772t113.5 606q-379 0 -555 -47q0 98 65 133t221 35t365 -43q-10 -119 -69.5 -517.5t-106.5 -639.5l-18 -95q-6 -37 -31 -106.5t-51.5 -110.5t-73.5 -74.5t-104 -33.5q-299 0 -424 -39q12 176 241 176z" />
    <glyph glyph-name="asciicircum" unicode="^" horiz-adv-x="430" 
d="M2 950q0 55 91 115.5t142.5 60.5t123 -77t71.5 -135t-51 -83q-47 80 -146 168q-113 -37 -204 -98q-27 16 -27 49z" />
    <glyph glyph-name="underscore" unicode="_" horiz-adv-x="1816" 
d="M598 43q264 0 563 -18.5t387 -20.5q-194 -127 -352 -127t-402.5 10.5t-407.5 10.5t-390 -48q16 113 177 153t425 40z" />
    <glyph glyph-name="grave" unicode="`" horiz-adv-x="282" 
d="M57 1143q57 0 141.5 -94.5t84.5 -137.5q0 -18 -14.5 -40.5t-37.5 -32.5q-100 119 -239 225q2 39 21.5 59.5t43.5 20.5z" />
    <glyph glyph-name="a" unicode="a" horiz-adv-x="909" 
d="M111 74q0 -66 49 -66t119 62l63 61q31 31 70 80l170 225q6 10 16 10h4l4 -2q10 33 10 76q0 106 -86 107q-135 0 -277 -200.5t-142 -352.5zM-53 100q0 102 84 248t222 250t273 104q90 0 150.5 -46t60.5 -117q0 -94 -116 -99q74 -23 73 -59q0 -25 -58 -124t-58 -148
q0 -74 59 -74t148 80t173 239l39 -39q-76 -170 -188.5 -273t-226.5 -103q-82 0 -126 54t-44 124q-92 -111 -158 -162t-138 -51t-120.5 47t-48.5 149z" />
    <glyph glyph-name="b" unicode="b" horiz-adv-x="837" 
d="M414 365q0 -131 88 -193q37 82 37 174q0 143 -60 143q-27 0 -46 -36.5t-19 -87.5zM276 674q123 113 230.5 313.5t109.5 282.5q-45 -16 -161 -207.5t-179 -388.5zM495 598q156 0 156 -218q0 -114 -61 -245l37 -2q154 0 264 227l31 -43q-55 -127 -130 -187t-192 -60
q-29 0 -43 2q-139 -221 -342 -222q-115 0 -176.5 72t-61.5 201q0 193 123 517.5t281 573t248 248.5q81 0 83 -162q1 -76 -63.5 -230.5t-177.5 -305t-233 -219.5q-29 -53 -61 -175t-32 -235q0 -199 107 -198q53 0 114.5 48t100.5 119q-74 41 -114 114t-40 164t53.5 153.5
t128.5 62.5z" />
    <glyph glyph-name="c" unicode="c" horiz-adv-x="681" 
d="M-12 156q0 201 143 368.5t311 167.5q82 0 122 -41t40 -102.5t-29.5 -113.5t-70.5 -52t-66 39q66 45 66 153q0 35 -39 35q-100 0 -210 -163.5t-110 -310.5t144 -146h2q121 0 247 101.5t191 262.5l41 -37q-74 -186 -227.5 -309t-311.5 -123q-111 0 -177 69t-66 202z" />
    <glyph glyph-name="d" unicode="d" horiz-adv-x="1005" 
d="M-33 136q0 102 84 248t223.5 257t274.5 111q100 0 100 -66q0 -33 -24 -47q-16 23 -72 23q-104 0 -203.5 -96.5t-153 -214t-53.5 -201.5t66 -84q88 0 215 149.5t221 392.5l160 396q70 171 136.5 287t101 150t61.5 34t44 -17.5t17 -52.5t-73 -188l-158 -328
q-86 -172 -160 -385t-74 -363q0 -49 9.5 -66.5t31.5 -17.5q70 0 160 82t158 221l39 -32q-68 -168 -186.5 -274.5t-235.5 -106.5q-150 0 -150 178q0 47 17 133q-100 -145 -207 -232t-185 -87t-131 47.5t-53 149.5z" />
    <glyph glyph-name="e" unicode="e" horiz-adv-x="698" 
d="M535 612q0 39 -35 39q-90 0 -196.5 -118.5t-151.5 -251.5q119 14 251 118.5t132 212.5zM125 158q0 -160 158 -160q125 0 255 101.5t210 252.5l40 -33q-82 -184 -234.5 -296.5t-298.5 -112.5t-218 69.5t-72 178.5q0 186 173 383.5t358 197.5q150 0 149 -137
q0 -147 -159.5 -262t-356.5 -135q-4 -20 -4 -47z" />
    <glyph glyph-name="f" unicode="f" horiz-adv-x="675" 
d="M737 1292q0 16 -16 17q-72 0 -172.5 -154.5t-204.5 -404.5q174 162 283.5 321.5t109.5 220.5zM55 -446q55 0 122 206.5t67 362.5q0 102 -60 209q-162 -475 -161 -688q-1 -90 32 -90zM-135 -354q0 134 89 440.5t217 616t292 541t295 231.5q86 0 86 -105q0 -170 -171 -395
t-388 -369l-33 -82q43 -18 54 -86t20.5 -109.5t30 -91t51 -68.5t86.5 -19t110.5 49t118.5 153l45 -33q-61 -125 -142 -188t-152 -63t-146 55q-2 -166 -49.5 -328t-124 -265t-156.5 -103q-49 0 -91 42.5t-42 176.5z" />
    <glyph glyph-name="g" unicode="g" horiz-adv-x="825" 
d="M55 -418q0 -62 40 -61q40 0 105.5 75.5t135.5 229.5q-133 -66 -207 -124t-74 -120zM-37 -449q0 56 28.5 104t61.5 80t101.5 72.5t103.5 57.5l117 57q51 129 82 256q-166 -209 -312 -209q-82 0 -130 57.5t-48 151.5q0 205 188.5 369t379.5 164q63 0 97 -22.5t34 -48.5
t-12.5 -43t-20.5 -19q-37 37 -88 36h-4q-152 0 -279 -154.5t-127 -289.5q0 -84 64 -84q55 0 136 71.5t161 184.5q23 115 53.5 165t87.5 50q27 0 59 -8q0 -53 -45 -213t-108 -332q102 43 197.5 134t136.5 210l36 -37q-45 -129 -160.5 -233.5t-236.5 -159.5
q-203 -492 -414 -491q-57 0 -98 34t-41 90z" />
    <glyph glyph-name="h" unicode="h" horiz-adv-x="1011" 
d="M287 676q123 113 230.5 313.5t107.5 280.5q-43 -16 -156.5 -203.5t-181.5 -390.5zM10 154q0 184 114 499.5t265.5 562t245.5 246.5q41 0 64.5 -45t23.5 -100q0 -152 -150.5 -410t-328.5 -362q-70 -184 -70 -348q0 -8 1 -22.5t1 -20.5q4 6 25.5 63t52.5 120.5t76 132.5
t112.5 113t153.5 44t129 -60.5t43 -137.5t-43 -183.5t-43 -147.5q0 -66 53 -65h2q68 0 167.5 98t162.5 231l33 -34q-76 -168 -183.5 -272.5t-230.5 -104.5q-76 0 -118 40t-42 92t30 158.5t30 149.5q0 86 -72 86t-132 -87t-96 -190.5t-87.5 -190.5t-99.5 -87q-89 0 -89 232z
" />
    <glyph glyph-name="i" unicode="i" horiz-adv-x="499" 
d="M412 862q-109 0 -109 84q0 43 52.5 79t111.5 36q88 0 88 -76q0 -43 -47 -83t-96 -40zM284 696q66 0 66 -59q0 -27 -105.5 -199.5t-105.5 -290.5q0 -63 22.5 -85.5t69.5 -22.5q162 0 322 313l31 -33q-72 -180 -182.5 -280t-237.5 -100q-86 0 -133 51t-47 132t43 215
t117 246.5t140 112.5z" />
    <glyph glyph-name="j" unicode="j" horiz-adv-x="464" 
d="M294 868q-112 0 -112 84q0 43 54.5 80t113.5 37q84 0 84 -72q0 -51 -45 -90t-95 -39zM-322 -429q0 -46 25 -46q41 0 110.5 80t139.5 221q-133 -68 -204 -138.5t-71 -116.5zM-403 -453q0 100 114.5 208t288.5 177q74 182 117 416l-35 -55q-25 -39 -37 -62l-35 56
q35 63 81 184t82 183.5t81 62.5q27 0 45 -21.5t18 -65.5t-42 -236.5t-105 -381.5q74 41 118 72t107.5 97.5t116.5 158.5l37 -25q-92 -189 -184.5 -253t-150.5 -97t-77 -45q-80 -213 -185.5 -353t-225.5 -140q-59 0 -94 32.5t-35 87.5z" />
    <glyph glyph-name="k" unicode="k" horiz-adv-x="946" 
d="M356 827q100 88 183.5 212t85.5 231q-33 -14 -113 -143.5t-156 -299.5zM4 102q0 166 77 413t179 451.5t211 350t168 145.5q35 0 58.5 -43t23.5 -106q0 -145 -121 -331.5t-303 -293.5q-109 -256 -127 -493q221 508 455 507q82 0 143 -58t61 -138t-78.5 -160.5
t-215.5 -85.5q53 -240 161 -240q74 0 156 97.5t149 247.5l29 -35q-57 -166 -163.5 -287t-217.5 -121q-80 0 -161.5 99t-81.5 282q264 59 264 182q0 37 -23.5 59.5t-66.5 22.5q-197 0 -394 -526q-23 -61 -43 -82.5t-59 -21.5q-80 -1 -80 165z" />
    <glyph glyph-name="l" unicode="l" horiz-adv-x="501" 
d="M647 1288q-27 0 -104.5 -118.5t-170 -310t-147.5 -365.5q164 178 293 431t129 363zM4 156q0 188 130 510.5t288 565.5t233 243q35 0 59.5 -54.5t25.5 -128.5t-69.5 -248t-203.5 -368.5t-279 -308.5q-22 -121 -22 -155v-38q0 -141 88 -141q72 0 152.5 95t144.5 230l49 -26
q-90 -186 -198.5 -289.5t-225.5 -103.5q-172 0 -172 217z" />
    <glyph glyph-name="m" unicode="m" horiz-adv-x="1351" 
d="M172 582q31 0 50.5 -18.5t19.5 -50.5t-29 -146q229 313 399 313q129 0 129 -172q0 -59 -34 -164q143 211 297 211q74 0 107.5 -43.5t33.5 -105.5t-35 -173.5t-35 -142.5q0 -55 51 -55q129 0 277 319l35 -43q-59 -154 -152.5 -264t-214.5 -110q-76 0 -117 45t-41 103
t29 152.5t29 129.5q0 61 -46 61t-105.5 -65t-123.5 -159t-101.5 -164.5t-47.5 -86.5q-37 0 -80 14.5t-43 38.5q0 14 67.5 195t67.5 249t-43 68q-84 0 -230.5 -185.5t-219.5 -387.5q-37 0 -87.5 20.5t-50.5 34.5q123 494 130 520t45 44t69 18z" />
    <glyph glyph-name="n" unicode="n" horiz-adv-x="968" 
d="M173 563q67 0 67 -61q0 -55 -35 -183q209 279 387 279q82 0 127 -57t45 -129t-40 -171.5t-40 -149.5t49 -50q68 0 146.5 93t142.5 220l35 -28q-162 -367 -367 -367q-78 0 -121 39t-43 91t29 144.5t29 137.5q0 80 -72 80q-115 0 -219.5 -136.5t-140.5 -191.5l-97 -154
q-88 1 -133 60q0 2 69.5 171t69.5 314q45 49 112 49z" />
    <glyph glyph-name="o" unicode="o" horiz-adv-x="761" 
d="M399 468q0 -64 16.5 -124.5t43.5 -93.5q119 170 119 305q0 90 -58 90q-43 0 -82 -56.5t-39 -120.5zM139 130q0 -91 72 -91t195 145q-117 102 -123 301q-39 -20 -91.5 -142t-52.5 -213zM-25 127q0 135 78 264t168 129q25 0 64 -16q12 94 66.5 155.5t144.5 61.5t129 -46
t39 -120q0 -141 -136 -348q25 -12 70 -12t110.5 37.5t100.5 115.5l37 -26q-43 -98 -116 -149.5t-135 -51.5t-118 18q-170 -205 -342 -205q-86 0 -123 55.5t-37 137.5z" />
    <glyph glyph-name="p" unicode="p" horiz-adv-x="845" 
d="M248 653q0 -47 -29 -190q152 233 334 233q100 0 165.5 -68.5t65.5 -177t-60 -226.5t-179 -204t-258 -86q-63 0 -103.5 16.5t-40.5 37t50 20.5q182 4 306 136t124 282q0 66 -29 109t-86 43q-94 0 -190.5 -104.5t-143.5 -211.5q-29 -100 -63 -239l-56 -234
q-62 -247 -99.5 -304.5t-66.5 -57.5t-56.5 18.5t-29.5 32.5q127 369 170 561t75 445t37.5 266.5t52.5 13.5q48 0 79 -32t31 -79z" />
    <glyph glyph-name="q" unicode="q" horiz-adv-x="854" 
d="M477 -358q0 -82 8 -82q33 0 33 235q0 57 -6 96q-35 -167 -35 -249zM668 547q0 98 -128 98q-66 0 -146.5 -57.5t-133.5 -139t-86 -166t-33 -132.5q0 -99 68 -99q97 0 278 271l101 149q49 76 80 76zM-29 130q0 106 86 250t228.5 247.5t281.5 103.5q78 0 131.5 -32.5
t53.5 -84.5t-43 -75q41 -7 41 -49t-74 -169.5t-105 -261.5q195 25 334 287l37 -33q-137 -276 -371 -315q35 -100 35 -234t-45 -235.5t-119 -101.5q-88 0 -88 161q0 98 26 263t66 307q-186 -231 -305 -232q-61 0 -115.5 49t-54.5 155z" />
    <glyph glyph-name="r" unicode="r" horiz-adv-x="743" 
d="M487 420q0 -62 -53 -176.5t-53 -147.5q0 -47 51 -47q90 0 200.5 101.5t155.5 199.5l50 -37q-63 -143 -195.5 -254.5t-263.5 -111.5q-76 0 -123 40t-47 103t58.5 192.5t58.5 176.5q0 78 -103 131q-80 -197 -192 -383l-31 59q94 168 166 371q-20 20 -20 64t32 91.5t58 47.5
t39.5 -24.5t13.5 -41.5l-23 -76q3 -28 78.5 -73t109 -94t33.5 -111z" />
    <glyph glyph-name="s" unicode="s" horiz-adv-x="718" 
d="M379 189q0 44 -8.5 96.5t-14.5 82t-24.5 100.5t-22.5 89q-100 -174 -178 -256q35 -59 98.5 -107.5t143.5 -66.5q6 18 6 62zM72 160q0 -62 41 -118t121 -56t122 80q-80 16 -147.5 62t-108.5 99q-28 -5 -28 -67zM543 207q0 -35 -8 -84q139 35 241 231l25 -18
q-84 -244 -285 -275q-33 -82 -106.5 -123.5t-169.5 -41.5q-143 0 -212 82.5t-69 202.5t65.5 146.5t69.5 30.5q131 135 199 281v20q0 150 92 150q45 0 49 -41l-10 -74q0 -55 59.5 -222t59.5 -265z" />
    <glyph glyph-name="t" unicode="t" horiz-adv-x="589" 
d="M-14 121q0 160 112 467q-53 10 -71 18v64q49 -6 98 -11q92 231 197.5 397.5t171.5 166.5q23 0 40 -16.5t17 -48.5t-39 -104.5t-110.5 -193.5t-114.5 -207q236 0 375 15v-68q-244 -25 -412 -25q-106 -252 -107 -411q0 -84 27 -119t84 -35q102 0 209.5 93.5t187.5 252.5
l29 -20q-84 -190 -217 -310t-277 -120q-94 0 -147 54.5t-53 160.5z" />
    <glyph glyph-name="u" unicode="u" horiz-adv-x="903" 
d="M-2 168q0 102 67.5 272t118.5 170q43 0 97 -53q-43 -63 -89.5 -182t-46.5 -205q0 -123 62 -123q53 0 131 101.5t132 206t99 204.5q123 -20 123 -70q0 -4 -64.5 -148t-64.5 -247q0 -72 53 -71h2q68 0 167.5 91t170.5 236l31 -24q-70 -166 -192.5 -276.5t-237.5 -110.5
q-133 0 -137 95t-4 134q-45 -70 -78 -112t-83.5 -79.5t-108.5 -37.5t-103 63.5t-45 165.5z" />
    <glyph glyph-name="v" unicode="v" horiz-adv-x="839" 
d="M197 29q66 0 159 130t162 287q4 131 30 182.5t74 51.5t69.5 -28t21.5 -54t-33 -94t-33 -168q0 -143 88 -143q82 0 160 151l23 -18q-86 -203 -218 -203q-125 0 -174 190q-215 -393 -374 -393q-136 0 -136 246q0 58 6 184t17.5 146t60.5 20t59.5 -17.5t10.5 -80.5l-10 -266
q0 -70 7 -96.5t30 -26.5z" />
    <glyph glyph-name="w" unicode="w" 
d="M-2 168q0 104 68.5 274t117.5 170q18 0 52 -18.5t43 -40.5q-43 -61 -88.5 -180t-45.5 -205q0 -121 64 -121q104 0 293 367q25 125 41 155.5t47 30.5q82 0 82 -59q0 -6 -10 -37q-45 -145 -46 -371q0 -104 37 -104q53 0 140.5 119.5t160.5 271.5q0 260 113 260
q45 0 67.5 -29t22.5 -49t-34 -91t-33 -171q0 -152 90 -152q78 0 157 156l39 -31q-78 -186 -209 -186t-192 170q-215 -375 -379 -375q-113 0 -121 205q0 73 6 139q-180 -328 -321 -327h-2q-68 0 -114 62.5t-46 166.5z" />
    <glyph glyph-name="x" unicode="x" horiz-adv-x="880" 
d="M786 680q16 0 37 -14.5t31 -38.5q-78 0 -324 -269q2 -14 11 -89t30 -149.5t76 -74.5q63 0 150.5 102.5t134.5 202.5l33 -31q-57 -150 -165 -262t-216 -112q-145 0 -187 252q-125 -141 -250 -299q-16 -18 -33 -18t-27.5 13t-10.5 27q0 80 305 404q-29 175 -50 190.5
t-45 15.5t-48.5 -16t-49 -50t-44 -65.5t-47 -82t-46.5 -78.5l-35 57q16 29 56 115t92 156.5t176 70.5t174 -174q217 217 272 217z" />
    <glyph glyph-name="y" unicode="y" horiz-adv-x="819" 
d="M39 -440q0 -57 39 -58q43 0 112.5 87t137.5 241q-289 -145 -289 -270zM-41 -448q0 58 28.5 104.5t61.5 79.5t101.5 72.5t105.5 56.5l111 55q35 88 98 320q-158 -223 -295 -224q-68 0 -121 41t-53 141t69.5 267.5t118.5 167.5q20 0 61.5 -21.5t49.5 -46.5
q-39 -53 -85 -178t-46 -199t57 -73h2q115 0 271 247q2 4 9 46.5t15 71t37 56t70 27.5q8 0 65 -8q-2 -51 -48 -223t-107 -336q233 96 329 346l35 -29q-78 -256 -391 -395q-207 -492 -410 -491q-57 0 -98 33.5t-41 91.5z" />
    <glyph glyph-name="z" unicode="z" horiz-adv-x="677" 
d="M-68 -440q0 -55 56 -56q92 0 224 117t157 285q-45 -29 -121 -74l-123 -70q-129 -77 -161 -122t-32 -80zM449 532q0 90 -84 91q-122 0 -254 -258l-56 -113l-39 33q78 213 163 325.5t216 112.5q88 0 145.5 -48t57.5 -139t-65.5 -177.5t-165.5 -137.5q88 -70 133 -168
q166 127 227 287l27 -33q-61 -180 -234 -307q8 -37 8 -68q0 -184 -156.5 -344.5t-355.5 -160.5q-156 0 -155 116q0 107 84 172.5t139 98.5l143 84q90 53 146 90q-6 133 -172 252q113 31 180.5 116.5t67.5 175.5z" />
    <glyph glyph-name="braceleft" unicode="{" horiz-adv-x="622" 
d="M127 -28q0 66 74.5 244.5t74.5 268.5q0 123 -106 205q98 8 145 93t56 198l18 227q8 111 57.5 189t149.5 78q127 0 127 -80q0 -29 -16 -60q-57 31 -77 31q-72 0 -98 -166l-10 -72q-4 -30 -14 -116t-19.5 -146.5t-38 -126t-73.5 -82.5q43 -49 43 -157t-75 -294t-75 -253
q0 -53 62 -53q35 0 65 20q-6 -98 -110 -98q-84 0 -122 42t-38 108z" />
    <glyph glyph-name="bar" unicode="|" horiz-adv-x="602" 
d="M160 -270q55 145 91 524t60.5 737.5t48.5 438.5q82 -33 82 -181q-2 -219 -16 -593.5t-31 -542.5q-32 -383 -235 -383z" />
    <glyph glyph-name="braceright" unicode="}" horiz-adv-x="616" 
d="M8 -72q0 27 4 43q55 -37 88 -37q51 0 76 90.5t41 229.5t26.5 204.5t43 144.5t82.5 112q-47 55 -47 145t70.5 274.5t70.5 215.5q0 43 -45 43q-31 0 -64 -23q-2 6 -2 19q0 45 35 74.5t102 29.5q127 0 127 -96q0 -45 -73.5 -222t-73.5 -301t102 -186q-102 -25 -151 -124
t-58 -222l-16 -240q-8 -119 -55 -199.5t-148 -80.5q-135 0 -135 106z" />
    <glyph glyph-name="asciitilde" unicode="~" horiz-adv-x="976" 
d="M297 426q43 0 190.5 -40t184.5 -40t135 16q-109 -111 -191 -110q-47 0 -190 44t-194.5 44t-110.5 -14q88 100 176 100z" />
    <glyph glyph-name="exclamdown" unicode="&#xa1;" horiz-adv-x="608" 
d="M430 883q0 37 38 69.5t83 32.5q82 0 82 -70q0 -37 -42 -66.5t-91 -29.5q-70 1 -70 64zM-123 -449q0 82 241.5 554.5t364.5 646.5l25 -9q0 -100 -111 -387l-157 -395q-66 -164 -134.5 -283.5t-104.5 -153.5t-63 -34t-44 18t-17 43z" />
    <glyph glyph-name="cent" unicode="&#xa2;" horiz-adv-x="872" 
d="M283 475q0 -121 106 -143q57 223 133 588q-102 -68 -170.5 -196t-68.5 -249zM123 494q0 178 129 335.5t293 204.5q33 168 47 266t21.5 114t36 35t77.5 30l-78 -430q80 0 125 -43.5t45 -113.5t-23.5 -114.5t-64.5 -44.5t-72 39q18 8 33 45t15 71t-20.5 54.5t-53.5 20.5
q-88 -483 -117 -623q133 27 240 119l45 -49q-147 -133 -303 -170q-68 -307 -136.5 -439.5t-207.5 -132.5q90 96 208 557q-106 4 -172.5 75t-66.5 194z" />
    <glyph glyph-name="sterling" unicode="&#xa3;" horiz-adv-x="1415" 
d="M1210 1309q0 86 -67 86q-85 0 -159.5 -154t-152.5 -395q111 8 202 93t134 184.5t43 185.5zM43 63q0 -27 44 -63.5t95 -36.5q82 0 160 86q-145 53 -222 53t-77 -39zM-20 82q0 102 167 102q100 0 259 -41q57 102 90 195q-221 -27 -244 -31q8 164 293 172l18 60
q-49 6 -139 6t-148 -6q0 57 100.5 99t229.5 42l43 127q-98 33 -155.5 94t-57.5 127t47 122t123 56q-39 -51 -39 -133q0 -131 107 -194q142 438 258 517t198 79t152 -51.5t70 -170.5q0 -156 -93.5 -268.5t-203 -159.5t-246.5 -47q-23 -59 -35 -104l103 -12q127 -15 239 -15
q-49 -66 -110.5 -80t-274.5 -18q-27 -66 -29 -74q23 -2 157 -15.5t218 -15.5q-49 -66 -114.5 -80t-311.5 -18q-70 -160 -123 -235q397 -119 541 -119q90 0 182 45q-78 -215 -245 -215q-90 0 -183.5 33.5t-137.5 51t-125 53.5t-111 48q-111 -117 -225 -117t-179 62.5
t-65 128.5z" />
    <glyph glyph-name="currency" unicode="&#xa4;" horiz-adv-x="1505" 
d="M639 512q0 -80 42.5 -127t98.5 -47t123.5 83t109.5 199t42 202t-39 132.5t-88 46.5q-78 0 -147.5 -91t-105.5 -204.5t-36 -193.5zM492 518q0 188 88 352q-119 119 -250 230q-41 35 -45 133q0 43 20 90q98 -88 344 -340q123 147 274 147t226 -126l51 71q58 77 109.5 121.5
t150.5 44.5q14 0 64 -8q-23 -37 -82 -103l-250 -278q4 -37 4 -53q0 -154 -104 -348q244 -211 245 -342q0 -27 -12 -68q-29 45 -73 88t-117.5 107.5t-116.5 105.5q-121 -141 -262 -141q-113 0 -178 75q-175 -180 -394 -180q45 41 107.5 84t115 89t105.5 118q-20 68 -20 131z
" />
    <glyph glyph-name="yen" unicode="&#xa5;" horiz-adv-x="1777" 
d="M244 1098q0 133 122.5 255t290.5 122q119 0 180.5 -66.5t61.5 -142.5t-65.5 -312.5t-65.5 -351.5q0 -195 141 -194q90 0 178.5 79.5t145.5 182t108 229.5q133 575 258 576q25 0 66 -22.5t72 -55.5q-98 -154 -161 -342.5t-119 -434t-95 -370.5q53 -2 141 -9.5t103 -7.5
q-123 -84 -271 -83l-35 -99q74 -2 248 -14l62 -4q-123 -86 -260 -86h-95q-158 -330 -473 -330q-133 0 -223 54.5t-90 150.5q0 119 158 174q-21 -78 -21 -144t48 -110.5t132 -44.5q193 0 320 250q-158 0 -322 -25q47 123 365 131l33 97q-248 -4 -402 -27q27 76 135.5 103.5
t292.5 29.5q10 39 31 165t33 189q-190 -313 -426 -313q-127 0 -189.5 69.5t-62.5 183.5t65.5 358.5t65.5 330.5q0 156 -113 156q-98 0 -154.5 -107.5t-56.5 -197.5t27 -150q-184 0 -184 158z" />
    <glyph glyph-name="brokenbar" unicode="&#xa6;" horiz-adv-x="604" 
d="M444 1284l-12 -506q0 -96 -70 -143l-81 -57l16 217q10 139 23 334t42 303q82 -33 82 -148zM379 461q39 0 39 -62q0 -514 -90 -591.5t-166 -77.5q61 160 106 678q45 53 111 53z" />
    <glyph glyph-name="section" unicode="&#xa7;" horiz-adv-x="907" 
d="M303 645q0 -48 35 -109t143 -61q209 0 209 168q0 74 -45 121t-132 47t-148.5 -45t-61.5 -121zM41 58q0 108 65.5 152t153.5 44q-94 -94 -94 -175t54 -129t150 -48t165 46t69 114t-45 116.5t-108 87.5l-127 82q-63 43 -108.5 106.5t-45.5 141.5q0 119 90 206t252 89
q-86 49 -133 99t-47 126q0 123 111.5 240t276.5 117t165 -144q0 -137 -105 -297q-66 10 -65 72q0 39 36.5 137t36.5 131q0 41 -61 41q-115 0 -200 -90t-85 -175t98.5 -138.5t156 -91t98.5 -105.5t41 -158q0 -133 -83 -203.5t-218 -70.5q-27 0 -35 2q63 -35 104 -63.5t80 -85
t39 -121.5q0 -129 -117 -210t-252 -81t-224 64t-89 172z" />
    <glyph glyph-name="dieresis" unicode="&#xa8;" horiz-adv-x="471" 
d="M289 923q0 36 44 65.5t93 29.5q76 0 76 -68q0 -37 -40 -68.5t-81 -31.5t-66.5 18.5t-25.5 54.5zM84 891q-92 0 -92 71q0 36 45 66.5t92 30.5q74 0 74 -66q0 -37 -39 -69.5t-80 -32.5z" />
    <glyph glyph-name="copyright" unicode="&#xa9;" horiz-adv-x="1269" 
d="M530 614v265q0 195 181 194q92 0 141 -52t49 -102t-45 -51q-48 0 -51.5 42t-25 60.5t-64.5 18.5q-94 0 -94 -110v-265q0 -59 22.5 -84.5t73.5 -25.5t71.5 18.5t24 60.5t43.5 42q49 0 49 -43q0 -68 -49 -114t-134 -46t-138.5 47t-53.5 145zM264 740q0 -198 121 -323.5
t321 -125.5t329.5 125.5t129.5 321.5t-127.5 321t-325.5 125t-323 -123t-125 -321zM692 1270q112 0 205.5 -34t173.5 -96.5t129 -167t49 -254.5t-125 -331.5t-419 -181.5q-203 0 -361 139t-164 389q0 174 83 300t200 181.5t229 55.5z" />
    <glyph glyph-name="ordfeminine" unicode="&#xaa;" horiz-adv-x="839" 
d="M383 1044q0 -41 27 -40q86 0 282 288l15 6q10 31 10 52q0 59 -62 59q-90 0 -181 -131.5t-91 -233.5zM256 1047q0 131 130 279.5t271 148.5q63 0 106.5 -33t43.5 -89t-62 -65q31 -16 32 -36t-39 -87t-40 -107t38 -40t96.5 56t121.5 161l21 -33q-45 -117 -125 -189.5
t-156 -72.5q-92 0 -96 129q-131 -154 -225 -154q-49 0 -83 34.5t-34 97.5z" />
    <glyph glyph-name="guillemotleft" unicode="&#xab;" horiz-adv-x="980" 
d="M799 588q0 -121 -328 -287q125 -82 336 -158q-49 -53 -84 -53q-78 0 -206 91t-148 157q111 43 222 131t183 184q4 -4 14.5 -29.5t10.5 -35.5zM485 588q0 -121 -327 -287q125 -82 336 -158q-49 -53 -84 -53q-78 0 -206.5 91t-148.5 157q111 43 222.5 131t183.5 184
q4 -4 14 -29.5t10 -35.5z" />
    <glyph glyph-name="logicalnot" unicode="&#xac;" horiz-adv-x="1384" 
d="M684 483q221 0 363 -6q18 59 77 115q0 -16 17 -119q143 -4 157 -8q-51 -53 -151 -74q0 -39 4 -55q0 -80 -7 -128t-39 -92t-91 -63q31 143 30 183l-2 145q-31 -2 -118 -3q-349 -4 -460 -6t-374 -24q43 78 208 106.5t386 28.5z" />
    <glyph glyph-name="uni00AD" unicode="&#xad;" horiz-adv-x="991" 
d="M470 420q128 0 386 -14q-20 -47 -93 -79t-157 -32l-256 12q-139 0 -262 -16q23 83 138 106t244 23z" />
    <glyph glyph-name="registered" unicode="&#xae;" horiz-adv-x="1267" 
d="M635 791h86q104 0 104 99t-106 99h-84v-198zM582 1071h133q86 0 144.5 -43t58.5 -139q0 -141 -119 -172l100 -189q27 -50 27 -63q0 -14 -15.5 -27.5t-31.5 -13.5q-31 0 -62 63l-112 222h-66v-242q0 -20 -14.5 -31.5t-31.5 -11.5t-31.5 11t-14.5 32l-8 563q0 16 12 28.5
t31 12.5zM264 739q0 -197 119 -322.5t317.5 -125.5t331.5 126.5t133 322.5t-122.5 320t-321.5 124t-328 -124t-129 -321zM180 736q0 171 85 297t204 181.5t249 55.5t247.5 -56.5t200.5 -180.5t83 -294t-88 -297t-210 -182t-251 -55t-244.5 56t-195.5 180t-80 295z" />
    <glyph glyph-name="degree" unicode="&#xb0;" horiz-adv-x="600" 
d="M324 929q0 -52 65 -52t118.5 53t53.5 103q-1 50 -69 50t-118 -51t-50 -103zM391 811q-162 -1 -162 129q0 64 76 137.5t169 73.5t135 -33t42 -84q0 -78 -77.5 -150.5t-182.5 -72.5z" />
    <glyph glyph-name="plusminus" unicode="&#xb1;" horiz-adv-x="993" 
d="M426 754q0 100 70 190q18 -102 28 -254q123 -2 336 -18q-121 -74 -244 -74h-92q-2 -117 -25.5 -185.5t-95.5 -93.5q23 127 23 279q-176 0 -307 -18q39 100 307 110v64zM115 150q16 117 385 116q199 0 368 -18q-82 -45 -146 -55.5t-234 -14.5t-373 -28z" />
    <glyph glyph-name="uni00B2" unicode="&#xb2;" horiz-adv-x="813" 
d="M280.5 725q-16.5 0 -16.5 -5t14 -5t31 8q-12 2 -28.5 2zM188 723q0 66 99 65q45 0 106 -12q98 84 178 227.5t80 267.5t-94 124q-53 0 -86 -49.5t-33 -108.5t25 -111h-39q-96 23 -96 110t69.5 154.5t165.5 67.5t151.5 -57.5t55.5 -140.5q0 -127 -78 -266.5t-194 -237.5
q139 -29 174 -29t121 51q-23 -84 -54.5 -123t-85.5 -39q-100 0 -247 74q-70 -41 -116 -41t-74 20.5t-28 53.5z" />
    <glyph glyph-name="uni00B3" unicode="&#xb3;" horiz-adv-x="684" 
d="M211 796q0 54 28.5 92t77.5 38q18 0 62 -15q-51 -39 -51 -89t23.5 -85t70.5 -35t92 58.5t45 138.5q0 147 -160 186q92 39 148.5 111t56.5 123t-22.5 75.5t-56.5 24.5t-62.5 -30.5t-28.5 -62.5t21 -73q-10 -18 -31.5 -32.5t-41.5 -14.5t-36 32t-16 65q0 76 63.5 121.5
t143.5 45.5t135 -39t55 -103t-39 -129.5t-102 -98.5q123 -61 123 -191q0 -102 -86.5 -184t-198.5 -82t-162.5 49.5t-50.5 103.5z" />
    <glyph glyph-name="acute" unicode="&#xb4;" horiz-adv-x="288" 
d="M190 907q0 41 77 138.5t132 97.5t64 -72q-174 -168 -223 -231q-23 10 -36.5 31.5t-13.5 35.5z" />
    <glyph glyph-name="uni00B5" unicode="&#xb5;" horiz-adv-x="1259" 
d="M305 135q0 -98 51 -98q72 0 158 137t158 281l55 106q121 -18 121 -67q-131 -264 -131 -408q0 -70 57 -70q70 0 171.5 91.5t172.5 238.5l49 -33q-68 -168 -192.5 -277.5t-243.5 -109.5q-76 0 -121 45t-45 119q0 20 2 33q-125 -197 -250 -197q-49 0 -86 37
q-152 -537 -208 -536q-29 0 -53.5 38t-28.5 56q27 88 73 211l76 213q31 90 70 291.5t54 351.5t21.5 163t45.5 13q109 0 116 -107q-92 -424 -92 -522z" />
    <glyph glyph-name="paragraph" unicode="&#xb6;" horiz-adv-x="1404" 
d="M145 684q0 147 147.5 311t506.5 195q-6 135 -25 256q41 20 75 20q66 0 80.5 -85.5t14.5 -186.5q4 0 40 -5t48 -9q-10 195 -20 264q33 23 69 22q74 0 97 -321q78 -23 184 -70q-8 -20 -49 -48t-51 -28t-80 33q10 -121 10 -272q0 -758 -23 -830q-14 -49 -64 -78.5
t-110 -29.5q14 41 26.5 455.5t12.5 631.5l-2 187q-28 7 -49.5 9.5t-30.5 4.5q16 -286 16 -698t-22 -480q-16 -45 -81.5 -77.5t-131.5 -32.5q12 217 35 489q-247 18 -344.5 62.5t-188 104t-90.5 206.5z" />
    <glyph glyph-name="periodcentered" unicode="&#xb7;" horiz-adv-x="493" 
d="M119 311q0 33 44 67t87 34q68 0 67 -60q0 -31 -33.5 -73.5t-80.5 -42.5q-84 -1 -84 75z" />
    <glyph glyph-name="cedilla" unicode="&#xb8;" horiz-adv-x="475" 
d="M27 -291q0 37 65 82q27 -92 82 -92q49 0 107.5 61.5t58.5 101.5t-33 40q-27 0 -86 -38t-75.5 -38t-30 17.5t-13.5 28.5t45.5 71.5t67.5 81.5l92 71l-96 -153q132 48 176.5 9.5t44.5 -87.5q0 -86 -83 -166t-187 -80q-57 0 -96 26.5t-39 63.5z" />
    <glyph glyph-name="uni00B9" unicode="&#xb9;" horiz-adv-x="628" 
d="M379 1233q-45 0 -45 61q74 37 248 174q20 -20 20 -42t-82 -429l-24 -123q-20 -92 -41 -135q106 0 127 -94q-80 6 -107 6l-101 -4q-102 -4 -135.5 16.5t-60.5 57.5q111 0 168 6q33 78 74 302t45 241q-66 -37 -86 -37z" />
    <glyph glyph-name="ordmasculine" unicode="&#xba;" horiz-adv-x="634" 
d="M375 1073q0 -29 14 -47t37 -18q43 0 97.5 60t86.5 138q-8 34 -8 92t12 88q-94 -14 -166.5 -124.5t-72.5 -188.5zM260 1059q0 121 112.5 267.5t243.5 146.5q47 0 70 -27q33 -2 50.5 -23t17.5 -41t-28 -80t-28 -84t35 -24t47 6q0 -35 -23.5 -53.5t-54.5 -18.5t-53 17
q-47 -100 -114 -159.5t-135 -59.5t-104 37t-36 96z" />
    <glyph glyph-name="guillemotright" unicode="&#xbb;" horiz-adv-x="1005" 
d="M535 90q-35 0 -84 53q211 76 335 158q-328 166 -327 287q0 10 10 35.5t14 29.5q72 -96 183.5 -184t222.5 -131q-20 -66 -148.5 -157t-205.5 -91zM145 588q0 10 10.5 35.5t14.5 29.5q72 -96 183.5 -184t221.5 -131q-20 -66 -148 -157t-206 -91q-35 0 -84 53
q211 76 336 158q-328 166 -328 287z" />
    <glyph glyph-name="onequarter" unicode="&#xbc;" horiz-adv-x="1404" 
d="M940 362l143 -2q23 123 37 168l-57 -51q-35 -35 -70 -65t-53 -50zM1219 356q6 0 108 17q-80 -106 -145 -107q-35 -252 -35 -321q-129 6 -129 71q0 41 43 252q-157 14 -289 -20q0 57 25 78q344 289 446 458q41 -4 43 -43q0 -8 -27 -104.5t-61 -280.5h21zM360 1233
q-45 0 -45 53q0 2 39 31l105 74q63 45 104 77q21 -18 21 -59t-107 -543q-20 -100 -43 -139q109 0 129 -96q-86 6 -108 6l-181 -8q-59 0 -120 78q127 0 172 8q33 80 75.5 311t44.5 244q-61 -37 -86 -37zM1162 1458q34 0 59 -4q-39 -96 -297 -578.5t-381 -672.5t-225.5 -285.5
t-211.5 -95.5q147 143 473 703t439 849q12 29 61 56.5t83 27.5z" />
    <glyph glyph-name="onehalf" unicode="&#xbd;" horiz-adv-x="1521" 
d="M862.5 53q-16.5 0 -16.5 -5t14 -5t31 8q-12 2 -28.5 2zM770 51q0 66 98 66q45 0 107 -13q98 84 178 227.5t80 267.5t-94 124q-53 0 -86 -49.5t-33 -107.5t24 -111h-38q-96 23 -96 109t69.5 154t165.5 68t151.5 -57t55.5 -141q0 -127 -78 -266.5t-195 -237.5
q139 -29 175 -29t120 51q-23 -84 -54.5 -122.5t-84.5 -38.5q-100 0 -248 73q-70 -41 -116 -41t-73.5 20.5t-27.5 53.5zM365 1233q-45 0 -46 53q0 2 39 31l105 74q63 45 104 77q21 -18 21 -59t-107 -543q-20 -100 -43 -139q109 0 129 -96q-86 6 -108 6l-180 -8q-60 0 -121 78
q127 0 172 8q33 80 76 311t45 244q-61 -37 -86 -37zM123 -178q147 145 475 705t438 847q12 33 73.5 67t115.5 34q-25 -98 -277 -578.5t-382 -682.5t-231 -297t-212 -95z" />
    <glyph glyph-name="threequarters" unicode="&#xbe;" horiz-adv-x="1501" 
d="M1038 362l144 -2q23 123 37 168q-66 -63 -114.5 -104.5t-66.5 -61.5zM1382 741q0 -14 -23 -102t-63 -283q27 0 129 17q-80 -106 -145 -107q-35 -252 -35 -321q-129 6 -129 71q0 41 43 252q-187 0 -289 -20q0 57 25 78q346 291 434 452l12 6q41 -4 41 -43zM205 -178
q275 336 477 700l164 299q53 100 159.5 321.5t110.5 231.5q16 37 75.5 69t115.5 32q-27 -102 -266 -556t-383 -681t-242 -321.5t-211 -94.5zM197 784q0 56 27.5 93.5t78.5 37.5q16 0 64 -12q-55 -39 -55 -91t27.5 -85t74.5 -33t92 58.5t45 138.5q0 152 -162 188
q90 39 149.5 114t59.5 126t-23.5 74.5t-57.5 23.5t-64.5 -29.5t-30.5 -62.5t20 -74q-8 -18 -29 -32.5t-41 -14.5t-36.5 31t-20.5 65q0 78 65.5 124t146.5 46t136.5 -39t55.5 -105t-40 -133t-104 -99q61 -29 93 -83.5t32 -111.5q0 -102 -87 -186t-203 -84t-164.5 49.5
t-48.5 105.5z" />
    <glyph glyph-name="questiondown" unicode="&#xbf;" horiz-adv-x="894" 
d="M340 713q0 41 38 73.5t79 32.5q88 0 88 -67q0 -39 -43 -69t-90 -30q-72 1 -72 60zM461 424q0 -62 -40 -134.5t-97 -133.5l-115 -121q-137 -147 -137 -299q0 -109 44 -168.5t113 -59.5q111 0 206 123t95 285q0 66 -22 139q94 -14 131 -57t37 -115q0 -182 -126 -319
t-327 -137q-141 0 -224 73.5t-83 207.5t117 251l106 100q136 122 180 254q14 45 26.5 120t29.5 122q53 -27 69.5 -48t16.5 -83z" />
    <glyph glyph-name="Agrave" unicode="&#xc0;" 
d="M926 1937q57 0 141 -94t84 -137q0 -18 -14.5 -41t-36.5 -33q-101 120 -240 226q2 39 21.5 59t44.5 20zM520 668l248 -56q74 352 217 686q-182 -143 -465 -630zM0 -51q0 152 301 614q-123 8 -301 8q49 133 238 134q41 0 151 -13q229 332 428 559.5t258 227.5t146 -80
q-68 -51 -194 -490.5t-126 -687.5q0 -162 72 -162q111 0 272 306l37 -39q-66 -174 -168 -279.5t-213 -105.5q-180 0 -180 317q0 100 27 254q-104 16 -293 39q-190 -338 -361 -729q-94 49 -94 127z" />
    <glyph glyph-name="Aacute" unicode="&#xc1;" 
d="M1137 1702q0 41 76.5 138t134.5 97q53 0 61 -71q-174 -168 -223 -232q-23 10 -36 32t-13 36zM520 668l248 -56q74 352 217 686q-182 -143 -465 -630zM0 -51q0 152 301 614q-123 8 -301 8q49 133 238 134q41 0 151 -13q229 332 428 559.5t258 227.5t146 -80
q-68 -51 -194 -490.5t-126 -687.5q0 -162 72 -162q111 0 272 306l37 -39q-66 -174 -168 -279.5t-213 -105.5q-180 0 -180 317q0 100 27 254q-104 16 -293 39q-190 -338 -361 -729q-94 49 -94 127z" />
    <glyph glyph-name="Acircumflex" unicode="&#xc2;" 
d="M952 1752q0 48 92.5 108.5t144.5 60.5t124.5 -78t72.5 -135t-51 -84q-47 80 -147 170q-94 -31 -209 -106q-27 16 -27 64zM520 668l248 -56q74 352 217 686q-182 -143 -465 -630zM0 -51q0 152 301 614q-123 8 -301 8q49 133 238 134q41 0 151 -13q229 332 428 559.5
t258 227.5t146 -80q-68 -51 -194 -490.5t-126 -687.5q0 -162 72 -162q111 0 272 306l37 -39q-66 -174 -168 -279.5t-213 -105.5q-180 0 -180 317q0 100 27 254q-104 16 -293 39q-190 -338 -361 -729q-94 49 -94 127z" />
    <glyph glyph-name="Atilde" unicode="&#xc3;" 
d="M968 1759q48 0 176 -41t190 -41t147 15q-104 -111 -189 -111q-63 0 -197.5 38.5t-180.5 38.5t-140 -16q39 45 92.5 81t101.5 36zM520 668l248 -56q74 352 217 686q-182 -143 -465 -630zM0 -51q0 152 301 614q-123 8 -301 8q49 133 238 134q41 0 151 -13
q229 332 428 559.5t258 227.5t146 -80q-68 -51 -194 -490.5t-126 -687.5q0 -162 72 -162q111 0 272 306l37 -39q-66 -174 -168 -279.5t-213 -105.5q-180 0 -180 317q0 100 27 254q-104 16 -293 39q-190 -338 -361 -729q-94 49 -94 127z" />
    <glyph glyph-name="Adieresis" unicode="&#xc4;" 
d="M1282 1645q-92 0 -92 72q0 36 44 65.5t93 29.5q76 0 76 -67q0 -37 -40 -68.5t-81 -31.5zM985 1686q-92 0 -92 70q0 36 45 66.5t92 30.5q74 0 74 -65q0 -37 -39 -69.5t-80 -32.5zM520 668l248 -56q74 352 217 686q-182 -143 -465 -630zM0 -51q0 152 301 614q-123 8 -301 8
q49 133 238 134q41 0 151 -13q229 332 428 559.5t258 227.5t146 -80q-68 -51 -194 -490.5t-126 -687.5q0 -162 72 -162q111 0 272 306l37 -39q-66 -174 -168 -279.5t-213 -105.5q-180 0 -180 317q0 100 27 254q-104 16 -293 39q-190 -338 -361 -729q-94 49 -94 127z" />
    <glyph glyph-name="Aring" unicode="&#xc5;" 
d="M1339 1815q0 53 -61 53t-105.5 -44t-44.5 -89q5 -58 79 -58q42 0 87 46t45 92zM1182 1606q-160 0 -160 128q0 64 76 138t169 74t135 -33t42 -84q0 -78 -79 -150.5t-183 -72.5zM520 668l248 -56q74 352 217 686q-182 -143 -465 -630zM0 -51q0 152 301 614q-123 8 -301 8
q49 133 238 134q41 0 151 -13q229 332 428 559.5t258 227.5t146 -80q-68 -51 -194 -490.5t-126 -687.5q0 -162 72 -162q111 0 272 306l37 -39q-66 -174 -168 -279.5t-213 -105.5q-180 0 -180 317q0 100 27 254q-104 16 -293 39q-190 -338 -361 -729q-94 49 -94 127z" />
    <glyph glyph-name="AE" unicode="&#xc6;" horiz-adv-x="1617" 
d="M518 668l248 -56q74 352 217 686q-182 -143 -465 -630zM-2 -53q0 154 301 616q-123 8 -205 8h-96q49 133 240 134q39 0 149 -13q227 328 426 557.5t268 229.5q317 0 682 -47q-37 -100 -381 -101q-78 0 -213 4q-80 -160 -159 -469q117 -4 279.5 -26.5t166.5 -22.5
q-39 -100 -381 -100q-74 0 -104 2q-72 -322 -72 -514q0 -12 6 -68q74 -10 298 -28.5t292 -34.5q-35 -98 -379 -99q-238 0 -323 9q-76 68 -76 274q0 96 28 254q-104 16 -292 39q-190 -338 -361 -729q-94 49 -94 125z" />
    <glyph glyph-name="Ccedilla" unicode="&#xc7;" horiz-adv-x="1165" 
d="M66 328q0 264 129 532t332.5 440.5t412.5 172.5t209 -187q0 -133 -82 -288.5t-170 -155.5q-51 0 -84 63q78 86 150.5 205t72.5 193q0 80 -92 79q-143 0 -305 -174t-268.5 -428t-106.5 -444t74 -303t228 -113t315 129t247 309l54 -34q-88 -166 -209 -289t-266 -176
l-48 -78q132 48 177 9.5t45 -87.5q0 -86 -83 -166t-188 -80q-57 0 -96 27.5t-39 63.5t66 81q27 -92 82 -92q49 0 107 61.5t58 101.5t-30 40t-89 -38t-75 -38t-29.5 17.5t-13.5 27.5t29.5 53t56.5 74q-72 -14 -125 -14q-219 0 -332.5 148.5t-113.5 357.5z" />
    <glyph glyph-name="Egrave" unicode="&#xc8;" horiz-adv-x="1091" 
d="M899 1937q57 0 141 -94t84 -137q0 -18 -14 -41t-37 -33q-100 120 -239 226q2 39 21 59t44 20zM-8 217q0 174 150.5 331t371.5 187q-147 129 -147 304t125.5 304.5t318.5 129.5q125 0 192.5 -60.5t67.5 -176.5t-58.5 -215t-113.5 -99t-102 84q180 147 180 274q0 59 -40 92
t-108 33q-131 0 -205.5 -113.5t-74.5 -265.5q0 -215 151 -332q-213 -33 -348 -181t-135 -310q0 -111 65.5 -200t213.5 -89t307.5 131t247.5 313l55 -34q-121 -227 -295 -364.5t-375 -137.5t-322.5 110.5t-121.5 284.5z" />
    <glyph glyph-name="Eacute" unicode="&#xc9;" horiz-adv-x="1091" 
d="M954 1702q0 41 77 138t132 97t64 -71q-174 -168 -223 -232q-23 10 -36.5 32t-13.5 36zM-8 217q0 174 150.5 331t371.5 187q-147 129 -147 304t125.5 304.5t318.5 129.5q125 0 192.5 -60.5t67.5 -176.5t-58.5 -215t-113.5 -99t-102 84q180 147 180 274q0 59 -40 92
t-108 33q-131 0 -205.5 -113.5t-74.5 -265.5q0 -215 151 -332q-213 -33 -348 -181t-135 -310q0 -111 65.5 -200t213.5 -89t307.5 131t247.5 313l55 -34q-121 -227 -295 -364.5t-375 -137.5t-322.5 110.5t-121.5 284.5z" />
    <glyph glyph-name="Ecircumflex" unicode="&#xca;" horiz-adv-x="1091" 
d="M782 1752q0 48 92.5 108.5t144.5 60.5t125 -78t73 -135t-52 -84q-47 80 -147 170q-94 -31 -209 -106q-27 16 -27 64zM-8 217q0 174 150.5 331t371.5 187q-147 129 -147 304t125.5 304.5t318.5 129.5q125 0 192.5 -60.5t67.5 -176.5t-58.5 -215t-113.5 -99t-102 84
q180 147 180 274q0 59 -40 92t-108 33q-131 0 -205.5 -113.5t-74.5 -265.5q0 -215 151 -332q-213 -33 -348 -181t-135 -310q0 -111 65.5 -200t213.5 -89t307.5 131t247.5 313l55 -34q-121 -227 -295 -364.5t-375 -137.5t-322.5 110.5t-121.5 284.5z" />
    <glyph glyph-name="Edieresis" unicode="&#xcb;" horiz-adv-x="1091" 
d="M1120 1645q-92 0 -92 72q0 36 44 65.5t93 29.5q76 0 76 -67q0 -37 -40 -68.5t-81 -31.5zM823 1686q-92 0 -92 70q0 36 45 66.5t92 30.5q74 0 74 -65q0 -37 -39 -69.5t-80 -32.5zM-8 217q0 174 150.5 331t371.5 187q-147 129 -147 304t125.5 304.5t318.5 129.5
q125 0 192.5 -60.5t67.5 -176.5t-58.5 -215t-113.5 -99t-102 84q180 147 180 274q0 59 -40 92t-108 33q-131 0 -205.5 -113.5t-74.5 -265.5q0 -215 151 -332q-213 -33 -348 -181t-135 -310q0 -111 65.5 -200t213.5 -89t307.5 131t247.5 313l55 -34q-121 -227 -295 -364.5
t-375 -137.5t-322.5 110.5t-121.5 284.5z" />
    <glyph glyph-name="Igrave" unicode="&#xcc;" horiz-adv-x="1030" 
d="M653 1937q57 0 141.5 -94t84.5 -137q0 -18 -14.5 -41t-37.5 -33q-100 120 -239 226q2 39 21.5 59t43.5 20zM650 1473q232 0 581 -46q-100 -96 -247 -96t-212 -2l-12 -61q-4 -25 -75 -413t-103 -519q-61 -246 -148 -328q27 -2 193 -18.5t270 -18.5q-121 -115 -276 -114
q-285 0 -396.5 -6t-261.5 -31q12 126 107 159t245 33q84 180 205 709.5t148 607.5q-254 -4 -486 -49q20 102 128 147.5t340 45.5z" />
    <glyph glyph-name="Iacute" unicode="&#xcd;" horiz-adv-x="1030" 
d="M760 1702q0 41 76.5 138t134.5 97q53 0 61 -71q-174 -168 -223 -232q-23 10 -36 32t-13 36zM650 1473q232 0 581 -46q-100 -96 -247 -96t-212 -2l-12 -61q-4 -25 -75 -413t-103 -519q-61 -246 -148 -328q27 -2 193 -18.5t270 -18.5q-121 -115 -276 -114q-285 0 -396.5 -6
t-261.5 -31q12 126 107 159t245 33q84 180 205 709.5t148 607.5q-254 -4 -486 -49q20 102 128 147.5t340 45.5z" />
    <glyph glyph-name="Icircumflex" unicode="&#xce;" horiz-adv-x="1030" 
d="M602 1752q0 48 92 108.5t144 60.5t125 -78t73 -135t-51 -84q-47 80 -147 170q-94 -31 -209 -106q-27 16 -27 64zM650 1473q232 0 581 -46q-100 -96 -247 -96t-212 -2l-12 -61q-4 -25 -75 -413t-103 -519q-61 -246 -148 -328q27 -2 193 -18.5t270 -18.5
q-121 -115 -276 -114q-285 0 -396.5 -6t-261.5 -31q12 126 107 159t245 33q84 180 205 709.5t148 607.5q-254 -4 -486 -49q20 102 128 147.5t340 45.5z" />
    <glyph glyph-name="Idieresis" unicode="&#xcf;" horiz-adv-x="1030" 
d="M989 1645q-92 0 -92 72q0 36 44 65.5t93 29.5q76 0 76 -67q0 -37 -40 -68.5t-81 -31.5zM692 1686q-92 0 -92 70q0 36 45 66.5t92 30.5q74 0 74 -65q0 -37 -39 -69.5t-80 -32.5zM650 1473q232 0 581 -46q-100 -96 -247 -96t-212 -2l-12 -61q-4 -25 -75 -413t-103 -519
q-61 -246 -148 -328q27 -2 193 -18.5t270 -18.5q-121 -115 -276 -114q-285 0 -396.5 -6t-261.5 -31q12 126 107 159t245 33q84 180 205 709.5t148 607.5q-254 -4 -486 -49q20 102 128 147.5t340 45.5z" />
    <glyph glyph-name="Eth" unicode="&#xd0;" horiz-adv-x="1409" 
d="M664 1298q39 0 81 -28q-117 -262 -223 -594q123 0 375 -21q-123 -84 -260 -84h-148q-117 -365 -180 -661q47 -6 78 -6q213 0 408.5 150.5t311.5 384t116 473.5t-118 359.5t-320 119.5t-334 -105.5t-132 -263.5q0 -55 19 -98q-164 0 -164 131q0 150 203 285t481 135
t412.5 -162t134.5 -422q0 -213 -88 -414t-230.5 -343t-325.5 -227t-361 -85t-257 102q51 254 172 645q-80 -1 -258 -26q59 115 291 129q116 374 155.5 456t80.5 126t80 44z" />
    <glyph glyph-name="Ntilde" unicode="&#xd1;" horiz-adv-x="1380" 
d="M938 1759q49 0 176.5 -41t189.5 -41t146 15q-104 -111 -178 -111t-208 38.5t-180 38.5t-141 -16q39 45 92.5 81t102.5 36zM563 1341q0 29 -26 29q-82 0 -152 -116.5t-70 -215.5q0 -49 21 -96q-164 0 -164 133t149.5 266.5t274.5 133.5q74 0 123 -61.5t68.5 -125t37 -131
t61.5 -384.5t87 -540q25 100 74 312l81 348q92 370 153 477q62 107 167 107q-119 -309 -260 -869.5t-141 -785.5q-80 0 -127.5 38t-69.5 138q-8 33 -211 1139q-240 -870 -325.5 -1092.5t-198.5 -222.5l434 1440q14 57 14 79z" />
    <glyph glyph-name="Ograve" unicode="&#xd2;" horiz-adv-x="1341" 
d="M961 1937q57 0 141 -94t84 -137q0 -18 -14.5 -41t-36.5 -33q-101 120 -240 226q2 39 21.5 59t44.5 20zM66 348q0 246 128 511t338.5 439.5t430.5 174.5q84 0 139 -58q-33 4 -60 4q-172 0 -352 -172t-295.5 -430t-115.5 -493q0 -176 70.5 -290t211.5 -114t265 104.5
t206 265.5t131 347.5t49 328.5q0 324 -92 324q-66 0 -152.5 -150.5t-113.5 -281.5q-129 27 -129 119q0 111 141.5 254t257.5 143q57 0 98.5 -43t69 -145t27.5 -264q0 -250 -80 -464t-203 -349.5t-265 -211t-275 -75.5q-184 0 -307 140t-123 386z" />
    <glyph glyph-name="Oacute" unicode="&#xd3;" horiz-adv-x="1341" 
d="M987 1702q0 41 77 138t132 97t64 -71q-174 -168 -224 -232q-23 10 -36 32t-13 36zM66 348q0 246 128 511t338.5 439.5t430.5 174.5q84 0 139 -58q-33 4 -60 4q-172 0 -352 -172t-295.5 -430t-115.5 -493q0 -176 70.5 -290t211.5 -114t265 104.5t206 265.5t131 347.5
t49 328.5q0 324 -92 324q-66 0 -152.5 -150.5t-113.5 -281.5q-129 27 -129 119q0 111 141.5 254t257.5 143q57 0 98.5 -43t69 -145t27.5 -264q0 -250 -80 -464t-203 -349.5t-265 -211t-275 -75.5q-184 0 -307 140t-123 386z" />
    <glyph glyph-name="Ocircumflex" unicode="&#xd4;" horiz-adv-x="1341" 
d="M864 1752q0 48 92.5 108.5t144.5 60.5t124.5 -78t72.5 -135t-51 -84q-47 80 -147 170q-94 -31 -209 -106q-27 16 -27 64zM66 348q0 246 128 511t338.5 439.5t430.5 174.5q84 0 139 -58q-33 4 -60 4q-172 0 -352 -172t-295.5 -430t-115.5 -493q0 -176 70.5 -290
t211.5 -114t265 104.5t206 265.5t131 347.5t49 328.5q0 324 -92 324q-66 0 -152.5 -150.5t-113.5 -281.5q-129 27 -129 119q0 111 141.5 254t257.5 143q57 0 98.5 -43t69 -145t27.5 -264q0 -250 -80 -464t-203 -349.5t-265 -211t-275 -75.5q-184 0 -307 140t-123 386z" />
    <glyph glyph-name="Otilde" unicode="&#xd5;" horiz-adv-x="1341" 
d="M999 1759q49 0 176.5 -41t189.5 -41t146 15q-103 -111 -177 -111t-208.5 38.5t-180.5 38.5t-140 -16q39 45 92 81t102 36zM66 348q0 246 128 511t338.5 439.5t430.5 174.5q84 0 139 -58q-33 4 -60 4q-172 0 -352 -172t-295.5 -430t-115.5 -493q0 -176 70.5 -290
t211.5 -114t265 104.5t206 265.5t131 347.5t49 328.5q0 324 -92 324q-66 0 -152.5 -150.5t-113.5 -281.5q-129 27 -129 119q0 111 141.5 254t257.5 143q57 0 98.5 -43t69 -145t27.5 -264q0 -250 -80 -464t-203 -349.5t-265 -211t-275 -75.5q-184 0 -307 140t-123 386z" />
    <glyph glyph-name="Odieresis" unicode="&#xd6;" horiz-adv-x="1341" 
d="M1216 1645q-92 0 -92 72q0 36 44 65.5t94 29.5q76 0 75 -67q0 -37 -40 -68.5t-81 -31.5zM920 1686q-92 0 -93 70q0 36 45.5 66.5t92.5 30.5q74 0 73 -65q0 -37 -38 -69.5t-80 -32.5zM66 348q0 246 128 511t338.5 439.5t430.5 174.5q84 0 139 -58q-33 4 -60 4
q-172 0 -352 -172t-295.5 -430t-115.5 -493q0 -176 70.5 -290t211.5 -114t265 104.5t206 265.5t131 347.5t49 328.5q0 324 -92 324q-66 0 -152.5 -150.5t-113.5 -281.5q-129 27 -129 119q0 111 141.5 254t257.5 143q57 0 98.5 -43t69 -145t27.5 -264q0 -250 -80 -464
t-203 -349.5t-265 -211t-275 -75.5q-184 0 -307 140t-123 386z" />
    <glyph glyph-name="multiply" unicode="&#xd7;" horiz-adv-x="829" 
d="M119 94q0 84 168 266q-139 143 -140 224q0 23 19 59q78 -98 194 -213q139 131 273 229q-8 -66 -35 -120t-47.5 -78.5t-62.5 -61.5t-46 -41l101 -92q92 -88 123 -225q-152 111 -295 240l-6 6q-131 -123 -226 -248q-20 32 -20 55z" />
    <glyph glyph-name="Oslash" unicode="&#xd8;" horiz-adv-x="1339" 
d="M559 -82q139 0 264 105.5t208 268.5t131 355.5t48 370.5l-655 -924q-72 -96 -123 -145q57 -31 127 -31zM61 335q0 259 130.5 524t337 438t413.5 173q90 0 129 -53h-29q-174 0 -354 -172t-296 -429t-116 -492q0 -162 54 -267q311 377 841 1178q-23 53 -53 53
q-66 0 -153.5 -152.5t-114.5 -279.5q-127 29 -127 119q0 111 141.5 254t251.5 143q66 0 113 -57q16 23 67.5 41t87.5 18t70 -6q-14 -18 -156 -223q20 -90 20 -254t-72.5 -419t-299 -453.5t-448.5 -198.5q-88 0 -176 37q-96 -63 -179 -64q-27 0 -77 10q78 51 147 127
q-152 146 -152 405z" />
    <glyph glyph-name="Ugrave" unicode="&#xd9;" horiz-adv-x="1536" 
d="M930 1937q57 0 141 -94t84 -137q0 -18 -14.5 -41t-36.5 -33q-101 120 -240 226q2 39 21.5 59t44.5 20zM68 1098q0 133 122.5 254t290.5 121q238 0 238 -265q0 -154 -120 -537t-120 -517q0 -223 170 -224q104 0 228 125t192 410l111 436q39 145 65 225l62 170
q67 177 127 177q45 0 131 -80q-39 -29 -129 -262.5t-170 -542.5t-80 -466t42 -199t150 -42q-23 -37 -75 -60.5t-99 -23.5q-76 0 -130 66.5t-54 163.5q0 16 4 106q-170 -313 -436 -313q-137 0 -214 82t-77 229.5t123 526t123 554.5t-111 177q-96 0 -152.5 -110.5
t-56.5 -190.5t27 -148q-182 0 -182 158z" />
    <glyph glyph-name="Uacute" unicode="&#xda;" horiz-adv-x="1536" 
d="M1079 1702q0 41 77 138t132 97t64 -71q-174 -168 -224 -232q-23 10 -36 32t-13 36zM68 1098q0 133 122.5 254t290.5 121q238 0 238 -265q0 -154 -120 -537t-120 -517q0 -223 170 -224q104 0 228 125t192 410l111 436q39 145 65 225l62 170q67 177 127 177q45 0 131 -80
q-39 -29 -129 -262.5t-170 -542.5t-80 -466t42 -199t150 -42q-23 -37 -75 -60.5t-99 -23.5q-76 0 -130 66.5t-54 163.5q0 16 4 106q-170 -313 -436 -313q-137 0 -214 82t-77 229.5t123 526t123 554.5t-111 177q-96 0 -152.5 -110.5t-56.5 -190.5t27 -148q-182 0 -182 158z
" />
    <glyph glyph-name="Ucircumflex" unicode="&#xdb;" horiz-adv-x="1536" 
d="M915 1752q0 48 92.5 108.5t144.5 60.5t125 -78t73 -135t-52 -84q-47 80 -147 170q-94 -31 -209 -106q-27 16 -27 64zM68 1098q0 133 122.5 254t290.5 121q238 0 238 -265q0 -154 -120 -537t-120 -517q0 -223 170 -224q104 0 228 125t192 410l111 436q39 145 65 225
l62 170q67 177 127 177q45 0 131 -80q-39 -29 -129 -262.5t-170 -542.5t-80 -466t42 -199t150 -42q-23 -37 -75 -60.5t-99 -23.5q-76 0 -130 66.5t-54 163.5q0 16 4 106q-170 -313 -436 -313q-137 0 -214 82t-77 229.5t123 526t123 554.5t-111 177q-96 0 -152.5 -110.5
t-56.5 -190.5t27 -148q-182 0 -182 158z" />
    <glyph glyph-name="Udieresis" unicode="&#xdc;" horiz-adv-x="1536" 
d="M1266 1645q-92 0 -92 72q0 36 44 65.5t93 29.5q76 0 75 -67q0 -37 -39.5 -68.5t-80.5 -31.5zM969 1686q-92 0 -92 70q0 36 45 66.5t92 30.5q74 0 73 -65q0 -37 -38.5 -69.5t-79.5 -32.5zM68 1098q0 133 122.5 254t290.5 121q238 0 238 -265q0 -154 -120 -537t-120 -517
q0 -223 170 -224q104 0 228 125t192 410l111 436q39 145 65 225l62 170q67 177 127 177q45 0 131 -80q-39 -29 -129 -262.5t-170 -542.5t-80 -466t42 -199t150 -42q-23 -37 -75 -60.5t-99 -23.5q-76 0 -130 66.5t-54 163.5q0 16 4 106q-170 -313 -436 -313q-137 0 -214 82
t-77 229.5t123 526t123 554.5t-111 177q-96 0 -152.5 -110.5t-56.5 -190.5t27 -148q-182 0 -182 158z" />
    <glyph glyph-name="Yacute" unicode="&#xdd;" horiz-adv-x="1445" 
d="M1040 1702q0 41 77 138t132 97t64 -71q-174 -168 -223 -232q-23 10 -36.5 32t-13.5 36zM66 1098q0 133 121.5 255t291.5 122q117 0 178.5 -63.5t61.5 -149.5q1 -86 -65 -319q-66 -234 -66 -343q0 -193 145 -192q131 0 244 140t184 351l90 293q55 181 96.5 232t71.5 51
q61 0 140 -78q-106 -164 -159.5 -324.5t-131.5 -482.5t-106.5 -414t-82 -204.5t-116 -184.5t-160.5 -121t-223 -49t-207 53.5t-82 149.5q0 66 41 116t114 66q-23 -100 -22 -139q0 -174 186 -174q115 0 198 67.5t128 183t71.5 224t48 241t38.5 183.5q-180 -291 -428 -291
q-129 0 -190.5 71.5t-61.5 181.5t65.5 356.5t65.5 334.5q0 147 -111 148q-100 0 -155.5 -105.5t-55.5 -228.5q0 -49 25 -115q-182 0 -182 158z" />
    <glyph glyph-name="Thorn" unicode="&#xde;" horiz-adv-x="1112" 
d="M1006 823q0 143 -101.5 216t-249.5 79q-102 -278 -229 -737q242 31 411 144.5t169 297.5zM100 -68q0 42 27 121q209 651 369 1057q-116 -23 -199.5 -67t-97.5 -44t-46 29t-32 51q240 94 409 111q8 18 34 86.5t61.5 129t97.5 60.5q33 0 65 -36q-59 -119 -104 -240
q201 -27 345.5 -130.5t144.5 -279.5q0 -106 -59.5 -191t-145.5 -134t-240 -94.5t-321 -49.5q-27 -90 -71 -256t-65 -233q-66 0 -119 34t-53 76z" />
    <glyph glyph-name="germandbls" unicode="&#xdf;" horiz-adv-x="964" 
d="M601 1487q109 0 179 -64.5t70 -191.5t-103.5 -253t-244.5 -208q143 -43 223 -164.5t80 -291.5t-105.5 -326t-257.5 -156q-109 0 -153.5 80t-44.5 193t34.5 186.5t102.5 73.5q27 0 80 -11q-43 -23 -74 -110.5t-31 -190.5q0 -152 66 -151q68 0 142.5 142t74.5 292
q0 229 -170 371q-49 39 -49 67.5t62 82.5t103.5 97t82.5 124t41 167q0 158 -117 158t-192.5 -156.5t-114.5 -386.5l-80 -465q-39 -236 -111.5 -417t-181.5 -214q50 63 108 431l52 331q63 385 149 589t178.5 288t201.5 84z" />
    <glyph glyph-name="agrave" unicode="&#xe0;" horiz-adv-x="909" 
d="M432 1143q57 0 141 -94.5t84 -137.5q0 -18 -14 -40.5t-37 -32.5q-100 119 -239 225q2 39 21.5 59.5t43.5 20.5zM111 74q0 -66 49 -66t119 62l63 61q31 31 70 80l170 225q6 10 16 10h4l4 -2q10 33 10 76q0 106 -86 107q-135 0 -277 -200.5t-142 -352.5zM-53 100
q0 102 84 248t222 250t273 104q90 0 150.5 -46t60.5 -117q0 -94 -116 -99q74 -23 73 -61q0 -23 -58 -122t-58 -148q0 -74 59 -74t148 80t173 239l39 -39q-76 -170 -188.5 -273t-226.5 -103q-82 0 -126 54t-44 124q-92 -111 -158 -162t-138 -51t-120.5 47t-48.5 149z" />
    <glyph glyph-name="aacute" unicode="&#xe1;" horiz-adv-x="909" 
d="M561 907q0 41 77 138.5t132 97.5t64 -72q-174 -168 -224 -231q-23 10 -36 31.5t-13 35.5zM111 74q0 -66 49 -66t119 62l63 61q31 31 70 80l170 225q6 10 16 10h4l4 -2q10 33 10 76q0 106 -86 107q-135 0 -277 -200.5t-142 -352.5zM-53 100q0 102 84 248t222 250t273 104
q90 0 150.5 -46t60.5 -117q0 -94 -116 -99q74 -23 73 -61q0 -23 -58 -122t-58 -148q0 -74 59 -74t148 80t173 239l39 -39q-76 -170 -188.5 -273t-226.5 -103q-82 0 -126 54t-44 124q-92 -111 -158 -162t-138 -51t-120.5 47t-48.5 149z" />
    <glyph glyph-name="acircumflex" unicode="&#xe2;" horiz-adv-x="909" 
d="M479 957q0 48 92.5 108.5t144.5 60.5t124.5 -77t72.5 -135t-51 -85q-47 80 -147 170q-94 -31 -209 -106q-27 16 -27 64zM111 74q0 -66 49 -66t119 62l63 61q31 31 70 80l170 225q6 10 16 10h4l4 -2q10 33 10 76q0 106 -86 107q-135 0 -277 -200.5t-142 -352.5zM-53 100
q0 102 84 248t222 250t273 104q90 0 150.5 -46t60.5 -117q0 -94 -116 -99q74 -23 73 -61q0 -23 -58 -122t-58 -148q0 -74 59 -74t148 80t173 239l39 -39q-76 -170 -188.5 -273t-226.5 -103q-82 0 -126 54t-44 124q-92 -111 -158 -162t-138 -51t-120.5 47t-48.5 149z" />
    <glyph glyph-name="atilde" unicode="&#xe3;" horiz-adv-x="909" 
d="M498 965q48 0 175.5 -41t189.5 -41t147 14q-104 -111 -189 -111q-63 0 -197.5 39t-180.5 39t-140 -16q39 45 93 81t102 36zM111 74q0 -66 49 -66t119 62l63 61q31 31 70 80l170 225q6 10 16 10h4l4 -2q10 33 10 76q0 106 -86 107q-135 0 -277 -200.5t-142 -352.5z
M-53 100q0 102 84 248t222 250t273 104q90 0 150.5 -46t60.5 -117q0 -94 -116 -99q74 -23 73 -61q0 -23 -58 -122t-58 -148q0 -74 59 -74t148 80t173 239l39 -39q-76 -170 -188.5 -273t-226.5 -103q-82 0 -126 54t-44 124q-92 -111 -158 -162t-138 -51t-120.5 47t-48.5 149z
" />
    <glyph glyph-name="adieresis" unicode="&#xe4;" horiz-adv-x="909" 
d="M739 923q0 36 44 65.5t94 29.5q76 0 75 -68q0 -37 -40 -68.5t-81 -31.5t-66.5 18.5t-25.5 54.5zM534 891q-92 0 -92 71q0 36 45 66.5t93 30.5q74 0 73 -66q0 -37 -39 -69.5t-80 -32.5zM111 74q0 -66 49 -66t119 62l63 61q31 31 70 80l170 225q6 10 16 10h4l4 -2
q10 33 10 76q0 106 -86 107q-135 0 -277 -200.5t-142 -352.5zM-53 100q0 102 84 248t222 250t273 104q90 0 150.5 -46t60.5 -117q0 -94 -116 -99q74 -23 73 -61q0 -23 -58 -122t-58 -148q0 -74 59 -74t148 80t173 239l39 -39q-76 -170 -188.5 -273t-226.5 -103
q-82 0 -126 54t-44 124q-92 -111 -158 -162t-138 -51t-120.5 47t-48.5 149z" />
    <glyph glyph-name="aring" unicode="&#xe5;" horiz-adv-x="909" 
d="M846 1020q0 53 -72 53q-51 0 -95 -44t-44 -89q5 -57 79 -57q42 0 87 46t45 91zM688 811q-160 -1 -160 129q0 64 76 137.5t169 73.5t135 -33t42 -84q0 -78 -78.5 -150.5t-183.5 -72.5zM111 74q0 -66 49 -66t119 62l63 61q31 31 70 80l170 225q6 10 16 10h4l4 -2
q10 33 10 76q0 106 -86 107q-135 0 -277 -200.5t-142 -352.5zM-53 100q0 102 84 248t222 250t273 104q90 0 150.5 -46t60.5 -117q0 -94 -116 -99q74 -23 73 -61q0 -23 -58 -122t-58 -148q0 -74 59 -74t148 80t173 239l39 -39q-76 -170 -188.5 -273t-226.5 -103
q-82 0 -126 54t-44 124q-92 -111 -158 -162t-138 -51t-120.5 47t-48.5 149z" />
    <glyph glyph-name="ae" unicode="&#xe6;" horiz-adv-x="1138" 
d="M979 616q0 29 -33 29q-90 0 -194.5 -113.5t-151.5 -250.5q141 53 260 143t119 192zM119 80q0 -63 45 -64q94 0 254 199q29 188 194 350q-16 55 -96 55t-178 -96t-158.5 -223t-60.5 -221zM-53 100q0 102 85 248t224 251.5t262 105.5t162 -76q143 109 270 108
q145 0 146 -135q0 -147 -160 -262t-356 -135q-4 -20 -5 -58q8 -150 158 -149q125 0 252 101.5t207 252.5l39 -33q-84 -186 -232.5 -297.5t-308.5 -111.5q-115 0 -185.5 57.5t-84.5 147.5q-172 -211 -301 -211q-74 0 -123 47t-49 149z" />
    <glyph glyph-name="ccedilla" unicode="&#xe7;" horiz-adv-x="681" 
d="M-12 156q0 201 143 368.5t311 167.5q82 0 122 -41t40 -102.5t-29.5 -113.5t-70.5 -52t-66 39q66 45 66 153q0 35 -39 35q-100 0 -210 -163.5t-110 -310.5t146 -146q121 0 247 101.5t191 262.5l41 -37q-96 -244 -307 -364l-76 -121q68 25 114 25t76.5 -27t30.5 -76
q0 -86 -83 -166t-187 -80q-57 0 -96 27t-39 63t65 83q27 -93 79 -93t110.5 61.5t58.5 101.5t-33 40q-27 0 -86 -38t-75.5 -38t-29.5 17.5t-13 29.5t46.5 74t77.5 88q-91 -39 -187 -39t-162 69t-66 202z" />
    <glyph glyph-name="egrave" unicode="&#xe8;" horiz-adv-x="698" 
d="M430 1143q57 0 141 -94.5t84 -137.5q0 -18 -14 -40.5t-37 -32.5q-100 119 -239 225q2 39 21.5 59.5t43.5 20.5zM535 612q0 39 -35 39q-90 0 -196.5 -118.5t-151.5 -251.5q119 14 251 118.5t132 212.5zM125 158q0 -160 158 -160q125 0 255 101.5t210 252.5l40 -33
q-82 -184 -234.5 -296.5t-298.5 -112.5t-218 69.5t-72 178.5q0 186 173 383.5t358 197.5q150 0 149 -137q0 -147 -159.5 -262t-356.5 -135q-4 -20 -4 -47z" />
    <glyph glyph-name="eacute" unicode="&#xe9;" horiz-adv-x="698" 
d="M559 907q0 41 77 138.5t132 97.5t63 -72q-174 -168 -223 -231q-23 10 -36 31.5t-13 35.5zM535 612q0 39 -35 39q-90 0 -196.5 -118.5t-151.5 -251.5q119 14 251 118.5t132 212.5zM125 158q0 -160 158 -160q125 0 255 101.5t210 252.5l40 -33q-82 -184 -234.5 -296.5
t-298.5 -112.5t-218 69.5t-72 178.5q0 186 173 383.5t358 197.5q150 0 149 -137q0 -147 -159.5 -262t-356.5 -135q-4 -20 -4 -47z" />
    <glyph glyph-name="ecircumflex" unicode="&#xea;" horiz-adv-x="698" 
d="M395 957q0 48 92.5 108.5t144.5 60.5t124.5 -77t72.5 -135t-51 -85q-47 80 -147 170q-94 -31 -209 -106q-27 16 -27 64zM535 612q0 39 -35 39q-90 0 -196.5 -118.5t-151.5 -251.5q119 14 251 118.5t132 212.5zM125 158q0 -160 158 -160q125 0 255 101.5t210 252.5l40 -33
q-82 -184 -234.5 -296.5t-298.5 -112.5t-218 69.5t-72 178.5q0 186 173 383.5t358 197.5q150 0 149 -137q0 -147 -159.5 -262t-356.5 -135q-4 -20 -4 -47z" />
    <glyph glyph-name="edieresis" unicode="&#xeb;" horiz-adv-x="698" 
d="M653 943q0 36 44 65.5t94 29.5q76 0 75 -67q0 -37 -40 -69t-81 -32t-66.5 18.5t-25.5 54.5zM448 911q-92 0 -92 71q0 36 45 66.5t93 30.5q74 0 73 -65q0 -37 -39 -70t-80 -33zM535 612q0 39 -35 39q-90 0 -196.5 -118.5t-151.5 -251.5q119 14 251 118.5t132 212.5z
M125 158q0 -160 158 -160q125 0 255 101.5t210 252.5l40 -33q-82 -184 -234.5 -296.5t-298.5 -112.5t-218 69.5t-72 178.5q0 186 173 383.5t358 197.5q150 0 149 -137q0 -147 -159.5 -262t-356.5 -135q-4 -20 -4 -47z" />
    <glyph glyph-name="igrave" unicode="&#xec;" horiz-adv-x="499" 
d="M168 1122q57 0 141 -94t84 -137q0 -18 -14 -41t-37 -33q-101 119 -240 225q2 39 21.5 59.5t44.5 20.5zM284 696q66 0 66 -59q0 -27 -105.5 -199.5t-105.5 -290.5q0 -63 22.5 -85.5t69.5 -22.5q162 0 322 313l31 -33q-72 -180 -182.5 -280t-237.5 -100q-86 0 -133 51
t-47 132t43 215t117 246.5t140 112.5z" />
    <glyph glyph-name="iacute" unicode="&#xed;" horiz-adv-x="499" 
d="M377 887q0 41 76.5 138t134.5 97q53 0 61 -71q-174 -168 -223 -232q-23 10 -36 32t-13 36zM284 696q66 0 66 -59q0 -27 -105.5 -199.5t-105.5 -290.5q0 -63 22.5 -85.5t69.5 -22.5q162 0 322 313l31 -33q-72 -180 -182.5 -280t-237.5 -100q-86 0 -133 51t-47 132t43 215
t117 246.5t140 112.5z" />
    <glyph glyph-name="icircumflex" unicode="&#xee;" horiz-adv-x="499" 
d="M150 936q0 49 92 109.5t144 60.5t125 -78t73 -135t-52 -84q-47 80 -147 170q-94 -31 -209 -107q-26 15 -26 64zM284 696q66 0 66 -59q0 -27 -105.5 -199.5t-105.5 -290.5q0 -63 22.5 -85.5t69.5 -22.5q162 0 322 313l31 -33q-72 -180 -182.5 -280t-237.5 -100
q-86 0 -133 51t-47 132t43 215t117 246.5t140 112.5z" />
    <glyph glyph-name="idieresis" unicode="&#xef;" horiz-adv-x="499" 
d="M451 884q0 36 44 65.5t93 29.5q76 0 76 -68q0 -35 -40 -67.5t-81 -32.5t-66.5 18.5t-25.5 54.5zM246 852q-92 0 -92 71q0 36 45 66.5t92 30.5q74 0 74 -66q0 -37 -39 -69.5t-80 -32.5zM284 696q66 0 66 -59q0 -27 -105.5 -199.5t-105.5 -290.5q0 -63 22.5 -85.5
t69.5 -22.5q162 0 322 313l31 -33q-72 -180 -182.5 -280t-237.5 -100q-86 0 -133 51t-47 132t43 215t117 246.5t140 112.5z" />
    <glyph glyph-name="eth" unicode="&#xf0;" horiz-adv-x="999" 
d="M-39 134q0 100 84 249t218 259t259 110q59 0 92 -25t33 -52t-16 -61q-37 47 -101 48q-96 0 -193 -98.5t-151.5 -219.5t-54.5 -205t64 -84q82 0 211 142.5t230 365.5t101 416q0 37 -8 88q-129 -20 -254 -53q0 74 59.5 104.5t170.5 44.5q-49 141 -195 254q43 55 104 56
q92 0 162 -84t107 -207q150 14 217 35q-45 -74 -83 -95.5t-114 -31.5q8 -61 8 -89q0 -135 -110.5 -448t-110.5 -420q0 -76 49 -76q68 0 162 87t156 221l39 -25q-74 -174 -191 -283.5t-233 -109.5q-150 0 -150 180q0 49 19 152q-100 -145 -215 -242.5t-205 -97.5
q-63 0 -111.5 47.5t-48.5 147.5z" />
    <glyph glyph-name="ntilde" unicode="&#xf1;" horiz-adv-x="968" 
d="M424 874q49 0 176.5 -40.5t189.5 -40.5t146 14q-104 -111 -178 -111t-208 39t-180 39t-141 -16q39 45 92.5 80.5t102.5 35.5zM173 563q67 0 67 -61q0 -55 -35 -183q209 279 387 279q82 0 127 -57t45 -129t-40 -171.5t-40 -149.5t49 -50q68 0 146.5 93t142.5 220l35 -28
q-162 -367 -367 -367q-78 0 -121 39t-43 91t29 144.5t29 137.5q0 80 -72 80q-115 0 -219.5 -136.5t-140.5 -191.5l-97 -154q-88 1 -133 60q0 2 69.5 171t69.5 314q45 49 112 49z" />
    <glyph glyph-name="ograve" unicode="&#xf2;" horiz-adv-x="761" 
d="M530 1135q57 0 141.5 -94.5t84.5 -137.5q0 -18 -14.5 -40.5t-36.5 -33.5q-101 120 -240 226q2 39 21.5 59.5t43.5 20.5zM399 468q0 -64 16.5 -124.5t43.5 -93.5q119 170 119 305q0 90 -58 90q-43 0 -82 -56.5t-39 -120.5zM139 130q0 -91 72 -91t195 145
q-117 102 -123 301q-39 -20 -91.5 -142t-52.5 -213zM-25 127q0 135 78 264t168 129q25 0 64 -16q12 94 66.5 155.5t144.5 61.5t129 -46t39 -120q0 -141 -136 -348q25 -12 70 -12t110.5 37.5t100.5 115.5l37 -26q-43 -98 -116 -149.5t-135 -51.5t-118 18q-170 -205 -342 -205
q-86 0 -123 55.5t-37 137.5z" />
    <glyph glyph-name="oacute" unicode="&#xf3;" horiz-adv-x="761" 
d="M678 907q0 41 76.5 138.5t134.5 97.5q53 0 61 -72q-174 -168 -223 -231q-23 10 -36 31.5t-13 35.5zM399 468q0 -64 16.5 -124.5t43.5 -93.5q119 170 119 305q0 90 -58 90q-43 0 -82 -56.5t-39 -120.5zM139 130q0 -91 72 -91t195 145q-117 102 -123 301
q-39 -20 -91.5 -142t-52.5 -213zM-25 127q0 135 78 264t168 129q25 0 64 -16q12 94 66.5 155.5t144.5 61.5t129 -46t39 -120q0 -141 -136 -348q25 -12 70 -12t110.5 37.5t100.5 115.5l37 -26q-43 -98 -116 -149.5t-135 -51.5t-118 18q-170 -205 -342 -205q-86 0 -123 55.5
t-37 137.5z" />
    <glyph glyph-name="ocircumflex" unicode="&#xf4;" horiz-adv-x="761" 
d="M403 957q0 48 92.5 108.5t144.5 60.5t125 -77t73 -135t-52 -85q-47 80 -147 170q-94 -31 -209 -106q-27 16 -27 64zM399 468q0 -64 16.5 -124.5t43.5 -93.5q119 170 119 305q0 90 -58 90q-43 0 -82 -56.5t-39 -120.5zM139 130q0 -91 72 -91t195 145q-117 102 -123 301
q-39 -20 -91.5 -142t-52.5 -213zM-25 127q0 135 78 264t168 129q25 0 64 -16q12 94 66.5 155.5t144.5 61.5t129 -46t39 -120q0 -141 -136 -348q25 -12 70 -12t110.5 37.5t100.5 115.5l37 -26q-43 -98 -116 -149.5t-135 -51.5t-118 18q-170 -205 -342 -205q-86 0 -123 55.5
t-37 137.5z" />
    <glyph glyph-name="otilde" unicode="&#xf5;" horiz-adv-x="761" 
d="M399 468q0 -64 16.5 -124.5t43.5 -93.5q119 170 119 305q0 90 -58 90q-43 0 -82 -56.5t-39 -120.5zM483 965q49 0 176 -41t189 -41t147 14q-103 -111 -177 -111t-208.5 39t-180.5 39t-140 -16q39 45 92 81t102 36zM139 130q0 -91 72 -91t195 145q-117 102 -123 301
q-39 -20 -91.5 -142t-52.5 -213zM-25 127q0 135 78 264t168 129q25 0 64 -16q12 94 66.5 155.5t144.5 61.5t129 -46t39 -120q0 -141 -136 -348q25 -12 70 -12t110.5 37.5t100.5 115.5l37 -26q-43 -98 -116 -149.5t-135 -51.5t-118 18q-170 -205 -342 -205q-86 0 -123 55.5
t-37 137.5z" />
    <glyph glyph-name="odieresis" unicode="&#xf6;" horiz-adv-x="761" 
d="M684 923q0 36 44 65.5t93 29.5q76 0 76 -68q0 -37 -40 -68.5t-81 -31.5t-66.5 18.5t-25.5 54.5zM399 468q0 -64 16.5 -124.5t43.5 -93.5q119 170 119 305q0 90 -58 90q-43 0 -82 -56.5t-39 -120.5zM479 891q-92 0 -92 71q0 36 45 66.5t92 30.5q74 0 74 -66
q0 -37 -39 -69.5t-80 -32.5zM139 130q0 -91 72 -91t195 145q-117 102 -123 301q-39 -20 -91.5 -142t-52.5 -213zM-25 127q0 135 78 264t168 129q25 0 64 -16q12 94 66.5 155.5t144.5 61.5t129 -46t39 -120q0 -141 -136 -348q25 -12 70 -12t110.5 37.5t100.5 115.5l37 -26
q-43 -98 -116 -149.5t-135 -51.5t-118 18q-170 -205 -342 -205q-86 0 -123 55.5t-37 137.5z" />
    <glyph glyph-name="divide" unicode="&#xf7;" horiz-adv-x="1005" 
d="M503 479q-89 0 -89 70q0 35 43 64.5t90 29.5q70 0 69 -63q0 -35 -36.5 -68t-76.5 -33zM383 -31q-88 0 -88 70q0 35 43 64.5t90 29.5q70 0 70 -63q0 -35 -38 -68t-77 -33zM456 367q168 0 421 -21q-70 -47 -156.5 -65.5t-280.5 -18.5t-387 -24q23 82 129 105.5t274 23.5z
" />
    <glyph glyph-name="oslash" unicode="&#xf8;" horiz-adv-x="761" 
d="M420 328q12 -49 39 -78q104 147 116 278zM520 645q-43 0 -82 -58.5t-39 -140.5l146 193q-8 6 -25 6zM209 39q74 0 197 145q-37 33 -54 60q-131 -166 -145 -185l-17 -18q6 -2 19 -2zM139 127q125 147 168 205q-20 61 -24 153q-39 -20 -91.5 -143t-52.5 -215zM-25 127
q0 135 78 264t168 129q25 0 64 -16q12 94 66.5 155.5t152.5 61.5q49 0 86 -21l49 66q20 31 90 31q25 0 49 -6q-23 -33 -125 -166q10 -35 11 -70q0 -141 -136 -348q35 -21 85 -21t104.5 42t91.5 120l37 -26q-43 -98 -116 -149.5t-135 -51.5t-118 18q-170 -205 -342 -205
q-35 0 -53 9q-72 -47 -135 -47q-21 0 -39 6q45 27 104 88q-37 51 -37 137z" />
    <glyph glyph-name="ugrave" unicode="&#xf9;" horiz-adv-x="903" 
d="M307 1071q57 0 141 -94t84 -137q0 -18 -14 -41t-37 -33q-100 119 -239 225q2 39 21.5 59.5t43.5 20.5zM-2 168q0 102 67.5 272t118.5 170q43 0 97 -53q-43 -63 -89.5 -182t-46.5 -205q0 -123 62 -123q53 0 131 101.5t132 206t99 204.5q123 -20 123 -70q0 -4 -64.5 -148
t-64.5 -247q0 -72 55 -71q68 0 167.5 91t170.5 236l31 -24q-70 -166 -192.5 -276.5t-237.5 -110.5q-133 0 -137 95t-4 134q-45 -70 -78 -112t-83.5 -79.5t-108.5 -37.5t-103 63.5t-45 165.5z" />
    <glyph glyph-name="uacute" unicode="&#xfa;" horiz-adv-x="903" 
d="M442 772q0 41 77 138.5t132 97.5t64 -72q-174 -168 -223 -231q-23 10 -36.5 31.5t-13.5 35.5zM-2 168q0 102 67.5 272t118.5 170q43 0 97 -53q-43 -63 -89.5 -182t-46.5 -205q0 -123 62 -123q53 0 131 101.5t132 206t99 204.5q123 -20 123 -70q0 -4 -64.5 -148
t-64.5 -247q0 -72 55 -71q68 0 167.5 91t170.5 236l31 -24q-70 -166 -192.5 -276.5t-237.5 -110.5q-133 0 -137 95t-4 134q-45 -70 -78 -112t-83.5 -79.5t-108.5 -37.5t-103 63.5t-45 165.5z" />
    <glyph glyph-name="ucircumflex" unicode="&#xfb;" horiz-adv-x="903" 
d="M297 855q0 48 92.5 108.5t144.5 60.5t124.5 -78t72.5 -135t-51 -84q-47 80 -148 170q-92 -31 -208 -106q-27 16 -27 64zM-2 168q0 102 67.5 272t118.5 170q43 0 97 -53q-43 -63 -89.5 -182t-46.5 -205q0 -123 62 -123q53 0 131 101.5t132 206t99 204.5q123 -20 123 -70
q0 -4 -64.5 -148t-64.5 -247q0 -72 55 -71q68 0 167.5 91t170.5 236l31 -24q-70 -166 -192.5 -276.5t-237.5 -110.5q-133 0 -137 95t-4 134q-45 -70 -78 -112t-83.5 -79.5t-108.5 -37.5t-103 63.5t-45 165.5z" />
    <glyph glyph-name="udieresis" unicode="&#xfc;" horiz-adv-x="903" 
d="M664 750q-92 0 -93 72q0 36 44 66t94 30q76 0 75 -68q0 -35 -39 -67.5t-81 -32.5zM366 791q-92 0 -92 70q0 36 45.5 66.5t92.5 30.5q74 0 73 -65q0 -37 -38.5 -69.5t-80.5 -32.5zM-2 168q0 102 67.5 272t118.5 170q43 0 97 -53q-43 -63 -89.5 -182t-46.5 -205
q0 -123 62 -123q53 0 131 101.5t132 206t99 204.5q123 -20 123 -70q0 -4 -64.5 -148t-64.5 -247q0 -72 55 -71q68 0 167.5 91t170.5 236l31 -24q-70 -166 -192.5 -276.5t-237.5 -110.5q-133 0 -137 95t-4 134q-45 -70 -78 -112t-83.5 -79.5t-108.5 -37.5t-103 63.5
t-45 165.5z" />
    <glyph glyph-name="yacute" unicode="&#xfd;" horiz-adv-x="819" 
d="M485 815q0 41 77 138.5t132 97.5t64 -72q-174 -168 -223 -231q-23 10 -36.5 31.5t-13.5 35.5zM39 -440q0 -57 39 -58q43 0 112.5 87t137.5 241q-289 -145 -289 -270zM-41 -448q0 58 28.5 104.5t61.5 79.5t101.5 72.5t105.5 56.5l111 55q35 88 98 320q-158 -223 -295 -224
q-68 0 -121 41t-53 141t69.5 267.5t118.5 167.5q20 0 61.5 -21.5t49.5 -46.5q-39 -53 -85 -178t-46 -199t59 -73q115 0 271 247q2 4 9 46.5t15 71t37 56t70 27.5q8 0 65 -8q-2 -51 -48 -223t-107 -336q233 96 329 346l35 -29q-78 -256 -391 -395q-207 -492 -410 -491
q-57 0 -98 33.5t-41 91.5z" />
    <glyph glyph-name="thorn" unicode="&#xfe;" horiz-adv-x="849" 
d="M192 1071q94 1 93 -109q0 -110 -66 -499q152 238 336 237q100 0 166.5 -67.5t66.5 -177.5q0 -176 -147 -347t-356 -171q-63 0 -102.5 16t-39.5 38t68 21q160 0 287 134.5t127 282.5t-113 149q-96 0 -193.5 -105.5t-140.5 -208.5q-98 -416 -167.5 -626.5t-121.5 -210.5
q-25 0 -51 39t-26 55q119 393 188.5 708.5t118.5 794.5q4 35 17.5 41t55.5 6z" />
    <glyph glyph-name="ydieresis" unicode="&#xff;" horiz-adv-x="819" 
d="M580 849q0 36 44 65.5t93 29.5q76 0 76 -67q0 -37 -40 -69t-81 -32t-66.5 18.5t-25.5 54.5zM375 817q-92 0 -92 71q0 36 45 66.5t92 30.5q74 0 74 -65q0 -37 -39 -70t-80 -33zM39 -440q0 -57 39 -58q43 0 112.5 87t137.5 241q-289 -145 -289 -270zM-41 -448
q0 58 28.5 104.5t61.5 79.5t101.5 72.5t105.5 56.5l111 55q35 88 98 320q-158 -223 -295 -224q-68 0 -121 41t-53 141t69.5 267.5t118.5 167.5q20 0 61.5 -21.5t49.5 -46.5q-39 -53 -85 -178t-46 -199t59 -73q115 0 271 247q2 4 9 46.5t15 71t37 56t70 27.5q8 0 65 -8
q-2 -51 -48 -223t-107 -336q233 96 329 346l35 -29q-78 -256 -391 -395q-207 -492 -410 -491q-57 0 -98 33.5t-41 91.5z" />
    <glyph glyph-name="dotlessi" unicode="&#x131;" horiz-adv-x="499" 
d="M284 696q66 0 66 -59q0 -27 -105.5 -199.5t-105.5 -290.5q0 -63 22.5 -85.5t69.5 -22.5q162 0 322 313l31 -33q-72 -180 -182.5 -280t-237.5 -100q-86 0 -133 51t-47 132t43 215t117 246.5t140 112.5z" />
    <glyph glyph-name="OE" unicode="&#x152;" horiz-adv-x="1736" 
d="M66 338q0 256 129 521t334.5 439.5t410.5 174.5q96 0 135 -54q-186 0 -374.5 -173t-305 -429t-116.5 -493q0 -174 70.5 -289t220.5 -115t287.5 176t213.5 427t76 498t-60 247q-74 0 -235 -410q-127 29 -127 115q0 113 137.5 255t245.5 148t256 6q311 0 434 -39
q-33 -96 -379 -96q-18 0 -68.5 2t-84.5 2q20 -72 20 -213t-16 -276q293 -4 436 -23q-47 -127 -313 -127q-66 0 -148 4q-63 -287 -122.5 -438t-178.5 -237q98 -2 311 -2l254 8q37 0 62 -6q-23 -59 -222.5 -90t-433.5 -31l-368 2q-219 0 -350 130t-131 386z" />
    <glyph glyph-name="oe" unicode="&#x153;" horiz-adv-x="1132" 
d="M975 612q0 33 -35 33q-88 0 -193.5 -115.5t-150.5 -248.5q139 51 259 143t120 188zM377 427q0 -69 63 -116q59 152 166 256q-25 59 -82 59.5t-102 -65t-45 -134.5zM109 77q0 -71 43 -71q53 0 151 86t115 135q-139 51 -144 228q-70 -88 -117.5 -197.5t-47.5 -180.5z
M-57 100q0 102 85 248t223 251.5t269 105.5q100 0 142 -80q150 113 290 113t140 -142q0 -141 -160 -256t-357 -135q-4 -20 -4 -49q0 -158 152 -158q125 0 255 102.5t210 251.5l35 -30q-84 -184 -233.5 -298t-313.5 -114q-117 0 -181.5 56.5t-78.5 142.5q-168 -205 -301 -205
q-74 0 -123 47t-49 149z" />
    <glyph glyph-name="Scaron" unicode="&#x160;" horiz-adv-x="1161" 
d="M733 1848q0 62 55 89q49 -94 158 -188q135 47 209 111q43 -14 43 -50q0 -59 -98.5 -125.5t-153.5 -66.5t-134 84t-79 146zM8 184q0 165 94.5 231t221.5 66q-133 -139 -134 -284q0 -111 85 -189t236 -78t265.5 74t114.5 203q0 92 -68.5 165.5t-165.5 125.5l-194 106
q-96 53 -166 136t-70 194t71 234.5t213 215t312 91.5q256 0 256 -215q0 -104 -50 -232.5t-114 -226.5q-90 18 -90 104q0 57 58.5 208t58.5 198t-23.5 66.5t-84.5 19.5q-180 0 -314.5 -143.5t-134.5 -278.5q0 -80 67.5 -144.5t164 -112.5t191.5 -103.5t162.5 -144.5
t67.5 -206q0 -201 -171 -321.5t-378 -120.5t-344 98.5t-137 263.5z" />
    <glyph glyph-name="scaron" unicode="&#x161;" horiz-adv-x="718" 
d="M248 1096q0 62 55 88q49 -94 158 -189q135 47 209 111q43 -14 43 -49q0 -59 -98.5 -126t-153.5 -67t-134 85t-79 147zM379 189q0 44 -8.5 96.5t-14.5 82t-24.5 100.5t-22.5 89q-100 -174 -178 -256q35 -59 98.5 -107.5t143.5 -66.5q6 18 6 62zM72 160q0 -62 41 -118
t121 -56t122 80q-80 16 -147.5 62t-108.5 99q-28 -5 -28 -67zM543 207q0 -35 -8 -84q139 35 241 231l25 -18q-84 -244 -285 -275q-33 -82 -106.5 -123.5t-169.5 -41.5q-143 0 -212 82.5t-69 202.5t65.5 146.5t69.5 30.5q131 135 199 281v20q0 150 92 150q45 0 49 -41
l-10 -74q0 -55 59.5 -222t59.5 -265z" />
    <glyph glyph-name="Ydieresis" unicode="&#x178;" horiz-adv-x="1445" 
d="M1206 1645q-92 0 -92 72q0 36 44 65.5t93 29.5q76 0 76 -67q0 -37 -40 -68.5t-81 -31.5zM909 1686q-92 0 -92 70q0 36 45 66.5t92 30.5q74 0 74 -65q0 -37 -39 -69.5t-80 -32.5zM66 1098q0 133 121.5 255t291.5 122q117 0 178.5 -63.5t61.5 -149.5q1 -86 -65 -319
q-66 -234 -66 -343q0 -193 145 -192q131 0 244 140t184 351l90 293q55 181 96.5 232t71.5 51q61 0 140 -78q-106 -164 -159.5 -324.5t-131.5 -482.5t-106.5 -414t-82 -204.5t-116 -184.5t-160.5 -121t-223 -49t-207 53.5t-82 149.5q0 66 41 116t114 66q-23 -100 -22 -139
q0 -174 186 -174q115 0 198 67.5t128 183t71.5 224t48 241t38.5 183.5q-180 -291 -428 -291q-129 0 -190.5 71.5t-61.5 181.5t65.5 356.5t65.5 334.5q0 147 -111 148q-100 0 -155.5 -105.5t-55.5 -228.5q0 -49 25 -115q-182 0 -182 158z" />
    <glyph glyph-name="Zcaron" unicode="&#x17d;" horiz-adv-x="1392" 
d="M911 1848q0 62 56 89q49 -94 157 -188q135 47 209 111q43 -14 43 -50q0 -59 -98 -125.5t-153.5 -66.5t-134.5 84t-79 146zM51 55q0 -35 38 -66.5t90 -31.5t171 90q-158 61 -228 61t-71 -53zM1004 -178q-179 0 -535 178q-154 -111 -260 -111t-165.5 56.5t-59.5 114.5
q0 124 174 124q98 0 288 -51q174 174 385 510q-129 -6 -337 -35q8 174 323 174q33 0 94 -4q158 268 230 451q-70 20 -164 55q-287 104 -414 105q-225 0 -225 -275q8 -70 18 -88q-152 27 -152 164t108 211t290 74t422 -64.5t325 -64.5t119 8q-72 -72 -129 -101
q-98 -229 -254 -489q205 -16 234 -16q-49 -66 -100.5 -81.5t-202.5 -19.5q-221 -348 -432 -551q346 -104 464 -104t209 45q-45 -119 -103 -167t-150 -48z" />
    <glyph glyph-name="zcaron" unicode="&#x17e;" horiz-adv-x="677" 
d="M262 1054q0 62 55 89q49 -94 158 -189q135 47 209 111q43 -14 43 -49q0 -59 -98.5 -126t-153.5 -67t-134 84.5t-79 146.5zM-68 -440q0 -55 56 -56q92 0 224 117t157 285q-45 -29 -121 -74l-123 -70q-129 -77 -161 -122t-32 -80zM-139 -455q0 105 84 170.5t139 98.5
l143 84q90 53 146 90q-6 133 -172 252q113 31 180.5 116.5t67.5 175.5t-84 91q-122 0 -254 -258l-56 -113l-39 33q78 213 163 325.5t216 112.5q88 0 145.5 -48t57.5 -139t-65.5 -177.5t-165.5 -137.5q88 -70 133 -168q166 127 227 287l27 -33q-61 -180 -234 -307
q8 -37 8 -68q0 -184 -156.5 -344.5t-355.5 -160.5q-155 -1 -155 118z" />
    <glyph glyph-name="florin" unicode="&#x192;" horiz-adv-x="1099" 
d="M1034 1270q0 41 -35 41q-72 0 -155.5 -150t-159.5 -416q141 123 245.5 283t104.5 242zM94 -461q-121 0 -196.5 59.5t-75.5 153.5q0 125 160 176q-23 -70 -23 -136t41 -117.5t94 -51.5t104 38t102.5 166.5t107.5 356.5l45 187q25 109 47 180q-14 -2 -140 -21
q14 131 170 150q88 345 204.5 570t324.5 225q47 0 72.5 -21.5t25.5 -83.5q0 -147 -132 -339.5t-318 -346.5l243 -14q70 0 125 16q-92 -131 -182 -131l-262 4q-146 -634 -233 -799.5t-160.5 -193t-143.5 -27.5z" />
    <glyph glyph-name="circumflex" unicode="&#x2c6;" horiz-adv-x="430" 
d="M-2 957q0 48 92 108.5t144 60.5t125 -77t73 -135t-51 -85q-47 80 -148 170q-92 -31 -208 -106q-27 16 -27 64z" />
    <glyph glyph-name="caron" unicode="&#x2c7;" horiz-adv-x="430" 
d="M-27 1054q0 62 56 89q49 -94 157 -189q135 47 209 111q43 -14 43 -49q0 -59 -98 -126t-153.5 -67t-134.5 84.5t-79 146.5z" />
    <glyph glyph-name="ring" unicode="&#x2da;" horiz-adv-x="911" 
d="M445 883q42 0 87.5 46t45.5 91q0 53 -72 53q-51 0 -95 -44t-44 -89q5 -57 78 -57zM420 811q-160 -1 -160 129q0 64 76 137.5t169 73.5t135 -33t42 -84q0 -78 -79 -150.5t-183 -72.5z" />
    <glyph glyph-name="tilde" unicode="&#x2dc;" horiz-adv-x="581" 
d="M158 965q48 0 175.5 -41t189.5 -41t147 14q-104 -111 -189 -111q-63 0 -197 39t-180 39t-141 -16q39 45 93 81t102 36z" />
    <glyph glyph-name="endash" unicode="&#x2013;" horiz-adv-x="1546" 
d="M589 408q251 0 454.5 -18.5t304.5 -20.5q-188 -123 -352 -123t-297 8t-195 8t-110 -1t-88 -6t-58.5 -8t-64.5 -14.5t-81 -17.5q16 117 126 155t361 38z" />
    <glyph glyph-name="emdash" unicode="&#x2014;" horiz-adv-x="1878" 
d="M731 408q264 0 563 -18.5t387 -20.5q-195 -127 -353 -127t-402 10t-409 10t-388 -47q16 113 177 153t425 40z" />
    <glyph glyph-name="quoteleft" unicode="&#x2018;" horiz-adv-x="374" 
d="M301 1411q0 27 24.5 49.5t53.5 22.5q10 -35 76.5 -113t66.5 -118t-69 -78q-14 23 -58.5 78t-69 93.5t-24.5 65.5z" />
    <glyph glyph-name="quoteright" unicode="&#x2019;" horiz-adv-x="335" 
d="M293 1248q0 40 66.5 118t76.5 113q29 0 53.5 -22.5t24.5 -49.5t-24.5 -65.5t-68.5 -94t-59 -78.5q-69 39 -69 79z" />
    <glyph glyph-name="quotesinglbase" unicode="&#x201a;" horiz-adv-x="442" 
d="M10 -86q0 62 41 134.5t88 72.5q27 0 46.5 -20.5t19.5 -47.5q-63 -71 -99 -149t-40 -84q-56 32 -56 94z" />
    <glyph glyph-name="quotedblleft" unicode="&#x201c;" horiz-adv-x="628" 
d="M555 1411q0 27 24.5 49.5t53.5 22.5q10 -35 76.5 -113t66.5 -118t-69 -78q-14 23 -58.5 78t-69 93.5t-24.5 65.5zM301 1411q0 27 24.5 49.5t53.5 22.5q10 -35 76.5 -113t66.5 -118t-69 -78q-14 23 -58.5 78t-69 93.5t-24.5 65.5z" />
    <glyph glyph-name="quotedblright" unicode="&#x201d;" horiz-adv-x="593" 
d="M549 1253q0 39 66.5 117t76.5 113q29 0 53.5 -22.5t24.5 -49.5t-24.5 -65.5t-68.5 -94t-59 -77.5q-69 40 -69 79zM295 1253q0 39 66.5 117t76.5 113q29 0 53.5 -22.5t24.5 -49.5t-24.5 -65.5t-68.5 -94t-58 -77.5q-70 40 -70 79z" />
    <glyph glyph-name="quotedblbase" unicode="&#x201e;" horiz-adv-x="667" 
d="M236 -86q0 62 40.5 134.5t88.5 72.5q27 0 46 -20.5t19 -47.5q-38 -43 -65 -89t-43.5 -84.5t-30.5 -59.5q-55 32 -55 94zM10 -86q0 62 41 134.5t88 72.5q27 0 46.5 -20.5t19.5 -47.5q-63 -71 -99 -149t-40 -84q-56 32 -56 94z" />
    <glyph glyph-name="dagger" unicode="&#x2020;" horiz-adv-x="829" 
d="M684 1200q18 0 35.5 -18.5t17.5 -42.5q0 -61 -139 -383q188 -18 246 -19q-31 -43 -61.5 -65.5t-48.5 -25.5t-78 -3t-111 -2q-213 -477 -348 -696l-25 8q4 134 50 268.5t89 251.5l60 160q-111 -11 -211 -29q2 63 53 114.5t137 51.5l74 -2q164 432 260 432z" />
    <glyph glyph-name="daggerdbl" unicode="&#x2021;" horiz-adv-x="919" 
d="M735 1237q18 0 34.5 -18.5t16.5 -42.5q0 -63 -116 -332q184 -33 272 -33q-66 -94 -151 -94l-177 -2l-41 -84q41 -4 144.5 -19.5t179.5 -17.5q-68 -94 -154 -94l-229 -2q-176 -369 -291 -553q0 98 32 217t103 334q-110 -4 -249 -29q6 168 301 172l30 76q-94 -2 -198 -17
l-88 -12q8 172 340 172q152 379 241 379z" />
    <glyph glyph-name="bullet" unicode="&#x2022;" horiz-adv-x="557" 
d="M125 328q0 45 43 94t95 49t86 -31.5t34 -75.5t-52.5 -88.5t-100.5 -44.5t-76.5 26t-28.5 71z" />
    <glyph glyph-name="ellipsis" unicode="&#x2026;" horiz-adv-x="1124" 
d="M686 59q0 33 44 70t85 37q68 0 68 -64q0 -33 -30 -77.5t-76 -44.5t-68.5 23t-22.5 56zM362 59q0 33 44.5 70t85.5 37q68 0 67 -64q0 -33 -29.5 -77.5t-75.5 -44.5t-69 23t-23 56zM57 59q0 33 44 70t85 37q68 0 68 -64q0 -33 -30 -77.5t-76 -44.5t-68.5 23t-22.5 56z" />
    <glyph glyph-name="perthousand" unicode="&#x2030;" horiz-adv-x="2107" 
d="M1665 219q0 -115 59 -115q68 0 120 119t52 235t-59 115q-78 0 -125 -119.5t-47 -234.5zM1522 229q0 156 88 300.5t225 144.5q88 0 142.5 -61.5t54.5 -157.5t-37 -198.5t-113 -180.5t-169 -78t-142 66.5t-49 164.5zM1075 219q0 -115 60 -115q68 0 120 119t52 235t-60 115
q-78 0 -125 -119.5t-47 -234.5zM932 229q0 156 88 300.5t225 144.5q88 0 142.5 -61.5t54.5 -157.5t-37 -198.5t-112 -180.5t-169 -78t-143 66.5t-49 164.5zM371 918q0 -117 59 -117q68 0 119 119.5t51 234.5t-57 115q-76 0 -124 -117.5t-48 -234.5zM225 928q0 154 89 299
t225 145q88 0 143 -61.5t55 -161.5q0 -150 -92 -302.5t-227 -152.5q-92 0 -142.5 68t-50.5 166zM182 -178q150 145 476.5 704t437.5 848q12 33 73.5 67t114.5 34q-25 -100 -277.5 -581.5t-382.5 -681.5t-230.5 -295t-211.5 -95z" />
    <glyph glyph-name="guilsinglleft" unicode="&#x2039;" horiz-adv-x="663" 
d="M399 84q-76 0 -202 87t-146 153q104 41 218 140t184 193q29 -35 28 -69q0 -121 -325 -287q123 -88 333 -164q-49 -53 -90 -53z" />
    <glyph glyph-name="guilsinglright" unicode="&#x203a;" horiz-adv-x="692" 
d="M145 584q0 37 29 73q70 -94 183.5 -193t217.5 -140q-20 -66 -146 -153t-202 -87q-41 0 -90 53q211 76 334 164q-326 166 -326 283z" />
    <glyph glyph-name="uni2074" unicode="&#x2074;" horiz-adv-x="651" 
d="M352 1053l144 -2q23 123 36 168l-57 -52q-35 -35 -70 -64.5t-53 -49.5zM631 1047q6 0 108 16q-80 -106 -145 -107q-35 -252 -35 -321q-129 6 -129 72q0 41 43 251q-157 14 -289 -20q0 57 25 78q344 289 446 459q41 -4 43 -43q0 -8 -26.5 -103t-61.5 -282h21z" />
    <glyph glyph-name="Euro" unicode="&#x20ac;" horiz-adv-x="1492" 
d="M1157 1473q213 0 213 -189q0 -129 -82 -285.5t-170 -156.5q-51 0 -84 63q78 86 150.5 204t72.5 195.5t-92 77.5q-162 0 -339 -213t-271 -493l152 -14q133 -14 217 -17q-49 -66 -111.5 -80t-296.5 -18l-14 -70q55 -4 177 -17.5t206 -15.5q-49 -66 -110.5 -79t-289.5 -17
q0 -312 89.5 -370t173.5 -58q166 0 342 131t260 307l55 -34q-115 -215 -304.5 -358.5t-402.5 -143.5q-308 0 -361.5 203.5t-55.5 310.5q-183 -17 -220 -23q2 147 234 162l10 68q-96 -4 -207 -27q0 141 242 162q104 322 341 558.5t476 236.5z" />
    <glyph glyph-name="trademark" unicode="&#x2122;" horiz-adv-x="1189" 
d="M879 1466q108 0 108 -188q0 -96 -8 -195q27 45 75 152.5t86 164t79 56.5q20 0 57 -22q-102 -260 -102 -498q0 -84 18 -133q-74 0 -98.5 23.5t-24.5 101.5t37 256q-29 -59 -69 -153.5t-61.5 -128.5t-47.5 -34q-49 0 -49 121q0 23 4 119t4 141q-125 -289 -173 -367.5
t-114 -78.5l127 272q94 201 141 311q-156 9 -260 -4q-8 -25 -79.5 -216.5t-71.5 -305.5q0 -35 8 -57q-123 0 -123 69q0 45 57.5 209t120.5 299q-41 0 -217 -12q2 61 106.5 79.5t307.5 18.5h162z" />
    <glyph glyph-name="uniE000" unicode="&#xe000;" horiz-adv-x="675" 
d="M0 676h676v-676h-676v676z" />
    <glyph glyph-name="NULL" horiz-adv-x="0" 
 />
    <glyph glyph-name="F.salt" horiz-adv-x="1009" 
d="M125 -2q0 82 45 219l43 125q16 47 55 150l56 145q-72 -6 -230 -31q2 78 83 124t202 50q135 350 229 543q-180 -8 -356 -39q31 190 448 191q215 0 594 -50q-100 -96 -237 -96l-318 -2q-84 -207 -186 -551q41 -4 153 -16t224 -12q-49 -66 -114.5 -81.5t-301.5 -19.5
q-184 -641 -184 -825q-205 14 -205 176z" />
    <glyph glyph-name="M.salt" horiz-adv-x="2037" 
d="M-184 -60q0 58 37 103q78 -111 200 -111q184 0 365 258q141 203 272 493t131 464q0 111 -54 185.5t-130 74.5t-118 -83t-42 -178t49 -173q-188 59 -188 217q0 106 83 194.5t220 88.5q195 0 293 -198t98 -573q0 -174 -14 -337q98 186 243.5 408t310.5 410.5t251 188.5
q31 0 53 -22.5t29 -55.5q-160 -139 -316.5 -506.5t-156.5 -650.5q0 -195 110 -194q98 0 221 113.5t203 301.5l35 -28q-86 -207 -220.5 -339t-250.5 -132t-193 88.5t-77 236.5t55 350.5t131 372.5q-262 -370 -330.5 -525t-138.5 -339q-4 -14 -26.5 -44t-29.5 -30t-23.5 8.5
t-35 36.5t-18.5 52t19.5 209t19.5 373t-15 331q-70 -251 -191.5 -487t-216.5 -375.5t-216.5 -233.5t-219.5 -94t-153 46.5t-55 104.5z" />
    <glyph glyph-name="U.salt" horiz-adv-x="1595" 
d="M483 1475q238 0 238 -274q0 -134 -121 -521.5t-121 -505.5q0 -242 170 -242q104 0 228.5 127t191.5 408l82 334q117 443 177.5 558.5t104.5 115.5t132 -82q-68 -47 -222.5 -532.5t-154.5 -756.5q0 -158 57 -157q51 0 137 113.5t164 287.5l47 -35q-84 -195 -197.5 -343
t-228.5 -148q-76 0 -110.5 63t-35.5 121t7 152q-186 -336 -440 -336q-135 0 -213 82t-78 206t123 537t123 577t-113 165q-94 0 -149.5 -104.5t-55.5 -194.5t29 -148q-94 0 -140 43t-46 115q0 133 123.5 254t291.5 121z" />
    <glyph glyph-name="r.init" horiz-adv-x="755" 
d="M166 701q0 44 35 90.5t71.5 46.5t36.5 -52q0 -20 -11 -48.5t-11 -35.5q0 -18 55 -52t110.5 -91t55.5 -127t-49 -185.5t-49 -150.5q0 -47 51 -47q90 0 196.5 101.5t149.5 201.5l37 -35q-66 -147 -186.5 -258.5t-249.5 -111.5q-76 0 -123 40t-47 102t54 193.5t54 176.5
q0 78 -102 131q-66 -195 -156 -381t-145 -248l-37 39q49 57 137 253t143 384q-20 20 -20 64z" />
    <glyph glyph-name="s.salt" horiz-adv-x="636" 
d="M126 229q-67 -1 -67 -107q0 -58 36 -105.5t106 -47.5t124 58.5t54 154.5t-66 365q-90 -141 -147 -205q25 -10 46 -31.5t21 -50.5t-40 -76q-37 45 -67 45zM543 215q0 -137 -92.5 -228t-234.5 -91t-202.5 77t-60.5 169t26.5 132.5t68.5 60t46 23.5q133 139 199 283
q14 168 92 168q45 0 49 -41l-10 -72q0 -55 59.5 -223t59.5 -258z" />
    <glyph glyph-name="v_a" horiz-adv-x="1609" 
d="M811 74q0 -66 47 -66q52 0 124 65t130 138l62 78l108 147q6 10 16 10h5l4 -2q10 33 10 76q0 106 -86 107q-135 0 -277.5 -200.5t-142.5 -352.5zM647 100q0 102 84 248t222.5 250t273.5 104q90 0 150.5 -46t60.5 -117q0 -94 -117 -99q74 -23 74 -61q0 -23 -58.5 -122
t-58.5 -148q0 -74 59 -74t148.5 80t173.5 239l39 -39q-76 -170 -188.5 -273t-227.5 -103q-82 0 -126 54t-44 124q-92 -111 -157.5 -162t-138.5 -51t-121 47t-48 149zM201 27q117 0 362 497q59 125 133 125q27 0 54 -14q-37 -70 -48 -88l-57 -103q-45 -84 -72 -122l-75 -113
q-49 -76 -86 -116t-105 -106.5t-153 -66.5q-136 1 -136 234q0 331 23 347.5t65 16.5q41 0 55.5 -16.5t14.5 -61.5l-14 -297q0 -68 7 -92t32 -24z" />
    </font>
</defs>
</svg>
